G04 #@! TF.FileFunction,Legend,Top*
%FSLAX46Y46*%
G04 Gerber Fmt 4.6, Leading zero omitted, Abs format (unit mm)*
G04 Created by KiCad (PCBNEW 4.0.7) date Monday, July 09, 2018 'PMt' 12:45:27 PM*
%MOMM*%
%LPD*%
G01*
G04 APERTURE LIST*
%ADD10C,0.020000*%
%ADD11C,0.100000*%
%ADD12C,0.150000*%
%ADD13C,0.120000*%
G04 APERTURE END LIST*
D10*
D11*
X27927300Y-67271900D02*
G75*
G02X29222700Y-68567300I0J-1295400D01*
G01*
X11417300Y-68567300D02*
G75*
G02X12687300Y-67297300I1270000J0D01*
G01*
X-44437300Y-63512700D02*
G75*
G02X-43167300Y-64782700I0J-1270000D01*
G01*
X11442700Y-87642700D02*
G75*
G02X10172700Y-88912700I-1270000J0D01*
G01*
X30467300Y-88912700D02*
G75*
G02X29197300Y-87642700I0J1270000D01*
G01*
D12*
X30480000Y-88900000D02*
X49530000Y-88900000D01*
D11*
X-41922700Y-88887300D02*
G75*
G02X-43192700Y-87617300I0J1270000D01*
G01*
D12*
X-43167300Y-64782700D02*
X-43180000Y-87630000D01*
X-49530000Y-63500000D02*
X-44437300Y-63512700D01*
X29222700Y-68567300D02*
X29210000Y-87630000D01*
X12687300Y-67297300D02*
X27927300Y-67297300D01*
X11430000Y-87630000D02*
X11417300Y-68567300D01*
D11*
X-50800000Y-3175000D02*
G75*
G02X-49530000Y-1905000I1270000J0D01*
G01*
X-49530000Y-1905000D02*
X-48895000Y-1905000D01*
X-48895000Y1905000D02*
G75*
G02X-48895000Y-1905000I0J-1905000D01*
G01*
X-48895000Y1905000D02*
X-49530000Y1905000D01*
X-49530000Y1905000D02*
G75*
G02X-50800000Y3175000I0J1270000D01*
G01*
X-50800000Y52070000D02*
X-50800000Y3175000D01*
X-50800000Y52070000D02*
G75*
G02X-49530000Y53340000I1270000J0D01*
G01*
X11430000Y53340000D02*
X-49530000Y53340000D01*
X11430000Y53340000D02*
G75*
G02X12700000Y52070000I0J-1270000D01*
G01*
X12700000Y52070000D02*
X12700000Y41910000D01*
X13970000Y40640000D02*
G75*
G02X12700000Y41910000I0J1270000D01*
G01*
X13970000Y40640000D02*
X49530000Y40640000D01*
X49530000Y40640000D02*
G75*
G02X50800000Y39370000I0J-1270000D01*
G01*
X50800000Y3175000D02*
X50800000Y39370000D01*
X50800000Y3175000D02*
G75*
G02X49530000Y1905000I-1270000J0D01*
G01*
X48895000Y1905000D02*
X49530000Y1905000D01*
X48895000Y-1905000D02*
G75*
G02X48895000Y1905000I0J1905000D01*
G01*
X49530000Y-1905000D02*
X48895000Y-1905000D01*
X49530000Y-1905000D02*
G75*
G02X50800000Y-3175000I0J-1270000D01*
G01*
X50800000Y-87630000D02*
X50800000Y-3175000D01*
X50800000Y-87630000D02*
G75*
G02X49530000Y-88900000I-1270000J0D01*
G01*
X-41910000Y-88900000D02*
X10160000Y-88900000D01*
X-49517300Y-63512700D02*
G75*
G02X-50787300Y-62242700I0J1270000D01*
G01*
X-50800000Y-3175000D02*
X-50800000Y-62230000D01*
D13*
X-41910000Y38722300D02*
X-40640000Y38722300D01*
X-41910000Y39992300D02*
X-41910000Y38722300D01*
X-45990000Y53472300D02*
X12970000Y53472300D01*
X-45990000Y44122300D02*
X-45990000Y53472300D01*
X-18760000Y44122300D02*
X-18760000Y53472300D01*
X-14260000Y44122300D02*
X-14260000Y53472300D01*
X12970000Y44122300D02*
X12970000Y53472300D01*
X12970000Y44122300D02*
X-45990000Y44122300D01*
X-37294000Y25384000D02*
X-37294000Y23384000D01*
X-34334000Y23384000D02*
X-34334000Y25384000D01*
X-36560000Y17824000D02*
X-34560000Y17824000D01*
X-34560000Y20784000D02*
X-36560000Y20784000D01*
X-27086000Y19908000D02*
X-27086000Y19208000D01*
X-28286000Y19208000D02*
X-28286000Y19908000D01*
X-31734000Y24682000D02*
X-29734000Y24682000D01*
X-29734000Y27642000D02*
X-31734000Y27642000D01*
X-37243200Y12709400D02*
X-37243200Y10709400D01*
X-34283200Y10709400D02*
X-34283200Y12709400D01*
X-36509200Y2838000D02*
X-34509200Y2838000D01*
X-34509200Y5798000D02*
X-36509200Y5798000D01*
X-27340000Y7208000D02*
X-27340000Y6508000D01*
X-28540000Y6508000D02*
X-28540000Y7208000D01*
X-31734000Y11982000D02*
X-29734000Y11982000D01*
X-29734000Y14942000D02*
X-31734000Y14942000D01*
X-28450000Y-23620000D02*
X-28450000Y-21440000D01*
X-28450000Y-17020000D02*
X-28450000Y-19200000D01*
X-35050000Y-22860000D02*
X-35050000Y-21440000D01*
X-35050000Y-17780000D02*
X-35050000Y-19200000D01*
X-28450000Y-23620000D02*
X-34290000Y-23620000D01*
X-34290000Y-23620000D02*
X-35050000Y-22860000D01*
X-35050000Y-17780000D02*
X-34290000Y-17020000D01*
X-34290000Y-17020000D02*
X-28450000Y-17020000D01*
X-28290000Y-7745000D02*
X-28290000Y-5565000D01*
X-28290000Y-1145000D02*
X-28290000Y-3325000D01*
X-34890000Y-6985000D02*
X-34890000Y-5565000D01*
X-34890000Y-1905000D02*
X-34890000Y-3325000D01*
X-28290000Y-7745000D02*
X-34130000Y-7745000D01*
X-34130000Y-7745000D02*
X-34890000Y-6985000D01*
X-34890000Y-1905000D02*
X-34130000Y-1145000D01*
X-34130000Y-1145000D02*
X-28290000Y-1145000D01*
X-41630000Y-56515000D02*
X-38830000Y-56515000D01*
X-34830000Y-56515000D02*
X-32030000Y-56515000D01*
X-34830000Y-34015000D02*
X-32030000Y-34015000D01*
X-32030000Y-34015000D02*
X-32030000Y-56515000D01*
X-41630000Y-34015000D02*
X-41630000Y-56515000D01*
X-41630000Y-34015000D02*
X-38830000Y-34015000D01*
X-30835000Y-56515000D02*
X-28035000Y-56515000D01*
X-24035000Y-56515000D02*
X-21235000Y-56515000D01*
X-24035000Y-34015000D02*
X-21235000Y-34015000D01*
X-21235000Y-34015000D02*
X-21235000Y-56515000D01*
X-30835000Y-34015000D02*
X-30835000Y-56515000D01*
X-30835000Y-34015000D02*
X-28035000Y-34015000D01*
D11*
X-20122000Y7930000D02*
X-20122000Y14930000D01*
X-27122000Y14930000D02*
X-20122000Y14930000D01*
X-27122000Y7930000D02*
X-27122000Y14930000D01*
X-20122000Y7930000D02*
X-27122000Y7930000D01*
X-32060000Y-15845601D02*
X-32060000Y-8845601D01*
X-39060000Y-8845601D02*
X-32060000Y-8845601D01*
X-39060000Y-15845601D02*
X-39060000Y-8845601D01*
X-32060000Y-15845601D02*
X-39060000Y-15845601D01*
X-24440000Y-15920000D02*
X-24440000Y-8920000D01*
X-31440000Y-8920000D02*
X-24440000Y-8920000D01*
X-31440000Y-15920000D02*
X-31440000Y-8920000D01*
X-24440000Y-15920000D02*
X-31440000Y-15920000D01*
X-20249000Y20630000D02*
X-20249000Y27630000D01*
X-27249000Y27630000D02*
X-20249000Y27630000D01*
X-27249000Y20630000D02*
X-27249000Y27630000D01*
X-20249000Y20630000D02*
X-27249000Y20630000D01*
D13*
X-32394000Y8916000D02*
X-32394000Y7716000D01*
X-34154000Y7716000D02*
X-34154000Y8916000D01*
X-35214000Y6232000D02*
X-36414000Y6232000D01*
X-36414000Y7992000D02*
X-35214000Y7992000D01*
X-28305200Y-25848200D02*
X-29505200Y-25848200D01*
X-29505200Y-24088200D02*
X-28305200Y-24088200D01*
D12*
X-30801000Y19838000D02*
X-29651000Y19838000D01*
X-31576000Y23088000D02*
X-29651000Y23088000D01*
X-30964000Y7173000D02*
X-29814000Y7173000D01*
X-31739000Y10423000D02*
X-29814000Y10423000D01*
D13*
X-26610000Y-64195000D02*
X-26610000Y-61535000D01*
X-34290000Y-64195000D02*
X-26610000Y-64195000D01*
X-34290000Y-61535000D02*
X-26610000Y-61535000D01*
X-34290000Y-64195000D02*
X-34290000Y-61535000D01*
X-35560000Y-64195000D02*
X-36890000Y-64195000D01*
X-36890000Y-64195000D02*
X-36890000Y-62865000D01*
X-26610000Y-29270000D02*
X-26610000Y-26610000D01*
X-34290000Y-29270000D02*
X-26610000Y-29270000D01*
X-34290000Y-26610000D02*
X-26610000Y-26610000D01*
X-34290000Y-29270000D02*
X-34290000Y-26610000D01*
X-35560000Y-29270000D02*
X-36890000Y-29270000D01*
X-36890000Y-29270000D02*
X-36890000Y-27940000D01*
X-24888500Y32744100D02*
X-22228500Y32744100D01*
X-24888500Y35344100D02*
X-24888500Y32744100D01*
X-22228500Y35344100D02*
X-22228500Y32744100D01*
X-24888500Y35344100D02*
X-22228500Y35344100D01*
X-24888500Y36614100D02*
X-24888500Y37944100D01*
X-24888500Y37944100D02*
X-23558500Y37944100D01*
X-28444500Y32744100D02*
X-25784500Y32744100D01*
X-28444500Y35344100D02*
X-28444500Y32744100D01*
X-25784500Y35344100D02*
X-25784500Y32744100D01*
X-28444500Y35344100D02*
X-25784500Y35344100D01*
X-28444500Y36614100D02*
X-28444500Y37944100D01*
X-28444500Y37944100D02*
X-27114500Y37944100D01*
D12*
X-47537619Y45763967D02*
X-46823333Y45763967D01*
X-46680476Y45716347D01*
X-46585238Y45621109D01*
X-46537619Y45478252D01*
X-46537619Y45383014D01*
X-47204286Y46668729D02*
X-46537619Y46668729D01*
X-47585238Y46430633D02*
X-46870952Y46192538D01*
X-46870952Y46811586D01*
X-36161166Y24026857D02*
X-36208785Y23979238D01*
X-36351642Y23931619D01*
X-36446880Y23931619D01*
X-36589738Y23979238D01*
X-36684976Y24074476D01*
X-36732595Y24169714D01*
X-36780214Y24360190D01*
X-36780214Y24503048D01*
X-36732595Y24693524D01*
X-36684976Y24788762D01*
X-36589738Y24884000D01*
X-36446880Y24931619D01*
X-36351642Y24931619D01*
X-36208785Y24884000D01*
X-36161166Y24836381D01*
X-35208785Y23931619D02*
X-35780214Y23931619D01*
X-35494500Y23931619D02*
X-35494500Y24931619D01*
X-35589738Y24788762D01*
X-35684976Y24693524D01*
X-35780214Y24645905D01*
X-35202857Y18959434D02*
X-35155238Y18911815D01*
X-35107619Y18768958D01*
X-35107619Y18673720D01*
X-35155238Y18530862D01*
X-35250476Y18435624D01*
X-35345714Y18388005D01*
X-35536190Y18340386D01*
X-35679048Y18340386D01*
X-35869524Y18388005D01*
X-35964762Y18435624D01*
X-36060000Y18530862D01*
X-36107619Y18673720D01*
X-36107619Y18768958D01*
X-36060000Y18911815D01*
X-36012381Y18959434D01*
X-36012381Y19340386D02*
X-36060000Y19388005D01*
X-36107619Y19483243D01*
X-36107619Y19721339D01*
X-36060000Y19816577D01*
X-36012381Y19864196D01*
X-35917143Y19911815D01*
X-35821905Y19911815D01*
X-35679048Y19864196D01*
X-35107619Y19292767D01*
X-35107619Y19911815D01*
X-27911166Y18018957D02*
X-27958785Y17971338D01*
X-28101642Y17923719D01*
X-28196880Y17923719D01*
X-28339738Y17971338D01*
X-28434976Y18066576D01*
X-28482595Y18161814D01*
X-28530214Y18352290D01*
X-28530214Y18495148D01*
X-28482595Y18685624D01*
X-28434976Y18780862D01*
X-28339738Y18876100D01*
X-28196880Y18923719D01*
X-28101642Y18923719D01*
X-27958785Y18876100D01*
X-27911166Y18828481D01*
X-27577833Y18923719D02*
X-26958785Y18923719D01*
X-27292119Y18542767D01*
X-27149261Y18542767D01*
X-27054023Y18495148D01*
X-27006404Y18447529D01*
X-26958785Y18352290D01*
X-26958785Y18114195D01*
X-27006404Y18018957D01*
X-27054023Y17971338D01*
X-27149261Y17923719D01*
X-27434976Y17923719D01*
X-27530214Y17971338D01*
X-27577833Y18018957D01*
X-30900666Y25768957D02*
X-30948285Y25721338D01*
X-31091142Y25673719D01*
X-31186380Y25673719D01*
X-31329238Y25721338D01*
X-31424476Y25816576D01*
X-31472095Y25911814D01*
X-31519714Y26102290D01*
X-31519714Y26245148D01*
X-31472095Y26435624D01*
X-31424476Y26530862D01*
X-31329238Y26626100D01*
X-31186380Y26673719D01*
X-31091142Y26673719D01*
X-30948285Y26626100D01*
X-30900666Y26578481D01*
X-30043523Y26340386D02*
X-30043523Y25673719D01*
X-30281619Y26721338D02*
X-30519714Y26007052D01*
X-29900666Y26007052D01*
X-35387357Y11542734D02*
X-35339738Y11495115D01*
X-35292119Y11352258D01*
X-35292119Y11257020D01*
X-35339738Y11114162D01*
X-35434976Y11018924D01*
X-35530214Y10971305D01*
X-35720690Y10923686D01*
X-35863548Y10923686D01*
X-36054024Y10971305D01*
X-36149262Y11018924D01*
X-36244500Y11114162D01*
X-36292119Y11257020D01*
X-36292119Y11352258D01*
X-36244500Y11495115D01*
X-36196881Y11542734D01*
X-36292119Y11876067D02*
X-36292119Y12542734D01*
X-35292119Y12114162D01*
X-35661166Y3768957D02*
X-35708785Y3721338D01*
X-35851642Y3673719D01*
X-35946880Y3673719D01*
X-36089738Y3721338D01*
X-36184976Y3816576D01*
X-36232595Y3911814D01*
X-36280214Y4102290D01*
X-36280214Y4245148D01*
X-36232595Y4435624D01*
X-36184976Y4530862D01*
X-36089738Y4626100D01*
X-35946880Y4673719D01*
X-35851642Y4673719D01*
X-35708785Y4626100D01*
X-35661166Y4578481D01*
X-35089738Y4245148D02*
X-35184976Y4292767D01*
X-35232595Y4340386D01*
X-35280214Y4435624D01*
X-35280214Y4483243D01*
X-35232595Y4578481D01*
X-35184976Y4626100D01*
X-35089738Y4673719D01*
X-34899261Y4673719D01*
X-34804023Y4626100D01*
X-34756404Y4578481D01*
X-34708785Y4483243D01*
X-34708785Y4435624D01*
X-34756404Y4340386D01*
X-34804023Y4292767D01*
X-34899261Y4245148D01*
X-35089738Y4245148D01*
X-35184976Y4197529D01*
X-35232595Y4149910D01*
X-35280214Y4054671D01*
X-35280214Y3864195D01*
X-35232595Y3768957D01*
X-35184976Y3721338D01*
X-35089738Y3673719D01*
X-34899261Y3673719D01*
X-34804023Y3721338D01*
X-34756404Y3768957D01*
X-34708785Y3864195D01*
X-34708785Y4054671D01*
X-34756404Y4149910D01*
X-34804023Y4197529D01*
X-34899261Y4245148D01*
X-28161166Y5268957D02*
X-28208785Y5221338D01*
X-28351642Y5173719D01*
X-28446880Y5173719D01*
X-28589738Y5221338D01*
X-28684976Y5316576D01*
X-28732595Y5411814D01*
X-28780214Y5602290D01*
X-28780214Y5745148D01*
X-28732595Y5935624D01*
X-28684976Y6030862D01*
X-28589738Y6126100D01*
X-28446880Y6173719D01*
X-28351642Y6173719D01*
X-28208785Y6126100D01*
X-28161166Y6078481D01*
X-27684976Y5173719D02*
X-27494500Y5173719D01*
X-27399261Y5221338D01*
X-27351642Y5268957D01*
X-27256404Y5411814D01*
X-27208785Y5602290D01*
X-27208785Y5983243D01*
X-27256404Y6078481D01*
X-27304023Y6126100D01*
X-27399261Y6173719D01*
X-27589738Y6173719D01*
X-27684976Y6126100D01*
X-27732595Y6078481D01*
X-27780214Y5983243D01*
X-27780214Y5745148D01*
X-27732595Y5649910D01*
X-27684976Y5602290D01*
X-27589738Y5554671D01*
X-27399261Y5554671D01*
X-27304023Y5602290D01*
X-27256404Y5649910D01*
X-27208785Y5745148D01*
X-31376857Y13018957D02*
X-31424476Y12971338D01*
X-31567333Y12923719D01*
X-31662571Y12923719D01*
X-31805429Y12971338D01*
X-31900667Y13066576D01*
X-31948286Y13161814D01*
X-31995905Y13352290D01*
X-31995905Y13495148D01*
X-31948286Y13685624D01*
X-31900667Y13780862D01*
X-31805429Y13876100D01*
X-31662571Y13923719D01*
X-31567333Y13923719D01*
X-31424476Y13876100D01*
X-31376857Y13828481D01*
X-30424476Y12923719D02*
X-30995905Y12923719D01*
X-30710191Y12923719D02*
X-30710191Y13923719D01*
X-30805429Y13780862D01*
X-30900667Y13685624D01*
X-30995905Y13638005D01*
X-29805429Y13923719D02*
X-29710190Y13923719D01*
X-29614952Y13876100D01*
X-29567333Y13828481D01*
X-29519714Y13733243D01*
X-29472095Y13542767D01*
X-29472095Y13304671D01*
X-29519714Y13114195D01*
X-29567333Y13018957D01*
X-29614952Y12971338D01*
X-29710190Y12923719D01*
X-29805429Y12923719D01*
X-29900667Y12971338D01*
X-29948286Y13018957D01*
X-29995905Y13114195D01*
X-30043524Y13304671D01*
X-30043524Y13542767D01*
X-29995905Y13733243D01*
X-29948286Y13828481D01*
X-29900667Y13876100D01*
X-29805429Y13923719D01*
X-32387357Y-20981043D02*
X-32434976Y-21028662D01*
X-32577833Y-21076281D01*
X-32673071Y-21076281D01*
X-32815929Y-21028662D01*
X-32911167Y-20933424D01*
X-32958786Y-20838186D01*
X-33006405Y-20647710D01*
X-33006405Y-20504852D01*
X-32958786Y-20314376D01*
X-32911167Y-20219138D01*
X-32815929Y-20123900D01*
X-32673071Y-20076281D01*
X-32577833Y-20076281D01*
X-32434976Y-20123900D01*
X-32387357Y-20171519D01*
X-31434976Y-21076281D02*
X-32006405Y-21076281D01*
X-31720691Y-21076281D02*
X-31720691Y-20076281D01*
X-31815929Y-20219138D01*
X-31911167Y-20314376D01*
X-32006405Y-20361995D01*
X-30958786Y-21076281D02*
X-30768310Y-21076281D01*
X-30673071Y-21028662D01*
X-30625452Y-20981043D01*
X-30530214Y-20838186D01*
X-30482595Y-20647710D01*
X-30482595Y-20266757D01*
X-30530214Y-20171519D01*
X-30577833Y-20123900D01*
X-30673071Y-20076281D01*
X-30863548Y-20076281D01*
X-30958786Y-20123900D01*
X-31006405Y-20171519D01*
X-31054024Y-20266757D01*
X-31054024Y-20504852D01*
X-31006405Y-20600090D01*
X-30958786Y-20647710D01*
X-30863548Y-20695329D01*
X-30673071Y-20695329D01*
X-30577833Y-20647710D01*
X-30530214Y-20600090D01*
X-30482595Y-20504852D01*
X-36410952Y-23351429D02*
X-35649047Y-23351429D01*
X-36029999Y-23732381D02*
X-36029999Y-22970476D01*
X-32137357Y-4731043D02*
X-32184976Y-4778662D01*
X-32327833Y-4826281D01*
X-32423071Y-4826281D01*
X-32565929Y-4778662D01*
X-32661167Y-4683424D01*
X-32708786Y-4588186D01*
X-32756405Y-4397710D01*
X-32756405Y-4254852D01*
X-32708786Y-4064376D01*
X-32661167Y-3969138D01*
X-32565929Y-3873900D01*
X-32423071Y-3826281D01*
X-32327833Y-3826281D01*
X-32184976Y-3873900D01*
X-32137357Y-3921519D01*
X-31756405Y-3921519D02*
X-31708786Y-3873900D01*
X-31613548Y-3826281D01*
X-31375452Y-3826281D01*
X-31280214Y-3873900D01*
X-31232595Y-3921519D01*
X-31184976Y-4016757D01*
X-31184976Y-4111995D01*
X-31232595Y-4254852D01*
X-31804024Y-4826281D01*
X-31184976Y-4826281D01*
X-30327833Y-4159614D02*
X-30327833Y-4826281D01*
X-30565929Y-3778662D02*
X-30804024Y-4492948D01*
X-30184976Y-4492948D01*
X-36250952Y-7476429D02*
X-35489047Y-7476429D01*
X-35869999Y-7857381D02*
X-35869999Y-7095476D01*
X-36901429Y-38348333D02*
X-36901429Y-38681667D01*
X-36377619Y-38681667D02*
X-37377619Y-38681667D01*
X-37377619Y-38205476D01*
X-36377619Y-37300714D02*
X-36377619Y-37872143D01*
X-36377619Y-37586429D02*
X-37377619Y-37586429D01*
X-37234762Y-37681667D01*
X-37139524Y-37776905D01*
X-37091905Y-37872143D01*
X-26106429Y-38348333D02*
X-26106429Y-38681667D01*
X-25582619Y-38681667D02*
X-26582619Y-38681667D01*
X-26582619Y-38205476D01*
X-26487381Y-37872143D02*
X-26535000Y-37824524D01*
X-26582619Y-37729286D01*
X-26582619Y-37491190D01*
X-26535000Y-37395952D01*
X-26487381Y-37348333D01*
X-26392143Y-37300714D01*
X-26296905Y-37300714D01*
X-26154048Y-37348333D01*
X-25582619Y-37919762D01*
X-25582619Y-37300714D01*
X-23911166Y10923719D02*
X-24387357Y10923719D01*
X-24387357Y11923719D01*
X-23054023Y10923719D02*
X-23625452Y10923719D01*
X-23339738Y10923719D02*
X-23339738Y11923719D01*
X-23434976Y11780862D01*
X-23530214Y11685624D01*
X-23625452Y11638005D01*
X-35661166Y-12826281D02*
X-36137357Y-12826281D01*
X-36137357Y-11826281D01*
X-35375452Y-11921519D02*
X-35327833Y-11873900D01*
X-35232595Y-11826281D01*
X-34994499Y-11826281D01*
X-34899261Y-11873900D01*
X-34851642Y-11921519D01*
X-34804023Y-12016757D01*
X-34804023Y-12111995D01*
X-34851642Y-12254852D01*
X-35423071Y-12826281D01*
X-34804023Y-12826281D01*
X-28161166Y-12576281D02*
X-28637357Y-12576281D01*
X-28637357Y-11576281D01*
X-27923071Y-11576281D02*
X-27304023Y-11576281D01*
X-27637357Y-11957233D01*
X-27494499Y-11957233D01*
X-27399261Y-12004852D01*
X-27351642Y-12052471D01*
X-27304023Y-12147710D01*
X-27304023Y-12385805D01*
X-27351642Y-12481043D01*
X-27399261Y-12528662D01*
X-27494499Y-12576281D01*
X-27780214Y-12576281D01*
X-27875452Y-12528662D01*
X-27923071Y-12481043D01*
X-23915666Y23673719D02*
X-24391857Y23673719D01*
X-24391857Y24673719D01*
X-23153761Y24340386D02*
X-23153761Y23673719D01*
X-23391857Y24721338D02*
X-23629952Y24007052D01*
X-23010904Y24007052D01*
X-32792119Y7959434D02*
X-33268310Y7626100D01*
X-32792119Y7388005D02*
X-33792119Y7388005D01*
X-33792119Y7768958D01*
X-33744500Y7864196D01*
X-33696881Y7911815D01*
X-33601643Y7959434D01*
X-33458786Y7959434D01*
X-33363548Y7911815D01*
X-33315929Y7864196D01*
X-33268310Y7768958D01*
X-33268310Y7388005D01*
X-32792119Y8911815D02*
X-32792119Y8340386D01*
X-32792119Y8626100D02*
X-33792119Y8626100D01*
X-33649262Y8530862D01*
X-33554024Y8435624D01*
X-33506405Y8340386D01*
X-35911166Y6673719D02*
X-36244500Y7149910D01*
X-36482595Y6673719D02*
X-36482595Y7673719D01*
X-36101642Y7673719D01*
X-36006404Y7626100D01*
X-35958785Y7578481D01*
X-35911166Y7483243D01*
X-35911166Y7340386D01*
X-35958785Y7245148D01*
X-36006404Y7197529D01*
X-36101642Y7149910D01*
X-36482595Y7149910D01*
X-35530214Y7578481D02*
X-35482595Y7626100D01*
X-35387357Y7673719D01*
X-35149261Y7673719D01*
X-35054023Y7626100D01*
X-35006404Y7578481D01*
X-34958785Y7483243D01*
X-34958785Y7388005D01*
X-35006404Y7245148D01*
X-35577833Y6673719D01*
X-34958785Y6673719D01*
X-27411166Y-25576281D02*
X-27744500Y-25100090D01*
X-27982595Y-25576281D02*
X-27982595Y-24576281D01*
X-27601642Y-24576281D01*
X-27506404Y-24623900D01*
X-27458785Y-24671519D01*
X-27411166Y-24766757D01*
X-27411166Y-24909614D01*
X-27458785Y-25004852D01*
X-27506404Y-25052471D01*
X-27601642Y-25100090D01*
X-27982595Y-25100090D01*
X-27077833Y-24576281D02*
X-26458785Y-24576281D01*
X-26792119Y-24957233D01*
X-26649261Y-24957233D01*
X-26554023Y-25004852D01*
X-26506404Y-25052471D01*
X-26458785Y-25147710D01*
X-26458785Y-25385805D01*
X-26506404Y-25481043D01*
X-26554023Y-25528662D01*
X-26649261Y-25576281D01*
X-26934976Y-25576281D01*
X-27030214Y-25528662D01*
X-27077833Y-25481043D01*
X-31006405Y21173719D02*
X-31006405Y20364195D01*
X-30958786Y20268957D01*
X-30911167Y20221338D01*
X-30815929Y20173719D01*
X-30625452Y20173719D01*
X-30530214Y20221338D01*
X-30482595Y20268957D01*
X-30434976Y20364195D01*
X-30434976Y21173719D01*
X-29434976Y20173719D02*
X-30006405Y20173719D01*
X-29720691Y20173719D02*
X-29720691Y21173719D01*
X-29815929Y21030862D01*
X-29911167Y20935624D01*
X-30006405Y20888005D01*
X-31150905Y8423719D02*
X-31150905Y7614195D01*
X-31103286Y7518957D01*
X-31055667Y7471338D01*
X-30960429Y7423719D01*
X-30769952Y7423719D01*
X-30674714Y7471338D01*
X-30627095Y7518957D01*
X-30579476Y7614195D01*
X-30579476Y8423719D01*
X-30150905Y8328481D02*
X-30103286Y8376100D01*
X-30008048Y8423719D01*
X-29769952Y8423719D01*
X-29674714Y8376100D01*
X-29627095Y8328481D01*
X-29579476Y8233243D01*
X-29579476Y8138005D01*
X-29627095Y7995148D01*
X-30198524Y7423719D01*
X-29579476Y7423719D01*
X-38437619Y-63198333D02*
X-37723333Y-63198333D01*
X-37580476Y-63245953D01*
X-37485238Y-63341191D01*
X-37437619Y-63484048D01*
X-37437619Y-63579286D01*
X-37437619Y-62198333D02*
X-37437619Y-62769762D01*
X-37437619Y-62484048D02*
X-38437619Y-62484048D01*
X-38294762Y-62579286D01*
X-38199524Y-62674524D01*
X-38151905Y-62769762D01*
X-38437619Y-28273333D02*
X-37723333Y-28273333D01*
X-37580476Y-28320953D01*
X-37485238Y-28416191D01*
X-37437619Y-28559048D01*
X-37437619Y-28654286D01*
X-38342381Y-27844762D02*
X-38390000Y-27797143D01*
X-38437619Y-27701905D01*
X-38437619Y-27463809D01*
X-38390000Y-27368571D01*
X-38342381Y-27320952D01*
X-38247143Y-27273333D01*
X-38151905Y-27273333D01*
X-38009048Y-27320952D01*
X-37437619Y-27892381D01*
X-37437619Y-27273333D01*
X-21327833Y36173719D02*
X-21327833Y35459433D01*
X-21375453Y35316576D01*
X-21470691Y35221338D01*
X-21613548Y35173719D01*
X-21708786Y35173719D01*
X-20946881Y36173719D02*
X-20327833Y36173719D01*
X-20661167Y35792767D01*
X-20518309Y35792767D01*
X-20423071Y35745148D01*
X-20375452Y35697529D01*
X-20327833Y35602290D01*
X-20327833Y35364195D01*
X-20375452Y35268957D01*
X-20423071Y35221338D01*
X-20518309Y35173719D01*
X-20804024Y35173719D01*
X-20899262Y35221338D01*
X-20946881Y35268957D01*
X-29827833Y35923719D02*
X-29827833Y35209433D01*
X-29875453Y35066576D01*
X-29970691Y34971338D01*
X-30113548Y34923719D01*
X-30208786Y34923719D01*
X-28875452Y35923719D02*
X-29351643Y35923719D01*
X-29399262Y35447529D01*
X-29351643Y35495148D01*
X-29256405Y35542767D01*
X-29018309Y35542767D01*
X-28923071Y35495148D01*
X-28875452Y35447529D01*
X-28827833Y35352290D01*
X-28827833Y35114195D01*
X-28875452Y35018957D01*
X-28923071Y34971338D01*
X-29018309Y34923719D01*
X-29256405Y34923719D01*
X-29351643Y34971338D01*
X-29399262Y35018957D01*
X40124286Y-71302471D02*
X40267143Y-71350090D01*
X40314762Y-71397710D01*
X40362381Y-71492948D01*
X40362381Y-71635805D01*
X40314762Y-71731043D01*
X40267143Y-71778662D01*
X40171905Y-71826281D01*
X39790952Y-71826281D01*
X39790952Y-70826281D01*
X40124286Y-70826281D01*
X40219524Y-70873900D01*
X40267143Y-70921519D01*
X40314762Y-71016757D01*
X40314762Y-71111995D01*
X40267143Y-71207233D01*
X40219524Y-71254852D01*
X40124286Y-71302471D01*
X39790952Y-71302471D01*
X41124286Y-71302471D02*
X41267143Y-71350090D01*
X41314762Y-71397710D01*
X41362381Y-71492948D01*
X41362381Y-71635805D01*
X41314762Y-71731043D01*
X41267143Y-71778662D01*
X41171905Y-71826281D01*
X40790952Y-71826281D01*
X40790952Y-70826281D01*
X41124286Y-70826281D01*
X41219524Y-70873900D01*
X41267143Y-70921519D01*
X41314762Y-71016757D01*
X41314762Y-71111995D01*
X41267143Y-71207233D01*
X41219524Y-71254852D01*
X41124286Y-71302471D01*
X40790952Y-71302471D01*
X41552857Y-71921519D02*
X42314762Y-71921519D01*
X42552857Y-71826281D02*
X42552857Y-70826281D01*
X42933810Y-70826281D01*
X43029048Y-70873900D01*
X43076667Y-70921519D01*
X43124286Y-71016757D01*
X43124286Y-71159614D01*
X43076667Y-71254852D01*
X43029048Y-71302471D01*
X42933810Y-71350090D01*
X42552857Y-71350090D01*
X43695714Y-71254852D02*
X43600476Y-71207233D01*
X43552857Y-71159614D01*
X43505238Y-71064376D01*
X43505238Y-71016757D01*
X43552857Y-70921519D01*
X43600476Y-70873900D01*
X43695714Y-70826281D01*
X43886191Y-70826281D01*
X43981429Y-70873900D01*
X44029048Y-70921519D01*
X44076667Y-71016757D01*
X44076667Y-71064376D01*
X44029048Y-71159614D01*
X43981429Y-71207233D01*
X43886191Y-71254852D01*
X43695714Y-71254852D01*
X43600476Y-71302471D01*
X43552857Y-71350090D01*
X43505238Y-71445329D01*
X43505238Y-71635805D01*
X43552857Y-71731043D01*
X43600476Y-71778662D01*
X43695714Y-71826281D01*
X43886191Y-71826281D01*
X43981429Y-71778662D01*
X44029048Y-71731043D01*
X44076667Y-71635805D01*
X44076667Y-71445329D01*
X44029048Y-71350090D01*
X43981429Y-71302471D01*
X43886191Y-71254852D01*
X-8030214Y-71302471D02*
X-7887357Y-71350090D01*
X-7839738Y-71397710D01*
X-7792119Y-71492948D01*
X-7792119Y-71635805D01*
X-7839738Y-71731043D01*
X-7887357Y-71778662D01*
X-7982595Y-71826281D01*
X-8363548Y-71826281D01*
X-8363548Y-70826281D01*
X-8030214Y-70826281D01*
X-7934976Y-70873900D01*
X-7887357Y-70921519D01*
X-7839738Y-71016757D01*
X-7839738Y-71111995D01*
X-7887357Y-71207233D01*
X-7934976Y-71254852D01*
X-8030214Y-71302471D01*
X-8363548Y-71302471D01*
X-7030214Y-71302471D02*
X-6887357Y-71350090D01*
X-6839738Y-71397710D01*
X-6792119Y-71492948D01*
X-6792119Y-71635805D01*
X-6839738Y-71731043D01*
X-6887357Y-71778662D01*
X-6982595Y-71826281D01*
X-7363548Y-71826281D01*
X-7363548Y-70826281D01*
X-7030214Y-70826281D01*
X-6934976Y-70873900D01*
X-6887357Y-70921519D01*
X-6839738Y-71016757D01*
X-6839738Y-71111995D01*
X-6887357Y-71207233D01*
X-6934976Y-71254852D01*
X-7030214Y-71302471D01*
X-7363548Y-71302471D01*
X-6601643Y-71921519D02*
X-5839738Y-71921519D01*
X-5601643Y-71826281D02*
X-5601643Y-70826281D01*
X-5220690Y-70826281D01*
X-5125452Y-70873900D01*
X-5077833Y-70921519D01*
X-5030214Y-71016757D01*
X-5030214Y-71159614D01*
X-5077833Y-71254852D01*
X-5125452Y-71302471D01*
X-5220690Y-71350090D01*
X-5601643Y-71350090D01*
X-4554024Y-71826281D02*
X-4363548Y-71826281D01*
X-4268309Y-71778662D01*
X-4220690Y-71731043D01*
X-4125452Y-71588186D01*
X-4077833Y-71397710D01*
X-4077833Y-71016757D01*
X-4125452Y-70921519D01*
X-4173071Y-70873900D01*
X-4268309Y-70826281D01*
X-4458786Y-70826281D01*
X-4554024Y-70873900D01*
X-4601643Y-70921519D01*
X-4649262Y-71016757D01*
X-4649262Y-71254852D01*
X-4601643Y-71350090D01*
X-4554024Y-71397710D01*
X-4458786Y-71445329D01*
X-4268309Y-71445329D01*
X-4173071Y-71397710D01*
X-4125452Y-71350090D01*
X-4077833Y-71254852D01*
M02*
