G04 #@! TF.FileFunction,Legend,Bot*
%FSLAX46Y46*%
G04 Gerber Fmt 4.6, Leading zero omitted, Abs format (unit mm)*
G04 Created by KiCad (PCBNEW 4.0.7) date Monday, July 09, 2018 'PMt' 12:45:27 PM*
%MOMM*%
%LPD*%
G01*
G04 APERTURE LIST*
%ADD10C,0.020000*%
%ADD11C,0.100000*%
%ADD12C,0.150000*%
%ADD13C,0.120000*%
G04 APERTURE END LIST*
D10*
D11*
X27927300Y-67271900D02*
G75*
G02X29222700Y-68567300I0J-1295400D01*
G01*
X11417300Y-68567300D02*
G75*
G02X12687300Y-67297300I1270000J0D01*
G01*
X-44437300Y-63512700D02*
G75*
G02X-43167300Y-64782700I0J-1270000D01*
G01*
X11442700Y-87642700D02*
G75*
G02X10172700Y-88912700I-1270000J0D01*
G01*
X30467300Y-88912700D02*
G75*
G02X29197300Y-87642700I0J1270000D01*
G01*
D12*
X30480000Y-88900000D02*
X49530000Y-88900000D01*
D11*
X-41922700Y-88887300D02*
G75*
G02X-43192700Y-87617300I0J1270000D01*
G01*
D12*
X-43167300Y-64782700D02*
X-43180000Y-87630000D01*
X-49530000Y-63500000D02*
X-44437300Y-63512700D01*
X29222700Y-68567300D02*
X29210000Y-87630000D01*
X12687300Y-67297300D02*
X27927300Y-67297300D01*
X11430000Y-87630000D02*
X11417300Y-68567300D01*
D11*
X-50800000Y-3175000D02*
G75*
G02X-49530000Y-1905000I1270000J0D01*
G01*
X-49530000Y-1905000D02*
X-48895000Y-1905000D01*
X-48895000Y1905000D02*
G75*
G02X-48895000Y-1905000I0J-1905000D01*
G01*
X-48895000Y1905000D02*
X-49530000Y1905000D01*
X-49530000Y1905000D02*
G75*
G02X-50800000Y3175000I0J1270000D01*
G01*
X-50800000Y52070000D02*
X-50800000Y3175000D01*
X-50800000Y52070000D02*
G75*
G02X-49530000Y53340000I1270000J0D01*
G01*
X11430000Y53340000D02*
X-49530000Y53340000D01*
X11430000Y53340000D02*
G75*
G02X12700000Y52070000I0J-1270000D01*
G01*
X12700000Y52070000D02*
X12700000Y41910000D01*
X13970000Y40640000D02*
G75*
G02X12700000Y41910000I0J1270000D01*
G01*
X13970000Y40640000D02*
X49530000Y40640000D01*
X49530000Y40640000D02*
G75*
G02X50800000Y39370000I0J-1270000D01*
G01*
X50800000Y3175000D02*
X50800000Y39370000D01*
X50800000Y3175000D02*
G75*
G02X49530000Y1905000I-1270000J0D01*
G01*
X48895000Y1905000D02*
X49530000Y1905000D01*
X48895000Y-1905000D02*
G75*
G02X48895000Y1905000I0J1905000D01*
G01*
X49530000Y-1905000D02*
X48895000Y-1905000D01*
X49530000Y-1905000D02*
G75*
G02X50800000Y-3175000I0J-1270000D01*
G01*
X50800000Y-87630000D02*
X50800000Y-3175000D01*
X50800000Y-87630000D02*
G75*
G02X49530000Y-88900000I-1270000J0D01*
G01*
X-41910000Y-88900000D02*
X10160000Y-88900000D01*
X-49517300Y-63512700D02*
G75*
G02X-50787300Y-62242700I0J1270000D01*
G01*
X-50800000Y-3175000D02*
X-50800000Y-62230000D01*
D13*
X-40948000Y23860000D02*
X-40948000Y21860000D01*
X-38808000Y21860000D02*
X-38808000Y23860000D01*
X-41202000Y11160000D02*
X-41202000Y9160000D01*
X-39062000Y9160000D02*
X-39062000Y11160000D01*
X39310000Y-11370000D02*
X44510000Y-11370000D01*
X39310000Y-67310000D02*
X39310000Y-11370000D01*
X44510000Y-69910000D02*
X44510000Y-11370000D01*
X39310000Y-67310000D02*
X41910000Y-67310000D01*
X41910000Y-67310000D02*
X41910000Y-69910000D01*
X41910000Y-69910000D02*
X44510000Y-69910000D01*
X39310000Y-68580000D02*
X39310000Y-69910000D01*
X39310000Y-69910000D02*
X40640000Y-69910000D01*
X-8950000Y-11370000D02*
X-3750000Y-11370000D01*
X-8950000Y-67310000D02*
X-8950000Y-11370000D01*
X-3750000Y-69910000D02*
X-3750000Y-11370000D01*
X-8950000Y-67310000D02*
X-6350000Y-67310000D01*
X-6350000Y-67310000D02*
X-6350000Y-69910000D01*
X-6350000Y-69910000D02*
X-3750000Y-69910000D01*
X-8950000Y-68580000D02*
X-8950000Y-69910000D01*
X-8950000Y-69910000D02*
X-7620000Y-69910000D01*
D12*
X-37575619Y23026666D02*
X-38051810Y23360000D01*
X-37575619Y23598095D02*
X-38575619Y23598095D01*
X-38575619Y23217142D01*
X-38528000Y23121904D01*
X-38480381Y23074285D01*
X-38385143Y23026666D01*
X-38242286Y23026666D01*
X-38147048Y23074285D01*
X-38099429Y23121904D01*
X-38051810Y23217142D01*
X-38051810Y23598095D01*
X-38242286Y22169523D02*
X-37575619Y22169523D01*
X-38623238Y22407619D02*
X-37908952Y22645714D01*
X-37908952Y22026666D01*
X-37829619Y10326666D02*
X-38305810Y10660000D01*
X-37829619Y10898095D02*
X-38829619Y10898095D01*
X-38829619Y10517142D01*
X-38782000Y10421904D01*
X-38734381Y10374285D01*
X-38639143Y10326666D01*
X-38496286Y10326666D01*
X-38401048Y10374285D01*
X-38353429Y10421904D01*
X-38305810Y10517142D01*
X-38305810Y10898095D01*
X-38829619Y9421904D02*
X-38829619Y9898095D01*
X-38353429Y9945714D01*
X-38401048Y9898095D01*
X-38448667Y9802857D01*
X-38448667Y9564761D01*
X-38401048Y9469523D01*
X-38353429Y9421904D01*
X-38258190Y9374285D01*
X-38020095Y9374285D01*
X-37924857Y9421904D01*
X-37877238Y9469523D01*
X-37829619Y9564761D01*
X-37829619Y9802857D01*
X-37877238Y9898095D01*
X-37924857Y9945714D01*
M02*
