G04 #@! TF.FileFunction,Copper,L4,Bot,Signal*
%FSLAX46Y46*%
G04 Gerber Fmt 4.6, Leading zero omitted, Abs format (unit mm)*
G04 Created by KiCad (PCBNEW 4.0.7) date Tuesday, June 19, 2018 'PMt' 05:08:08 PM*
%MOMM*%
%LPD*%
G01*
G04 APERTURE LIST*
%ADD10C,0.020000*%
%ADD11C,0.100000*%
%ADD12C,0.150000*%
%ADD13C,0.660400*%
%ADD14R,1.727200X1.727200*%
%ADD15O,1.727200X1.727200*%
%ADD16C,3.000000*%
%ADD17R,1.700000X2.000000*%
%ADD18R,1.700000X1.700000*%
%ADD19O,1.700000X1.700000*%
%ADD20C,0.254000*%
%ADD21C,1.016000*%
%ADD22C,1.270000*%
%ADD23C,0.152400*%
G04 APERTURE END LIST*
D10*
D11*
X11442700Y-87642700D02*
G75*
G02X10172700Y-88912700I-1270000J0D01*
G01*
X30467300Y-88912700D02*
G75*
G02X29197300Y-87642700I0J1270000D01*
G01*
D12*
X30480000Y-88900000D02*
X49530000Y-88900000D01*
D11*
X-41922700Y-88887300D02*
G75*
G02X-43192700Y-87617300I0J1270000D01*
G01*
D12*
X-43180000Y-63500000D02*
X-43180000Y-87630000D01*
X-49530000Y-63500000D02*
X-43180000Y-63500000D01*
X29210000Y-67310000D02*
X29210000Y-87630000D01*
X11430000Y-67310000D02*
X29210000Y-67310000D01*
X11430000Y-87630000D02*
X11430000Y-67310000D01*
D11*
X-50800000Y-3175000D02*
G75*
G02X-49530000Y-1905000I1270000J0D01*
G01*
X-49530000Y-1905000D02*
X-48895000Y-1905000D01*
X-48895000Y1905000D02*
G75*
G02X-48895000Y-1905000I0J-1905000D01*
G01*
X-48895000Y1905000D02*
X-49530000Y1905000D01*
X-49530000Y1905000D02*
G75*
G02X-50800000Y3175000I0J1270000D01*
G01*
X-50800000Y52070000D02*
X-50800000Y3175000D01*
X-50800000Y52070000D02*
G75*
G02X-49530000Y53340000I1270000J0D01*
G01*
X11430000Y53340000D02*
X-49530000Y53340000D01*
X11430000Y53340000D02*
G75*
G02X12700000Y52070000I0J-1270000D01*
G01*
X12700000Y52070000D02*
X12700000Y41910000D01*
X13970000Y40640000D02*
G75*
G02X12700000Y41910000I0J1270000D01*
G01*
X13970000Y40640000D02*
X49530000Y40640000D01*
X49530000Y40640000D02*
G75*
G02X50800000Y39370000I0J-1270000D01*
G01*
X50800000Y3175000D02*
X50800000Y39370000D01*
X50800000Y3175000D02*
G75*
G02X49530000Y1905000I-1270000J0D01*
G01*
X48895000Y1905000D02*
X49530000Y1905000D01*
X48895000Y-1905000D02*
G75*
G02X48895000Y1905000I0J1905000D01*
G01*
X49530000Y-1905000D02*
X48895000Y-1905000D01*
X49530000Y-1905000D02*
G75*
G02X50800000Y-3175000I0J-1270000D01*
G01*
X50800000Y-87630000D02*
X50800000Y-3175000D01*
X50800000Y-87630000D02*
G75*
G02X49530000Y-88900000I-1270000J0D01*
G01*
X-41910000Y-88900000D02*
X10160000Y-88900000D01*
X-49517300Y-63512700D02*
G75*
G02X-50787300Y-62242700I0J1270000D01*
G01*
X-50800000Y-3175000D02*
X-50800000Y-62230000D01*
D13*
X-34988500Y16548100D03*
X-19240500Y18580100D03*
X-19240500Y21120100D03*
X-27368500Y16548100D03*
X-29908500Y16548100D03*
X-32448500Y16548100D03*
X-24828500Y16548100D03*
X-20256500Y1816100D03*
X-17716500Y4102100D03*
X-20256500Y4102100D03*
X-17716500Y1816100D03*
X-25336500Y1816100D03*
X-22796500Y4102100D03*
X-25336500Y4102100D03*
X-22796500Y1816100D03*
X-27876500Y1816100D03*
X-27876500Y4102100D03*
X-30416500Y1816100D03*
D14*
X-40640000Y39992300D03*
D15*
X-40640000Y42532300D03*
X-38100000Y39992300D03*
X-38100000Y42532300D03*
X-35560000Y39992300D03*
X-35560000Y42532300D03*
X-33020000Y39992300D03*
X-33020000Y42532300D03*
X-30480000Y39992300D03*
X-30480000Y42532300D03*
X-27940000Y39992300D03*
X-27940000Y42532300D03*
X-25400000Y39992300D03*
X-25400000Y42532300D03*
X-22860000Y39992300D03*
X-22860000Y42532300D03*
X-20320000Y39992300D03*
X-20320000Y42532300D03*
X-17780000Y39992300D03*
X-17780000Y42532300D03*
X-15240000Y39992300D03*
X-15240000Y42532300D03*
X-12700000Y39992300D03*
X-12700000Y42532300D03*
X-10160000Y39992300D03*
X-10160000Y42532300D03*
X-7620000Y39992300D03*
X-7620000Y42532300D03*
X-5080000Y39992300D03*
X-5080000Y42532300D03*
X-2540000Y39992300D03*
X-2540000Y42532300D03*
X0Y39992300D03*
X0Y42532300D03*
X2540000Y39992300D03*
X2540000Y42532300D03*
X5080000Y39992300D03*
X5080000Y42532300D03*
X7620000Y39992300D03*
X7620000Y42532300D03*
D16*
X-36830000Y-34015000D03*
X-36830000Y-56515000D03*
X-26035000Y-34015000D03*
X-26035000Y-56515000D03*
D17*
X-39878000Y20860000D03*
X-39878000Y24860000D03*
X-40132000Y8160000D03*
X-40132000Y12160000D03*
D18*
X-35560000Y-62865000D03*
D19*
X-33020000Y-62865000D03*
X-30480000Y-62865000D03*
X-27940000Y-62865000D03*
D18*
X-35560000Y-27940000D03*
D19*
X-33020000Y-27940000D03*
X-30480000Y-27940000D03*
X-27940000Y-27940000D03*
D18*
X-23558500Y36614100D03*
D19*
X-23558500Y34074100D03*
D18*
X-27114500Y36614100D03*
D19*
X-27114500Y34074100D03*
D18*
X40640000Y-68580000D03*
D19*
X43180000Y-68580000D03*
X40640000Y-66040000D03*
X43180000Y-66040000D03*
X40640000Y-63500000D03*
X43180000Y-63500000D03*
X40640000Y-60960000D03*
X43180000Y-60960000D03*
X40640000Y-58420000D03*
X43180000Y-58420000D03*
X40640000Y-55880000D03*
X43180000Y-55880000D03*
X40640000Y-53340000D03*
X43180000Y-53340000D03*
X40640000Y-50800000D03*
X43180000Y-50800000D03*
X40640000Y-48260000D03*
X43180000Y-48260000D03*
X40640000Y-45720000D03*
X43180000Y-45720000D03*
X40640000Y-43180000D03*
X43180000Y-43180000D03*
X40640000Y-40640000D03*
X43180000Y-40640000D03*
X40640000Y-38100000D03*
X43180000Y-38100000D03*
X40640000Y-35560000D03*
X43180000Y-35560000D03*
X40640000Y-33020000D03*
X43180000Y-33020000D03*
X40640000Y-30480000D03*
X43180000Y-30480000D03*
X40640000Y-27940000D03*
X43180000Y-27940000D03*
X40640000Y-25400000D03*
X43180000Y-25400000D03*
X40640000Y-22860000D03*
X43180000Y-22860000D03*
X40640000Y-20320000D03*
X43180000Y-20320000D03*
X40640000Y-17780000D03*
X43180000Y-17780000D03*
X40640000Y-15240000D03*
X43180000Y-15240000D03*
X40640000Y-12700000D03*
X43180000Y-12700000D03*
D18*
X-7620000Y-68580000D03*
D19*
X-5080000Y-68580000D03*
X-7620000Y-66040000D03*
X-5080000Y-66040000D03*
X-7620000Y-63500000D03*
X-5080000Y-63500000D03*
X-7620000Y-60960000D03*
X-5080000Y-60960000D03*
X-7620000Y-58420000D03*
X-5080000Y-58420000D03*
X-7620000Y-55880000D03*
X-5080000Y-55880000D03*
X-7620000Y-53340000D03*
X-5080000Y-53340000D03*
X-7620000Y-50800000D03*
X-5080000Y-50800000D03*
X-7620000Y-48260000D03*
X-5080000Y-48260000D03*
X-7620000Y-45720000D03*
X-5080000Y-45720000D03*
X-7620000Y-43180000D03*
X-5080000Y-43180000D03*
X-7620000Y-40640000D03*
X-5080000Y-40640000D03*
X-7620000Y-38100000D03*
X-5080000Y-38100000D03*
X-7620000Y-35560000D03*
X-5080000Y-35560000D03*
X-7620000Y-33020000D03*
X-5080000Y-33020000D03*
X-7620000Y-30480000D03*
X-5080000Y-30480000D03*
X-7620000Y-27940000D03*
X-5080000Y-27940000D03*
X-7620000Y-25400000D03*
X-5080000Y-25400000D03*
X-7620000Y-22860000D03*
X-5080000Y-22860000D03*
X-7620000Y-20320000D03*
X-5080000Y-20320000D03*
X-7620000Y-17780000D03*
X-5080000Y-17780000D03*
X-7620000Y-15240000D03*
X-5080000Y-15240000D03*
X-7620000Y-12700000D03*
X-5080000Y-12700000D03*
D13*
X-30416500Y4102100D03*
X-39643198Y17879234D03*
X-19015731Y26917096D03*
X-27101800Y27127200D03*
X-31699200Y19685000D03*
X-32308451Y-24996717D03*
X-39643198Y16870785D03*
X-39643198Y18941902D03*
X-39573200Y4622800D03*
X-39573200Y5486400D03*
X-39576000Y6350000D03*
X-34443718Y-18139319D03*
X-27936560Y-17394856D03*
X-38608000Y26670000D03*
X-39370000Y26670000D03*
X-28890000Y-2352000D03*
X-38354000Y13868400D03*
X-39268400Y13868400D03*
X-40132000Y13868400D03*
X-31475903Y6668188D03*
X-27025600Y14478000D03*
X-5588000Y30480000D03*
X-17124873Y27602466D03*
X482600Y-45720000D03*
X1053201Y-44309401D03*
X1117623Y-43180000D03*
X1730884Y-48230932D03*
X2456731Y-42242694D03*
X2325482Y-29232743D03*
X2970176Y-33038911D03*
X3645027Y-31753479D03*
X-6604000Y29718000D03*
X-5223615Y32014796D03*
X-4575641Y32630370D03*
X-5223615Y33278342D03*
X-4608040Y33926317D03*
X-5191216Y34574291D03*
X-4669358Y35223208D03*
X-18877186Y28253968D03*
X-508000Y-47244000D03*
X-18499525Y12758402D03*
X-33070800Y21793200D03*
D20*
X-30480000Y-25864999D02*
X-32015841Y-24329158D01*
X-17272000Y13716000D02*
X-23241000Y19685000D01*
X-35407055Y-16865055D02*
X-17272000Y1270000D01*
X-31232227Y19685000D02*
X-31699200Y19685000D01*
X-23241000Y19685000D02*
X-31232227Y19685000D01*
X-17272000Y1270000D02*
X-17272000Y13716000D01*
X-32363582Y-24329158D02*
X-35407055Y-21285685D01*
X-32015841Y-24329158D02*
X-32363582Y-24329158D01*
X-35407055Y-21285685D02*
X-35407055Y-16865055D01*
X-30480000Y-27940000D02*
X-30480000Y-25864999D01*
D21*
X-18685532Y26586897D02*
X-19015731Y26917096D01*
X-7195103Y26586897D02*
X-18685532Y26586897D01*
X-2540000Y31242000D02*
X-7195103Y26586897D01*
X-2540000Y39992300D02*
X-2540000Y31242000D01*
X-2540000Y42532300D02*
X-2540000Y39992300D01*
D20*
X-31699200Y22529800D02*
X-27101800Y27127200D01*
X-31699200Y19685000D02*
X-31699200Y22529800D01*
X-32638650Y-24666518D02*
X-32308451Y-24996717D01*
X-36576000Y-20729168D02*
X-32638650Y-24666518D01*
X-36576000Y-16510000D02*
X-36576000Y-20729168D01*
X-19304000Y762000D02*
X-36576000Y-16510000D01*
D22*
X-39878000Y20860000D02*
X-39636972Y20618972D01*
X-39629215Y18909964D02*
X-39643198Y18895981D01*
X-39636972Y20618972D02*
X-39636972Y18917721D01*
X-39636972Y18917721D02*
X-39629215Y18909964D01*
X-39643198Y18895981D02*
X-39643198Y16870785D01*
X-39573200Y5019427D02*
X-39573200Y4622800D01*
X-39573200Y5486400D02*
X-39573200Y5019427D01*
X-39573200Y5880227D02*
X-39573200Y5486400D01*
X-39576000Y6350000D02*
X-39576000Y5883027D01*
D20*
X-39576000Y5883027D02*
X-39573200Y5880227D01*
D22*
X-40132000Y8160000D02*
X-40132000Y6906000D01*
X-40132000Y6906000D02*
X-39576000Y6350000D01*
D21*
X-34113519Y-17809120D02*
X-34443718Y-18139319D01*
X5080000Y21384399D02*
X-34113519Y-17809120D01*
X5080000Y39992300D02*
X5080000Y21384399D01*
X5080000Y39992300D02*
X2540000Y39992300D01*
X2540000Y42532300D02*
X2540000Y39992300D01*
X7620000Y39992300D02*
X7620000Y20034034D01*
X7620000Y20034034D02*
X-27936560Y-15522526D01*
X-27936560Y-15522526D02*
X-27936560Y-17394856D01*
X7620000Y42532300D02*
X7620000Y39992300D01*
X5080000Y42532300D02*
X7620000Y42532300D01*
D22*
X-39370000Y26670000D02*
X-38608000Y26670000D01*
X-39878000Y26162000D02*
X-39370000Y26670000D01*
X-39878000Y24860000D02*
X-39878000Y26162000D01*
X-39268400Y13868400D02*
X-38354000Y13868400D01*
X-40132000Y13868400D02*
X-39268400Y13868400D01*
X-40132000Y12160000D02*
X-40132000Y13868400D01*
D20*
X-31145704Y6998387D02*
X-31475903Y6668188D01*
X-27025600Y14478000D02*
X-27025600Y11118491D01*
X-27025600Y11118491D02*
X-31145704Y6998387D01*
X-5588000Y30946973D02*
X-5588000Y30480000D01*
X-5588000Y31266005D02*
X-5588000Y30946973D01*
X-8040388Y33718393D02*
X-5588000Y31266005D01*
X-20164006Y36614100D02*
X-17268299Y33718393D01*
X-17268299Y33718393D02*
X-8040388Y33718393D01*
X-23558500Y36614100D02*
X-20164006Y36614100D01*
X-17124873Y27640473D02*
X-17124873Y27602466D01*
X-23558500Y34074100D02*
X-17124873Y27640473D01*
X-5080000Y-45720000D02*
X482600Y-45720000D01*
X-7620000Y-45720000D02*
X-6351393Y-44451393D01*
X-6351393Y-44451393D02*
X911209Y-44451393D01*
X911209Y-44451393D02*
X1053201Y-44309401D01*
X-5080000Y-43180000D02*
X1117623Y-43180000D01*
X-5080000Y-48260000D02*
X1701816Y-48260000D01*
X1701816Y-48260000D02*
X1730884Y-48230932D01*
X2126532Y-41912495D02*
X2456731Y-42242694D01*
X-6352495Y-41912495D02*
X2126532Y-41912495D01*
X-7620000Y-43180000D02*
X-6352495Y-41912495D01*
X-6372743Y-29232743D02*
X1858509Y-29232743D01*
X1858509Y-29232743D02*
X2325482Y-29232743D01*
X-7620000Y-30480000D02*
X-6372743Y-29232743D01*
X2951265Y-33020000D02*
X2970176Y-33038911D01*
X-5080000Y-33020000D02*
X2951265Y-33020000D01*
X3178054Y-31753479D02*
X3645027Y-31753479D01*
X-6353479Y-31753479D02*
X3178054Y-31753479D01*
X-7620000Y-33020000D02*
X-6353479Y-31753479D01*
X-27114500Y36614100D02*
X-26010500Y36614100D01*
X-26010500Y36614100D02*
X-24714524Y35318124D01*
X-24714524Y35318124D02*
X-19442780Y35318124D01*
X-19442780Y35318124D02*
X-17436638Y33311982D01*
X-17436638Y33311982D02*
X-8208728Y33311982D01*
X-8208728Y33311982D02*
X-6604000Y31707254D01*
X-6604000Y31707254D02*
X-6604000Y29718000D01*
X-22860000Y39992300D02*
X-21996401Y39128701D01*
X-5690588Y32014796D02*
X-5223615Y32014796D01*
X-5762040Y32014796D02*
X-5690588Y32014796D01*
X-21996401Y39128701D02*
X-21996401Y39021246D01*
X-21996401Y39021246D02*
X-17099959Y34124804D01*
X-17099959Y34124804D02*
X-7872048Y34124804D01*
X-7872048Y34124804D02*
X-5762040Y32014796D01*
X-5802863Y32630370D02*
X-5042614Y32630370D01*
X-7703708Y34531215D02*
X-5802863Y32630370D01*
X-21579767Y39179363D02*
X-16931619Y34531215D01*
X-22860000Y42532300D02*
X-21579767Y41252067D01*
X-21579767Y41252067D02*
X-21579767Y39179363D01*
X-16931619Y34531215D02*
X-7703708Y34531215D01*
X-5042614Y32630370D02*
X-4575641Y32630370D01*
X-5690588Y33278342D02*
X-5223615Y33278342D01*
X-5876084Y33278342D02*
X-5690588Y33278342D01*
X-16763279Y34937626D02*
X-7535368Y34937626D01*
X-7535368Y34937626D02*
X-5876084Y33278342D01*
X-20320000Y38494347D02*
X-16763279Y34937626D01*
X-20320000Y39992300D02*
X-20320000Y38494347D01*
X-5949308Y33926317D02*
X-5075013Y33926317D01*
X-7367028Y35344037D02*
X-5949308Y33926317D01*
X-19063955Y41276255D02*
X-19063955Y37813053D01*
X-20320000Y42532300D02*
X-19063955Y41276255D01*
X-5075013Y33926317D02*
X-4608040Y33926317D01*
X-16594939Y35344037D02*
X-7367028Y35344037D01*
X-19063955Y37813053D02*
X-16594939Y35344037D01*
X-6019011Y34574291D02*
X-5658189Y34574291D01*
X-7195168Y35750448D02*
X-6019011Y34574291D01*
X-16426599Y35750448D02*
X-7195168Y35750448D01*
X-17780000Y37103850D02*
X-16426599Y35750448D01*
X-17780000Y39992300D02*
X-17780000Y37103850D01*
X-5658189Y34574291D02*
X-5191216Y34574291D01*
X-17780000Y42532300D02*
X-16497560Y41249860D01*
X-16497560Y41249860D02*
X-16497560Y36396161D01*
X-16497560Y36396161D02*
X-16258259Y36156859D01*
X-16258259Y36156859D02*
X-7026829Y36156859D01*
X-7026829Y36156859D02*
X-6095185Y35225215D01*
X-6095185Y35225215D02*
X-4671365Y35225215D01*
X-4671365Y35225215D02*
X-4669358Y35223208D01*
X-27114500Y34074100D02*
X-25405568Y32365168D01*
X-25405568Y32365168D02*
X-22494144Y32365168D01*
X-22494144Y32365168D02*
X-18877186Y28748210D01*
X-18877186Y28748210D02*
X-18877186Y28253968D01*
X-508000Y-47244000D02*
X-762000Y-46990000D01*
X-6350000Y-46990000D02*
X-6770001Y-47410001D01*
X-762000Y-46990000D02*
X-6350000Y-46990000D01*
X-6770001Y-47410001D02*
X-7620000Y-48260000D01*
X-33070800Y19024600D02*
X-32207200Y18161000D01*
X-33070800Y21793200D02*
X-33070800Y19024600D01*
X-18829724Y13088601D02*
X-18499525Y12758402D01*
X-32207200Y18161000D02*
X-23902123Y18161000D01*
X-23902123Y18161000D02*
X-18829724Y13088601D01*
D23*
G36*
X-33426400Y19024600D02*
X-33399332Y18888517D01*
X-33322247Y18773153D01*
X-32458647Y17909553D01*
X-32343283Y17832468D01*
X-32207200Y17805400D01*
X-24049417Y17805400D01*
X-19058277Y12814260D01*
X-19058422Y12647737D01*
X-18973529Y12442280D01*
X-18816473Y12284950D01*
X-18611165Y12199699D01*
X-18388860Y12199505D01*
X-18183403Y12284398D01*
X-18026073Y12441454D01*
X-17940822Y12646762D01*
X-17940628Y12869067D01*
X-18025521Y13074524D01*
X-18182577Y13231854D01*
X-18387885Y13317105D01*
X-18555480Y13317251D01*
X-23650676Y18412447D01*
X-23766040Y18489532D01*
X-23902123Y18516600D01*
X-32059906Y18516600D01*
X-32715200Y19171894D01*
X-32715200Y21005800D01*
X-32054800Y21005800D01*
X-32054800Y20119595D01*
X-32172652Y20001948D01*
X-32257903Y19796640D01*
X-32258097Y19574335D01*
X-32173204Y19368878D01*
X-32016148Y19211548D01*
X-31810840Y19126297D01*
X-31588535Y19126103D01*
X-31383078Y19210996D01*
X-31264467Y19329400D01*
X-23388294Y19329400D01*
X-17856200Y13797306D01*
X-17856200Y1188694D01*
X-18968694Y76200D01*
X-40632494Y76200D01*
X-40707471Y91114D01*
X-40764668Y129332D01*
X-40802886Y186529D01*
X-40817800Y261506D01*
X-40817800Y6557523D01*
X-32034800Y6557523D01*
X-31949907Y6352066D01*
X-31792851Y6194736D01*
X-31587543Y6109485D01*
X-31365238Y6109291D01*
X-31159781Y6194184D01*
X-31002451Y6351240D01*
X-30917200Y6556548D01*
X-30917054Y6724143D01*
X-26774153Y10867044D01*
X-26746200Y10908878D01*
X-26746200Y9144000D01*
X-26740989Y9116305D01*
X-26724621Y9090868D01*
X-26699646Y9073803D01*
X-26670000Y9067800D01*
X-20574000Y9067800D01*
X-20546305Y9073011D01*
X-20520868Y9089379D01*
X-20503803Y9114354D01*
X-20497800Y9144000D01*
X-20497800Y13462000D01*
X-20503011Y13489695D01*
X-20519379Y13515132D01*
X-20544354Y13532197D01*
X-20574000Y13538200D01*
X-26670000Y13538200D01*
X-26670000Y14043405D01*
X-26552148Y14161052D01*
X-26466897Y14366360D01*
X-26466703Y14588665D01*
X-26551596Y14794122D01*
X-26708652Y14951452D01*
X-26913960Y15036703D01*
X-27136265Y15036897D01*
X-27341722Y14952004D01*
X-27499052Y14794948D01*
X-27584303Y14589640D01*
X-27584497Y14367335D01*
X-27499604Y14161878D01*
X-27381200Y14043267D01*
X-27381200Y11265785D01*
X-31420045Y7226940D01*
X-31586568Y7227085D01*
X-31792025Y7142192D01*
X-31949355Y6985136D01*
X-32034606Y6779828D01*
X-32034800Y6557523D01*
X-40817800Y6557523D01*
X-40817800Y8120494D01*
X-40802886Y8195471D01*
X-40764668Y8252668D01*
X-40707471Y8290886D01*
X-40632494Y8305800D01*
X-31242000Y8305800D01*
X-31227134Y8307264D01*
X-31129932Y8326599D01*
X-31102464Y8337977D01*
X-31020061Y8393037D01*
X-30999037Y8414061D01*
X-30943977Y8496464D01*
X-30932599Y8523932D01*
X-30913264Y8621134D01*
X-30911800Y8636000D01*
X-30911800Y14986000D01*
X-30913264Y15000866D01*
X-30932599Y15098068D01*
X-30943977Y15125536D01*
X-30999037Y15207939D01*
X-31020061Y15228963D01*
X-31102464Y15284023D01*
X-31129932Y15295401D01*
X-31227134Y15314736D01*
X-31242000Y15316200D01*
X-40378494Y15316200D01*
X-40453471Y15331114D01*
X-40510668Y15369332D01*
X-40548886Y15426529D01*
X-40563800Y15501506D01*
X-40563800Y17768569D01*
X-40202095Y17768569D01*
X-40117202Y17563112D01*
X-39960146Y17405782D01*
X-39754838Y17320531D01*
X-39532533Y17320337D01*
X-39327076Y17405230D01*
X-39169746Y17562286D01*
X-39084495Y17767594D01*
X-39084301Y17989899D01*
X-39169194Y18195356D01*
X-39326250Y18352686D01*
X-39531558Y18437937D01*
X-39753863Y18438131D01*
X-39959320Y18353238D01*
X-40116650Y18196182D01*
X-40201901Y17990874D01*
X-40202095Y17768569D01*
X-40563800Y17768569D01*
X-40563800Y20820494D01*
X-40548886Y20895471D01*
X-40510668Y20952668D01*
X-40453471Y20990886D01*
X-40378494Y21005800D01*
X-33426400Y21005800D01*
X-33426400Y19024600D01*
X-33426400Y19024600D01*
G37*
X-33426400Y19024600D02*
X-33399332Y18888517D01*
X-33322247Y18773153D01*
X-32458647Y17909553D01*
X-32343283Y17832468D01*
X-32207200Y17805400D01*
X-24049417Y17805400D01*
X-19058277Y12814260D01*
X-19058422Y12647737D01*
X-18973529Y12442280D01*
X-18816473Y12284950D01*
X-18611165Y12199699D01*
X-18388860Y12199505D01*
X-18183403Y12284398D01*
X-18026073Y12441454D01*
X-17940822Y12646762D01*
X-17940628Y12869067D01*
X-18025521Y13074524D01*
X-18182577Y13231854D01*
X-18387885Y13317105D01*
X-18555480Y13317251D01*
X-23650676Y18412447D01*
X-23766040Y18489532D01*
X-23902123Y18516600D01*
X-32059906Y18516600D01*
X-32715200Y19171894D01*
X-32715200Y21005800D01*
X-32054800Y21005800D01*
X-32054800Y20119595D01*
X-32172652Y20001948D01*
X-32257903Y19796640D01*
X-32258097Y19574335D01*
X-32173204Y19368878D01*
X-32016148Y19211548D01*
X-31810840Y19126297D01*
X-31588535Y19126103D01*
X-31383078Y19210996D01*
X-31264467Y19329400D01*
X-23388294Y19329400D01*
X-17856200Y13797306D01*
X-17856200Y1188694D01*
X-18968694Y76200D01*
X-40632494Y76200D01*
X-40707471Y91114D01*
X-40764668Y129332D01*
X-40802886Y186529D01*
X-40817800Y261506D01*
X-40817800Y6557523D01*
X-32034800Y6557523D01*
X-31949907Y6352066D01*
X-31792851Y6194736D01*
X-31587543Y6109485D01*
X-31365238Y6109291D01*
X-31159781Y6194184D01*
X-31002451Y6351240D01*
X-30917200Y6556548D01*
X-30917054Y6724143D01*
X-26774153Y10867044D01*
X-26746200Y10908878D01*
X-26746200Y9144000D01*
X-26740989Y9116305D01*
X-26724621Y9090868D01*
X-26699646Y9073803D01*
X-26670000Y9067800D01*
X-20574000Y9067800D01*
X-20546305Y9073011D01*
X-20520868Y9089379D01*
X-20503803Y9114354D01*
X-20497800Y9144000D01*
X-20497800Y13462000D01*
X-20503011Y13489695D01*
X-20519379Y13515132D01*
X-20544354Y13532197D01*
X-20574000Y13538200D01*
X-26670000Y13538200D01*
X-26670000Y14043405D01*
X-26552148Y14161052D01*
X-26466897Y14366360D01*
X-26466703Y14588665D01*
X-26551596Y14794122D01*
X-26708652Y14951452D01*
X-26913960Y15036703D01*
X-27136265Y15036897D01*
X-27341722Y14952004D01*
X-27499052Y14794948D01*
X-27584303Y14589640D01*
X-27584497Y14367335D01*
X-27499604Y14161878D01*
X-27381200Y14043267D01*
X-27381200Y11265785D01*
X-31420045Y7226940D01*
X-31586568Y7227085D01*
X-31792025Y7142192D01*
X-31949355Y6985136D01*
X-32034606Y6779828D01*
X-32034800Y6557523D01*
X-40817800Y6557523D01*
X-40817800Y8120494D01*
X-40802886Y8195471D01*
X-40764668Y8252668D01*
X-40707471Y8290886D01*
X-40632494Y8305800D01*
X-31242000Y8305800D01*
X-31227134Y8307264D01*
X-31129932Y8326599D01*
X-31102464Y8337977D01*
X-31020061Y8393037D01*
X-30999037Y8414061D01*
X-30943977Y8496464D01*
X-30932599Y8523932D01*
X-30913264Y8621134D01*
X-30911800Y8636000D01*
X-30911800Y14986000D01*
X-30913264Y15000866D01*
X-30932599Y15098068D01*
X-30943977Y15125536D01*
X-30999037Y15207939D01*
X-31020061Y15228963D01*
X-31102464Y15284023D01*
X-31129932Y15295401D01*
X-31227134Y15314736D01*
X-31242000Y15316200D01*
X-40378494Y15316200D01*
X-40453471Y15331114D01*
X-40510668Y15369332D01*
X-40548886Y15426529D01*
X-40563800Y15501506D01*
X-40563800Y17768569D01*
X-40202095Y17768569D01*
X-40117202Y17563112D01*
X-39960146Y17405782D01*
X-39754838Y17320531D01*
X-39532533Y17320337D01*
X-39327076Y17405230D01*
X-39169746Y17562286D01*
X-39084495Y17767594D01*
X-39084301Y17989899D01*
X-39169194Y18195356D01*
X-39326250Y18352686D01*
X-39531558Y18437937D01*
X-39753863Y18438131D01*
X-39959320Y18353238D01*
X-40116650Y18196182D01*
X-40201901Y17990874D01*
X-40202095Y17768569D01*
X-40563800Y17768569D01*
X-40563800Y20820494D01*
X-40548886Y20895471D01*
X-40510668Y20952668D01*
X-40453471Y20990886D01*
X-40378494Y21005800D01*
X-33426400Y21005800D01*
X-33426400Y19024600D01*
G36*
X-19696261Y27198981D02*
X-19752331Y26917096D01*
X-19696261Y26635211D01*
X-19536586Y26396241D01*
X-19206387Y26066042D01*
X-18967417Y25906367D01*
X-18685532Y25850297D01*
X-17856200Y25850297D01*
X-17856200Y14803094D01*
X-22989553Y19936447D01*
X-23104917Y20013532D01*
X-23241000Y20040600D01*
X-31264605Y20040600D01*
X-31343600Y20119733D01*
X-31343600Y21005800D01*
X-30988000Y21005800D01*
X-30973134Y21007264D01*
X-30875932Y21026599D01*
X-30848464Y21037977D01*
X-30766061Y21093037D01*
X-30745037Y21114061D01*
X-30689977Y21196464D01*
X-30678599Y21223932D01*
X-30659264Y21321134D01*
X-30657800Y21336000D01*
X-30657800Y23068306D01*
X-27411706Y26314400D01*
X-26911908Y26314400D01*
X-26911908Y21996400D01*
X-26906697Y21968705D01*
X-26890329Y21943268D01*
X-26865354Y21926203D01*
X-26835708Y21920200D01*
X-20739708Y21920200D01*
X-20712013Y21925411D01*
X-20686576Y21941779D01*
X-20669511Y21966754D01*
X-20663508Y21996400D01*
X-20663508Y26314400D01*
X-20668719Y26342095D01*
X-20685087Y26367532D01*
X-20710062Y26384597D01*
X-20739708Y26390600D01*
X-26835708Y26390600D01*
X-26863403Y26385389D01*
X-26888840Y26369021D01*
X-26905905Y26344046D01*
X-26911908Y26314400D01*
X-27411706Y26314400D01*
X-27157658Y26568448D01*
X-26991135Y26568303D01*
X-26785678Y26653196D01*
X-26628348Y26810252D01*
X-26543097Y27015560D01*
X-26542903Y27237865D01*
X-26591633Y27355800D01*
X-19591478Y27355800D01*
X-19696261Y27198981D01*
X-19696261Y27198981D01*
G37*
X-19696261Y27198981D02*
X-19752331Y26917096D01*
X-19696261Y26635211D01*
X-19536586Y26396241D01*
X-19206387Y26066042D01*
X-18967417Y25906367D01*
X-18685532Y25850297D01*
X-17856200Y25850297D01*
X-17856200Y14803094D01*
X-22989553Y19936447D01*
X-23104917Y20013532D01*
X-23241000Y20040600D01*
X-31264605Y20040600D01*
X-31343600Y20119733D01*
X-31343600Y21005800D01*
X-30988000Y21005800D01*
X-30973134Y21007264D01*
X-30875932Y21026599D01*
X-30848464Y21037977D01*
X-30766061Y21093037D01*
X-30745037Y21114061D01*
X-30689977Y21196464D01*
X-30678599Y21223932D01*
X-30659264Y21321134D01*
X-30657800Y21336000D01*
X-30657800Y23068306D01*
X-27411706Y26314400D01*
X-26911908Y26314400D01*
X-26911908Y21996400D01*
X-26906697Y21968705D01*
X-26890329Y21943268D01*
X-26865354Y21926203D01*
X-26835708Y21920200D01*
X-20739708Y21920200D01*
X-20712013Y21925411D01*
X-20686576Y21941779D01*
X-20669511Y21966754D01*
X-20663508Y21996400D01*
X-20663508Y26314400D01*
X-20668719Y26342095D01*
X-20685087Y26367532D01*
X-20710062Y26384597D01*
X-20739708Y26390600D01*
X-26835708Y26390600D01*
X-26863403Y26385389D01*
X-26888840Y26369021D01*
X-26905905Y26344046D01*
X-26911908Y26314400D01*
X-27411706Y26314400D01*
X-27157658Y26568448D01*
X-26991135Y26568303D01*
X-26785678Y26653196D01*
X-26628348Y26810252D01*
X-26543097Y27015560D01*
X-26542903Y27237865D01*
X-26591633Y27355800D01*
X-19591478Y27355800D01*
X-19696261Y27198981D01*
G36*
X11668557Y52645923D02*
X11870793Y52510794D01*
X12005924Y52308555D01*
X12065800Y52007537D01*
X12065800Y41910000D01*
X12077986Y41848737D01*
X12077986Y41786274D01*
X12174659Y41300266D01*
X12194624Y41252067D01*
X12269355Y41071650D01*
X12544655Y40659632D01*
X12544656Y40659631D01*
X12719632Y40484656D01*
X13131647Y40209357D01*
X13131649Y40209355D01*
X13360266Y40114659D01*
X13846273Y40017986D01*
X13908737Y40017986D01*
X13970000Y40005800D01*
X48183800Y40005800D01*
X48183800Y2410159D01*
X48042262Y2382005D01*
X47813646Y2287309D01*
X47813644Y2287308D01*
X47195619Y1874356D01*
X47020644Y1699381D01*
X46607691Y1081355D01*
X46533210Y901542D01*
X46512995Y852738D01*
X46367986Y123728D01*
X46367986Y-123726D01*
X46512995Y-852738D01*
X46512995Y-852739D01*
X46607691Y-1081355D01*
X47020644Y-1699381D01*
X47195619Y-1874356D01*
X47813644Y-2287308D01*
X47813646Y-2287309D01*
X48042262Y-2382005D01*
X48183800Y-2410159D01*
X48183800Y-88240800D01*
X30480000Y-88240800D01*
X30410116Y-88254701D01*
X30228745Y-88218624D01*
X30026506Y-88083493D01*
X29891377Y-87881257D01*
X29855299Y-87699883D01*
X29869200Y-87630000D01*
X29869200Y-68903850D01*
X39205800Y-68903850D01*
X39205800Y-69546204D01*
X39294739Y-69760922D01*
X39459077Y-69925261D01*
X39673795Y-70014200D01*
X40316150Y-70014200D01*
X40462200Y-69868150D01*
X40462200Y-68757800D01*
X40817800Y-68757800D01*
X40817800Y-69868150D01*
X40963850Y-70014200D01*
X41606205Y-70014200D01*
X41820923Y-69925261D01*
X41985261Y-69760922D01*
X42074200Y-69546204D01*
X42074200Y-69450686D01*
X42284806Y-69700535D01*
X42781759Y-69957815D01*
X43002200Y-69857100D01*
X43002200Y-68757800D01*
X43357800Y-68757800D01*
X43357800Y-69857100D01*
X43578241Y-69957815D01*
X44075194Y-69700535D01*
X44435862Y-69272663D01*
X44557801Y-68978239D01*
X44455820Y-68757800D01*
X43357800Y-68757800D01*
X43002200Y-68757800D01*
X40817800Y-68757800D01*
X40462200Y-68757800D01*
X39351850Y-68757800D01*
X39205800Y-68903850D01*
X29869200Y-68903850D01*
X29869200Y-67310000D01*
X29819021Y-67057735D01*
X29676125Y-66843875D01*
X29462265Y-66700979D01*
X29210000Y-66650800D01*
X11430000Y-66650800D01*
X11177735Y-66700979D01*
X10963875Y-66843875D01*
X10820979Y-67057735D01*
X10770800Y-67310000D01*
X10770800Y-87630000D01*
X10784701Y-87699884D01*
X10748624Y-87881255D01*
X10613493Y-88083494D01*
X10411257Y-88218623D01*
X10167042Y-88267201D01*
X10160000Y-88265800D01*
X-41797733Y-88265800D01*
X-41798974Y-88265286D01*
X-42161255Y-88193224D01*
X-42363494Y-88058093D01*
X-42498623Y-87855857D01*
X-42532175Y-87687184D01*
X-42520800Y-87630000D01*
X-42520800Y-68903850D01*
X-9054200Y-68903850D01*
X-9054200Y-69546204D01*
X-8965261Y-69760922D01*
X-8800923Y-69925261D01*
X-8586205Y-70014200D01*
X-7943850Y-70014200D01*
X-7797800Y-69868150D01*
X-7797800Y-68757800D01*
X-7442200Y-68757800D01*
X-7442200Y-69868150D01*
X-7296150Y-70014200D01*
X-6653795Y-70014200D01*
X-6439077Y-69925261D01*
X-6274739Y-69760922D01*
X-6185800Y-69546204D01*
X-6185800Y-69450686D01*
X-5975194Y-69700535D01*
X-5478241Y-69957815D01*
X-5257800Y-69857100D01*
X-5257800Y-68757800D01*
X-4902200Y-68757800D01*
X-4902200Y-69857100D01*
X-4681759Y-69957815D01*
X-4184806Y-69700535D01*
X-3824138Y-69272663D01*
X-3702199Y-68978239D01*
X-3804180Y-68757800D01*
X-4902200Y-68757800D01*
X-5257800Y-68757800D01*
X-7442200Y-68757800D01*
X-7797800Y-68757800D01*
X-8908150Y-68757800D01*
X-9054200Y-68903850D01*
X-42520800Y-68903850D01*
X-42520800Y-63500000D01*
X-42570979Y-63247735D01*
X-42713875Y-63033875D01*
X-42927735Y-62890979D01*
X-43180000Y-62840800D01*
X-48183800Y-62840800D01*
X-48183800Y-62015000D01*
X-37005645Y-62015000D01*
X-37005645Y-63715000D01*
X-36964909Y-63931492D01*
X-36836963Y-64130326D01*
X-36641739Y-64263717D01*
X-36410000Y-64310645D01*
X-34710000Y-64310645D01*
X-34493508Y-64269909D01*
X-34294674Y-64141963D01*
X-34161283Y-63946739D01*
X-34125571Y-63770385D01*
X-34034133Y-63907231D01*
X-33568845Y-64218126D01*
X-33020000Y-64327298D01*
X-32471155Y-64218126D01*
X-32005867Y-63907231D01*
X-31750000Y-63524298D01*
X-31494133Y-63907231D01*
X-31028845Y-64218126D01*
X-30480000Y-64327298D01*
X-29931155Y-64218126D01*
X-29465867Y-63907231D01*
X-29210000Y-63524298D01*
X-28954133Y-63907231D01*
X-28488845Y-64218126D01*
X-27940000Y-64327298D01*
X-27391155Y-64218126D01*
X-26925867Y-63907231D01*
X-26614972Y-63441943D01*
X-26505800Y-62893098D01*
X-26505800Y-62836902D01*
X-26614972Y-62288057D01*
X-26925867Y-61822769D01*
X-27391155Y-61511874D01*
X-27940000Y-61402702D01*
X-28488845Y-61511874D01*
X-28954133Y-61822769D01*
X-29210000Y-62205702D01*
X-29465867Y-61822769D01*
X-29931155Y-61511874D01*
X-30480000Y-61402702D01*
X-31028845Y-61511874D01*
X-31494133Y-61822769D01*
X-31750000Y-62205702D01*
X-32005867Y-61822769D01*
X-32471155Y-61511874D01*
X-33020000Y-61402702D01*
X-33568845Y-61511874D01*
X-34034133Y-61822769D01*
X-34124951Y-61958688D01*
X-34155091Y-61798508D01*
X-34283037Y-61599674D01*
X-34478261Y-61466283D01*
X-34710000Y-61419355D01*
X-36410000Y-61419355D01*
X-36626492Y-61460091D01*
X-36825326Y-61588037D01*
X-36958717Y-61783261D01*
X-37005645Y-62015000D01*
X-48183800Y-62015000D01*
X-48183800Y-56927754D01*
X-38914561Y-56927754D01*
X-38597929Y-57694062D01*
X-38012146Y-58280869D01*
X-37246392Y-58598838D01*
X-36417246Y-58599561D01*
X-35650938Y-58282929D01*
X-35064131Y-57697146D01*
X-34746162Y-56931392D01*
X-34746159Y-56927754D01*
X-28119561Y-56927754D01*
X-27802929Y-57694062D01*
X-27217146Y-58280869D01*
X-26451392Y-58598838D01*
X-25622246Y-58599561D01*
X-24855938Y-58282929D01*
X-24269131Y-57697146D01*
X-23951162Y-56931392D01*
X-23950439Y-56102246D01*
X-24267071Y-55335938D01*
X-24852854Y-54749131D01*
X-25618608Y-54431162D01*
X-26447754Y-54430439D01*
X-27214062Y-54747071D01*
X-27800869Y-55332854D01*
X-28118838Y-56098608D01*
X-28119561Y-56927754D01*
X-34746159Y-56927754D01*
X-34745439Y-56102246D01*
X-35062071Y-55335938D01*
X-35647854Y-54749131D01*
X-36413608Y-54431162D01*
X-37242754Y-54430439D01*
X-38009062Y-54747071D01*
X-38595869Y-55332854D01*
X-38913838Y-56098608D01*
X-38914561Y-56927754D01*
X-48183800Y-56927754D01*
X-48183800Y-45648048D01*
X-38764535Y-45648048D01*
X-38470691Y-46359205D01*
X-37927067Y-46903779D01*
X-37216424Y-47198863D01*
X-36446952Y-47199535D01*
X-35735795Y-46905691D01*
X-35191221Y-46362067D01*
X-34896137Y-45651424D01*
X-34896135Y-45648048D01*
X-27969535Y-45648048D01*
X-27675691Y-46359205D01*
X-27132067Y-46903779D01*
X-26421424Y-47198863D01*
X-25651952Y-47199535D01*
X-24940795Y-46905691D01*
X-24396221Y-46362067D01*
X-24101137Y-45651424D01*
X-24100465Y-44881952D01*
X-24394309Y-44170795D01*
X-24937933Y-43626221D01*
X-25648576Y-43331137D01*
X-26418048Y-43330465D01*
X-27129205Y-43624309D01*
X-27673779Y-44167933D01*
X-27968863Y-44878576D01*
X-27969535Y-45648048D01*
X-34896135Y-45648048D01*
X-34895465Y-44881952D01*
X-35189309Y-44170795D01*
X-35732933Y-43626221D01*
X-36443576Y-43331137D01*
X-37213048Y-43330465D01*
X-37924205Y-43624309D01*
X-38468779Y-44167933D01*
X-38763863Y-44878576D01*
X-38764535Y-45648048D01*
X-48183800Y-45648048D01*
X-48183800Y-34427754D01*
X-38914561Y-34427754D01*
X-38597929Y-35194062D01*
X-38012146Y-35780869D01*
X-37246392Y-36098838D01*
X-36417246Y-36099561D01*
X-35650938Y-35782929D01*
X-35064131Y-35197146D01*
X-34746162Y-34431392D01*
X-34746159Y-34427754D01*
X-28119561Y-34427754D01*
X-27802929Y-35194062D01*
X-27217146Y-35780869D01*
X-26451392Y-36098838D01*
X-25622246Y-36099561D01*
X-24855938Y-35782929D01*
X-24269131Y-35197146D01*
X-23951162Y-34431392D01*
X-23950439Y-33602246D01*
X-24267071Y-32835938D01*
X-24852854Y-32249131D01*
X-25618608Y-31931162D01*
X-26447754Y-31930439D01*
X-27214062Y-32247071D01*
X-27800869Y-32832854D01*
X-28118838Y-33598608D01*
X-28119561Y-34427754D01*
X-34746159Y-34427754D01*
X-34745439Y-33602246D01*
X-35062071Y-32835938D01*
X-35647854Y-32249131D01*
X-36413608Y-31931162D01*
X-37242754Y-31930439D01*
X-38009062Y-32247071D01*
X-38595869Y-32832854D01*
X-38913838Y-33598608D01*
X-38914561Y-34427754D01*
X-48183800Y-34427754D01*
X-48183800Y-2410159D01*
X-48042262Y-2382005D01*
X-48042261Y-2382005D01*
X-47813645Y-2287309D01*
X-47195619Y-1874356D01*
X-47070919Y-1749655D01*
X-47020644Y-1699381D01*
X-46607692Y-1081356D01*
X-46571796Y-994695D01*
X-46512995Y-852738D01*
X-46367986Y-123726D01*
X-46367986Y123728D01*
X-46512995Y852738D01*
X-46607691Y1081354D01*
X-46607692Y1081355D01*
X-46607692Y1081356D01*
X-47020644Y1699381D01*
X-47102538Y1781274D01*
X-47195619Y1874356D01*
X-47813645Y2287309D01*
X-48042261Y2382005D01*
X-48042262Y2382005D01*
X-48183800Y2410159D01*
X-48183800Y9160000D01*
X-41577645Y9160000D01*
X-41577645Y7160000D01*
X-41536909Y6943508D01*
X-41478200Y6852271D01*
X-41478200Y254000D01*
X-41466974Y140026D01*
X-41447639Y42824D01*
X-41360409Y-167766D01*
X-41305349Y-250169D01*
X-41144169Y-411349D01*
X-41061766Y-466409D01*
X-40851176Y-553639D01*
X-40753974Y-572974D01*
X-40640000Y-584200D01*
X-21655989Y-584200D01*
X-37078894Y-16007106D01*
X-37233063Y-16237835D01*
X-37257793Y-16362161D01*
X-37287200Y-16510000D01*
X-37287200Y-20729168D01*
X-37233063Y-21001333D01*
X-37078894Y-21232062D01*
X-33222931Y-25088026D01*
X-33223009Y-25177804D01*
X-33084093Y-25514006D01*
X-32827093Y-25771455D01*
X-32491134Y-25910958D01*
X-32127364Y-25911275D01*
X-31791162Y-25772359D01*
X-31684702Y-25666085D01*
X-31191200Y-26159587D01*
X-31191200Y-26695356D01*
X-31494133Y-26897769D01*
X-31750000Y-27280702D01*
X-32005867Y-26897769D01*
X-32471155Y-26586874D01*
X-33020000Y-26477702D01*
X-33568845Y-26586874D01*
X-34034133Y-26897769D01*
X-34124951Y-27033688D01*
X-34155091Y-26873508D01*
X-34283037Y-26674674D01*
X-34478261Y-26541283D01*
X-34710000Y-26494355D01*
X-36410000Y-26494355D01*
X-36626492Y-26535091D01*
X-36825326Y-26663037D01*
X-36958717Y-26858261D01*
X-37005645Y-27090000D01*
X-37005645Y-28790000D01*
X-36964909Y-29006492D01*
X-36836963Y-29205326D01*
X-36641739Y-29338717D01*
X-36410000Y-29385645D01*
X-34710000Y-29385645D01*
X-34493508Y-29344909D01*
X-34294674Y-29216963D01*
X-34161283Y-29021739D01*
X-34125571Y-28845385D01*
X-34034133Y-28982231D01*
X-33568845Y-29293126D01*
X-33020000Y-29402298D01*
X-32471155Y-29293126D01*
X-32005867Y-28982231D01*
X-31750000Y-28599298D01*
X-31494133Y-28982231D01*
X-31028845Y-29293126D01*
X-30480000Y-29402298D01*
X-29931155Y-29293126D01*
X-29465867Y-28982231D01*
X-29210000Y-28599298D01*
X-28954133Y-28982231D01*
X-28488845Y-29293126D01*
X-27940000Y-29402298D01*
X-27391155Y-29293126D01*
X-26925867Y-28982231D01*
X-26614972Y-28516943D01*
X-26505800Y-27968098D01*
X-26505800Y-27911902D01*
X-26614972Y-27363057D01*
X-26925867Y-26897769D01*
X-27391155Y-26586874D01*
X-27940000Y-26477702D01*
X-28488845Y-26586874D01*
X-28954133Y-26897769D01*
X-29210000Y-27280702D01*
X-29465867Y-26897769D01*
X-29768800Y-26695356D01*
X-29768800Y-25864999D01*
X-29822937Y-25592835D01*
X-29822937Y-25592834D01*
X-29977106Y-25362105D01*
X-31512947Y-23826264D01*
X-31743676Y-23672095D01*
X-32015841Y-23617958D01*
X-32068994Y-23617958D01*
X-34695855Y-20991097D01*
X-34695855Y-19181366D01*
X-34443718Y-19231519D01*
X-34025751Y-19148380D01*
X-33671416Y-18911621D01*
X5852302Y20612097D01*
X6089061Y20966432D01*
X6172200Y21384399D01*
X6172200Y39042631D01*
X6350000Y39308727D01*
X6527800Y39042631D01*
X6527800Y20486438D01*
X-28708862Y-14750224D01*
X-28945621Y-15104559D01*
X-29028760Y-15522526D01*
X-29028760Y-17394856D01*
X-28945621Y-17812823D01*
X-28708862Y-18167158D01*
X-28354527Y-18403917D01*
X-27936560Y-18487056D01*
X-27518593Y-18403917D01*
X-27164258Y-18167158D01*
X-26927499Y-17812823D01*
X-26920971Y-17780000D01*
X-9082298Y-17780000D01*
X-8973126Y-18328845D01*
X-8662231Y-18794133D01*
X-8279298Y-19050000D01*
X-8662231Y-19305867D01*
X-8973126Y-19771155D01*
X-9082298Y-20320000D01*
X-8973126Y-20868845D01*
X-8662231Y-21334133D01*
X-8279298Y-21590000D01*
X-8662231Y-21845867D01*
X-8973126Y-22311155D01*
X-9082298Y-22860000D01*
X-8973126Y-23408845D01*
X-8662231Y-23874133D01*
X-8279298Y-24130000D01*
X-8662231Y-24385867D01*
X-8973126Y-24851155D01*
X-9082298Y-25400000D01*
X-8973126Y-25948845D01*
X-8662231Y-26414133D01*
X-8279298Y-26670000D01*
X-8662231Y-26925867D01*
X-8973126Y-27391155D01*
X-9082298Y-27940000D01*
X-8973126Y-28488845D01*
X-8662231Y-28954133D01*
X-8279298Y-29210000D01*
X-8662231Y-29465867D01*
X-8973126Y-29931155D01*
X-9082298Y-30480000D01*
X-8973126Y-31028845D01*
X-8662231Y-31494133D01*
X-8279298Y-31750000D01*
X-8662231Y-32005867D01*
X-8973126Y-32471155D01*
X-9082298Y-33020000D01*
X-8973126Y-33568845D01*
X-8662231Y-34034133D01*
X-8279298Y-34290000D01*
X-8662231Y-34545867D01*
X-8973126Y-35011155D01*
X-9082298Y-35560000D01*
X-8973126Y-36108845D01*
X-8662231Y-36574133D01*
X-8279298Y-36830000D01*
X-8662231Y-37085867D01*
X-8973126Y-37551155D01*
X-9082298Y-38100000D01*
X-8973126Y-38648845D01*
X-8662231Y-39114133D01*
X-8279298Y-39370000D01*
X-8662231Y-39625867D01*
X-8973126Y-40091155D01*
X-9082298Y-40640000D01*
X-8973126Y-41188845D01*
X-8662231Y-41654133D01*
X-8279298Y-41910000D01*
X-8662231Y-42165867D01*
X-8973126Y-42631155D01*
X-9082298Y-43180000D01*
X-8973126Y-43728845D01*
X-8662231Y-44194133D01*
X-8279298Y-44450000D01*
X-8662231Y-44705867D01*
X-8973126Y-45171155D01*
X-9082298Y-45720000D01*
X-8973126Y-46268845D01*
X-8662231Y-46734133D01*
X-8279298Y-46990000D01*
X-8662231Y-47245867D01*
X-8973126Y-47711155D01*
X-9082298Y-48260000D01*
X-8973126Y-48808845D01*
X-8662231Y-49274133D01*
X-8279298Y-49530000D01*
X-8662231Y-49785867D01*
X-8973126Y-50251155D01*
X-9082298Y-50800000D01*
X-8973126Y-51348845D01*
X-8662231Y-51814133D01*
X-8279298Y-52070000D01*
X-8662231Y-52325867D01*
X-8973126Y-52791155D01*
X-9082298Y-53340000D01*
X-8973126Y-53888845D01*
X-8662231Y-54354133D01*
X-8279298Y-54610000D01*
X-8662231Y-54865867D01*
X-8973126Y-55331155D01*
X-9082298Y-55880000D01*
X-8973126Y-56428845D01*
X-8662231Y-56894133D01*
X-8279298Y-57150000D01*
X-8662231Y-57405867D01*
X-8973126Y-57871155D01*
X-9082298Y-58420000D01*
X-8973126Y-58968845D01*
X-8662231Y-59434133D01*
X-8279298Y-59690000D01*
X-8662231Y-59945867D01*
X-8973126Y-60411155D01*
X-9082298Y-60960000D01*
X-8973126Y-61508845D01*
X-8662231Y-61974133D01*
X-8279298Y-62230000D01*
X-8662231Y-62485867D01*
X-8973126Y-62951155D01*
X-9082298Y-63500000D01*
X-8973126Y-64048845D01*
X-8662231Y-64514133D01*
X-8279298Y-64770000D01*
X-8662231Y-65025867D01*
X-8973126Y-65491155D01*
X-9082298Y-66040000D01*
X-8973126Y-66588845D01*
X-8662231Y-67054133D01*
X-8525041Y-67145800D01*
X-8586205Y-67145800D01*
X-8800923Y-67234739D01*
X-8965261Y-67399078D01*
X-9054200Y-67613796D01*
X-9054200Y-68256150D01*
X-8908150Y-68402200D01*
X-7797800Y-68402200D01*
X-7797800Y-68382200D01*
X-7442200Y-68382200D01*
X-7442200Y-68402200D01*
X-5257800Y-68402200D01*
X-5257800Y-68382200D01*
X-4902200Y-68382200D01*
X-4902200Y-68402200D01*
X-3804180Y-68402200D01*
X-3702199Y-68181761D01*
X-3824138Y-67887337D01*
X-4184806Y-67459465D01*
X-4443755Y-67325403D01*
X-4037769Y-67054133D01*
X-3726874Y-66588845D01*
X-3617702Y-66040000D01*
X-3726874Y-65491155D01*
X-4037769Y-65025867D01*
X-4420702Y-64770000D01*
X-4037769Y-64514133D01*
X-3726874Y-64048845D01*
X-3617702Y-63500000D01*
X-3726874Y-62951155D01*
X-4037769Y-62485867D01*
X-4420702Y-62230000D01*
X-4037769Y-61974133D01*
X-3726874Y-61508845D01*
X-3617702Y-60960000D01*
X-3726874Y-60411155D01*
X-4037769Y-59945867D01*
X-4420702Y-59690000D01*
X-4037769Y-59434133D01*
X-3726874Y-58968845D01*
X-3617702Y-58420000D01*
X-3726874Y-57871155D01*
X-4037769Y-57405867D01*
X-4420702Y-57150000D01*
X-4037769Y-56894133D01*
X-3726874Y-56428845D01*
X-3617702Y-55880000D01*
X-3726874Y-55331155D01*
X-4037769Y-54865867D01*
X-4420702Y-54610000D01*
X-4037769Y-54354133D01*
X-3726874Y-53888845D01*
X-3617702Y-53340000D01*
X-3726874Y-52791155D01*
X-4037769Y-52325867D01*
X-4420702Y-52070000D01*
X-4037769Y-51814133D01*
X-3726874Y-51348845D01*
X-3617702Y-50800000D01*
X-3726874Y-50251155D01*
X-4037769Y-49785867D01*
X-4420702Y-49530000D01*
X-4037769Y-49274133D01*
X-3835356Y-48971200D01*
X1177832Y-48971200D01*
X1212242Y-49005670D01*
X1548201Y-49145173D01*
X1911971Y-49145490D01*
X2248173Y-49006574D01*
X2505622Y-48749574D01*
X2645125Y-48413615D01*
X2645442Y-48049845D01*
X2506526Y-47713643D01*
X2249526Y-47456194D01*
X1913567Y-47316691D01*
X1549797Y-47316374D01*
X1213595Y-47455290D01*
X1119922Y-47548800D01*
X355533Y-47548800D01*
X406241Y-47426683D01*
X406558Y-47062913D01*
X267642Y-46726711D01*
X87130Y-46545884D01*
X299917Y-46634241D01*
X663687Y-46634558D01*
X999889Y-46495642D01*
X1257338Y-46238642D01*
X1396841Y-45902683D01*
X1397158Y-45538913D01*
X1262248Y-45212406D01*
X1570490Y-45085043D01*
X1827939Y-44828043D01*
X1967442Y-44492084D01*
X1967759Y-44128314D01*
X1828843Y-43792112D01*
X1813812Y-43777054D01*
X1892361Y-43698642D01*
X2031864Y-43362683D01*
X2032131Y-43056482D01*
X2274048Y-43156935D01*
X2637818Y-43157252D01*
X2974020Y-43018336D01*
X3231469Y-42761336D01*
X3370972Y-42425377D01*
X3371289Y-42061607D01*
X3232373Y-41725405D01*
X2975373Y-41467956D01*
X2639414Y-41328453D01*
X2507808Y-41328338D01*
X2398697Y-41255432D01*
X2126532Y-41201295D01*
X-3735193Y-41201295D01*
X-3726874Y-41188845D01*
X-3617702Y-40640000D01*
X-3726874Y-40091155D01*
X-4037769Y-39625867D01*
X-4420702Y-39370000D01*
X-4037769Y-39114133D01*
X-3726874Y-38648845D01*
X-3617702Y-38100000D01*
X-3726874Y-37551155D01*
X-4037769Y-37085867D01*
X-4420702Y-36830000D01*
X-4037769Y-36574133D01*
X-3726874Y-36108845D01*
X-3617702Y-35560000D01*
X-3726874Y-35011155D01*
X-4037769Y-34545867D01*
X-4420702Y-34290000D01*
X-4037769Y-34034133D01*
X-3835356Y-33731200D01*
X2369229Y-33731200D01*
X2451534Y-33813649D01*
X2787493Y-33953152D01*
X3151263Y-33953469D01*
X3487465Y-33814553D01*
X3744914Y-33557553D01*
X3884417Y-33221594D01*
X3884734Y-32857824D01*
X3806308Y-32668020D01*
X3826114Y-32668037D01*
X4162316Y-32529121D01*
X4419765Y-32272121D01*
X4559268Y-31936162D01*
X4559585Y-31572392D01*
X4420669Y-31236190D01*
X4163669Y-30978741D01*
X3827710Y-30839238D01*
X3463940Y-30838921D01*
X3127738Y-30977837D01*
X3063183Y-31042279D01*
X-3735850Y-31042279D01*
X-3726874Y-31028845D01*
X-3617702Y-30480000D01*
X-3724330Y-29943943D01*
X1743413Y-29943943D01*
X1806840Y-30007481D01*
X2142799Y-30146984D01*
X2506569Y-30147301D01*
X2842771Y-30008385D01*
X3100220Y-29751385D01*
X3239723Y-29415426D01*
X3240040Y-29051656D01*
X3101124Y-28715454D01*
X2844124Y-28458005D01*
X2508165Y-28318502D01*
X2144395Y-28318185D01*
X1808193Y-28457101D01*
X1743638Y-28521543D01*
X-3748722Y-28521543D01*
X-3726874Y-28488845D01*
X-3617702Y-27940000D01*
X-3726874Y-27391155D01*
X-4037769Y-26925867D01*
X-4420702Y-26670000D01*
X-4037769Y-26414133D01*
X-3726874Y-25948845D01*
X-3617702Y-25400000D01*
X-3726874Y-24851155D01*
X-4037769Y-24385867D01*
X-4420702Y-24130000D01*
X-4037769Y-23874133D01*
X-3726874Y-23408845D01*
X-3617702Y-22860000D01*
X-3726874Y-22311155D01*
X-4037769Y-21845867D01*
X-4420702Y-21590000D01*
X-4037769Y-21334133D01*
X-3726874Y-20868845D01*
X-3617702Y-20320000D01*
X-3726874Y-19771155D01*
X-4037769Y-19305867D01*
X-4420702Y-19050000D01*
X-4037769Y-18794133D01*
X-3726874Y-18328845D01*
X-3617702Y-17780000D01*
X-3726874Y-17231155D01*
X-4037769Y-16765867D01*
X-4443755Y-16494597D01*
X-4184806Y-16360535D01*
X-3824138Y-15932663D01*
X-3702199Y-15638239D01*
X-3804180Y-15417800D01*
X-4902200Y-15417800D01*
X-4902200Y-15437800D01*
X-5257800Y-15437800D01*
X-5257800Y-15417800D01*
X-7442200Y-15417800D01*
X-7442200Y-15437800D01*
X-7797800Y-15437800D01*
X-7797800Y-15417800D01*
X-8895820Y-15417800D01*
X-8997801Y-15638239D01*
X-8875862Y-15932663D01*
X-8515194Y-16360535D01*
X-8256245Y-16494597D01*
X-8662231Y-16765867D01*
X-8973126Y-17231155D01*
X-9082298Y-17780000D01*
X-26920971Y-17780000D01*
X-26844360Y-17394856D01*
X-26844360Y-15974930D01*
X-23967669Y-13098239D01*
X-8997801Y-13098239D01*
X-8875862Y-13392663D01*
X-8515194Y-13820535D01*
X-8226493Y-13970000D01*
X-8515194Y-14119465D01*
X-8875862Y-14547337D01*
X-8997801Y-14841761D01*
X-8895820Y-15062200D01*
X-7797800Y-15062200D01*
X-7797800Y-12877800D01*
X-7442200Y-12877800D01*
X-7442200Y-15062200D01*
X-5257800Y-15062200D01*
X-5257800Y-12877800D01*
X-4902200Y-12877800D01*
X-4902200Y-15062200D01*
X-3804180Y-15062200D01*
X-3702199Y-14841761D01*
X-3824138Y-14547337D01*
X-4184806Y-14119465D01*
X-4473507Y-13970000D01*
X-4184806Y-13820535D01*
X-3824138Y-13392663D01*
X-3702199Y-13098239D01*
X-3804180Y-12877800D01*
X-4902200Y-12877800D01*
X-5257800Y-12877800D01*
X-7442200Y-12877800D01*
X-7797800Y-12877800D01*
X-8895820Y-12877800D01*
X-8997801Y-13098239D01*
X-23967669Y-13098239D01*
X-23569430Y-12700000D01*
X39177702Y-12700000D01*
X39286874Y-13248845D01*
X39597769Y-13714133D01*
X39980702Y-13970000D01*
X39597769Y-14225867D01*
X39286874Y-14691155D01*
X39177702Y-15240000D01*
X39286874Y-15788845D01*
X39597769Y-16254133D01*
X39980702Y-16510000D01*
X39597769Y-16765867D01*
X39286874Y-17231155D01*
X39177702Y-17780000D01*
X39286874Y-18328845D01*
X39597769Y-18794133D01*
X39980702Y-19050000D01*
X39597769Y-19305867D01*
X39286874Y-19771155D01*
X39177702Y-20320000D01*
X39286874Y-20868845D01*
X39597769Y-21334133D01*
X39980702Y-21590000D01*
X39597769Y-21845867D01*
X39286874Y-22311155D01*
X39177702Y-22860000D01*
X39286874Y-23408845D01*
X39597769Y-23874133D01*
X39980702Y-24130000D01*
X39597769Y-24385867D01*
X39286874Y-24851155D01*
X39177702Y-25400000D01*
X39286874Y-25948845D01*
X39597769Y-26414133D01*
X39980702Y-26670000D01*
X39597769Y-26925867D01*
X39286874Y-27391155D01*
X39177702Y-27940000D01*
X39286874Y-28488845D01*
X39597769Y-28954133D01*
X39980702Y-29210000D01*
X39597769Y-29465867D01*
X39286874Y-29931155D01*
X39177702Y-30480000D01*
X39286874Y-31028845D01*
X39597769Y-31494133D01*
X39980702Y-31750000D01*
X39597769Y-32005867D01*
X39286874Y-32471155D01*
X39177702Y-33020000D01*
X39286874Y-33568845D01*
X39597769Y-34034133D01*
X39980702Y-34290000D01*
X39597769Y-34545867D01*
X39286874Y-35011155D01*
X39177702Y-35560000D01*
X39286874Y-36108845D01*
X39597769Y-36574133D01*
X39980702Y-36830000D01*
X39597769Y-37085867D01*
X39286874Y-37551155D01*
X39177702Y-38100000D01*
X39286874Y-38648845D01*
X39597769Y-39114133D01*
X39980702Y-39370000D01*
X39597769Y-39625867D01*
X39286874Y-40091155D01*
X39177702Y-40640000D01*
X39286874Y-41188845D01*
X39597769Y-41654133D01*
X39980702Y-41910000D01*
X39597769Y-42165867D01*
X39286874Y-42631155D01*
X39177702Y-43180000D01*
X39286874Y-43728845D01*
X39597769Y-44194133D01*
X39980702Y-44450000D01*
X39597769Y-44705867D01*
X39286874Y-45171155D01*
X39177702Y-45720000D01*
X39286874Y-46268845D01*
X39597769Y-46734133D01*
X39980702Y-46990000D01*
X39597769Y-47245867D01*
X39286874Y-47711155D01*
X39177702Y-48260000D01*
X39286874Y-48808845D01*
X39597769Y-49274133D01*
X39980702Y-49530000D01*
X39597769Y-49785867D01*
X39286874Y-50251155D01*
X39177702Y-50800000D01*
X39286874Y-51348845D01*
X39597769Y-51814133D01*
X39980702Y-52070000D01*
X39597769Y-52325867D01*
X39286874Y-52791155D01*
X39177702Y-53340000D01*
X39286874Y-53888845D01*
X39597769Y-54354133D01*
X39980702Y-54610000D01*
X39597769Y-54865867D01*
X39286874Y-55331155D01*
X39177702Y-55880000D01*
X39286874Y-56428845D01*
X39597769Y-56894133D01*
X39980702Y-57150000D01*
X39597769Y-57405867D01*
X39286874Y-57871155D01*
X39177702Y-58420000D01*
X39286874Y-58968845D01*
X39597769Y-59434133D01*
X39980702Y-59690000D01*
X39597769Y-59945867D01*
X39286874Y-60411155D01*
X39177702Y-60960000D01*
X39286874Y-61508845D01*
X39597769Y-61974133D01*
X39980702Y-62230000D01*
X39597769Y-62485867D01*
X39286874Y-62951155D01*
X39177702Y-63500000D01*
X39286874Y-64048845D01*
X39597769Y-64514133D01*
X39980702Y-64770000D01*
X39597769Y-65025867D01*
X39286874Y-65491155D01*
X39177702Y-66040000D01*
X39286874Y-66588845D01*
X39597769Y-67054133D01*
X39734959Y-67145800D01*
X39673795Y-67145800D01*
X39459077Y-67234739D01*
X39294739Y-67399078D01*
X39205800Y-67613796D01*
X39205800Y-68256150D01*
X39351850Y-68402200D01*
X40462200Y-68402200D01*
X40462200Y-68382200D01*
X40817800Y-68382200D01*
X40817800Y-68402200D01*
X43002200Y-68402200D01*
X43002200Y-68382200D01*
X43357800Y-68382200D01*
X43357800Y-68402200D01*
X44455820Y-68402200D01*
X44557801Y-68181761D01*
X44435862Y-67887337D01*
X44075194Y-67459465D01*
X43816245Y-67325403D01*
X44222231Y-67054133D01*
X44533126Y-66588845D01*
X44642298Y-66040000D01*
X44533126Y-65491155D01*
X44222231Y-65025867D01*
X43839298Y-64770000D01*
X44222231Y-64514133D01*
X44533126Y-64048845D01*
X44642298Y-63500000D01*
X44533126Y-62951155D01*
X44222231Y-62485867D01*
X43839298Y-62230000D01*
X44222231Y-61974133D01*
X44533126Y-61508845D01*
X44642298Y-60960000D01*
X44533126Y-60411155D01*
X44222231Y-59945867D01*
X43839298Y-59690000D01*
X44222231Y-59434133D01*
X44533126Y-58968845D01*
X44642298Y-58420000D01*
X44533126Y-57871155D01*
X44222231Y-57405867D01*
X43839298Y-57150000D01*
X44222231Y-56894133D01*
X44533126Y-56428845D01*
X44642298Y-55880000D01*
X44533126Y-55331155D01*
X44222231Y-54865867D01*
X43839298Y-54610000D01*
X44222231Y-54354133D01*
X44533126Y-53888845D01*
X44642298Y-53340000D01*
X44533126Y-52791155D01*
X44222231Y-52325867D01*
X43839298Y-52070000D01*
X44222231Y-51814133D01*
X44533126Y-51348845D01*
X44642298Y-50800000D01*
X44533126Y-50251155D01*
X44222231Y-49785867D01*
X43839298Y-49530000D01*
X44222231Y-49274133D01*
X44533126Y-48808845D01*
X44642298Y-48260000D01*
X44533126Y-47711155D01*
X44222231Y-47245867D01*
X43839298Y-46990000D01*
X44222231Y-46734133D01*
X44533126Y-46268845D01*
X44642298Y-45720000D01*
X44533126Y-45171155D01*
X44222231Y-44705867D01*
X43839298Y-44450000D01*
X44222231Y-44194133D01*
X44533126Y-43728845D01*
X44642298Y-43180000D01*
X44533126Y-42631155D01*
X44222231Y-42165867D01*
X43839298Y-41910000D01*
X44222231Y-41654133D01*
X44533126Y-41188845D01*
X44642298Y-40640000D01*
X44533126Y-40091155D01*
X44222231Y-39625867D01*
X43839298Y-39370000D01*
X44222231Y-39114133D01*
X44533126Y-38648845D01*
X44642298Y-38100000D01*
X44533126Y-37551155D01*
X44222231Y-37085867D01*
X43839298Y-36830000D01*
X44222231Y-36574133D01*
X44533126Y-36108845D01*
X44642298Y-35560000D01*
X44533126Y-35011155D01*
X44222231Y-34545867D01*
X43839298Y-34290000D01*
X44222231Y-34034133D01*
X44533126Y-33568845D01*
X44642298Y-33020000D01*
X44533126Y-32471155D01*
X44222231Y-32005867D01*
X43839298Y-31750000D01*
X44222231Y-31494133D01*
X44533126Y-31028845D01*
X44642298Y-30480000D01*
X44533126Y-29931155D01*
X44222231Y-29465867D01*
X43839298Y-29210000D01*
X44222231Y-28954133D01*
X44533126Y-28488845D01*
X44642298Y-27940000D01*
X44533126Y-27391155D01*
X44222231Y-26925867D01*
X43839298Y-26670000D01*
X44222231Y-26414133D01*
X44533126Y-25948845D01*
X44642298Y-25400000D01*
X44533126Y-24851155D01*
X44222231Y-24385867D01*
X43839298Y-24130000D01*
X44222231Y-23874133D01*
X44533126Y-23408845D01*
X44642298Y-22860000D01*
X44533126Y-22311155D01*
X44222231Y-21845867D01*
X43839298Y-21590000D01*
X44222231Y-21334133D01*
X44533126Y-20868845D01*
X44642298Y-20320000D01*
X44533126Y-19771155D01*
X44222231Y-19305867D01*
X43839298Y-19050000D01*
X44222231Y-18794133D01*
X44533126Y-18328845D01*
X44642298Y-17780000D01*
X44533126Y-17231155D01*
X44222231Y-16765867D01*
X43839298Y-16510000D01*
X44222231Y-16254133D01*
X44533126Y-15788845D01*
X44642298Y-15240000D01*
X44533126Y-14691155D01*
X44222231Y-14225867D01*
X43839298Y-13970000D01*
X44222231Y-13714133D01*
X44533126Y-13248845D01*
X44642298Y-12700000D01*
X44533126Y-12151155D01*
X44222231Y-11685867D01*
X43756943Y-11374972D01*
X43208098Y-11265800D01*
X43151902Y-11265800D01*
X42603057Y-11374972D01*
X42137769Y-11685867D01*
X41910000Y-12026748D01*
X41682231Y-11685867D01*
X41216943Y-11374972D01*
X40668098Y-11265800D01*
X40611902Y-11265800D01*
X40063057Y-11374972D01*
X39597769Y-11685867D01*
X39286874Y-12151155D01*
X39177702Y-12700000D01*
X-23569430Y-12700000D01*
X-23171191Y-12301761D01*
X-8997801Y-12301761D01*
X-8895820Y-12522200D01*
X-7797800Y-12522200D01*
X-7797800Y-11422900D01*
X-7442200Y-11422900D01*
X-7442200Y-12522200D01*
X-5257800Y-12522200D01*
X-5257800Y-11422900D01*
X-4902200Y-11422900D01*
X-4902200Y-12522200D01*
X-3804180Y-12522200D01*
X-3702199Y-12301761D01*
X-3824138Y-12007337D01*
X-4184806Y-11579465D01*
X-4681759Y-11322185D01*
X-4902200Y-11422900D01*
X-5257800Y-11422900D01*
X-5478241Y-11322185D01*
X-5975194Y-11579465D01*
X-6335862Y-12007337D01*
X-6350000Y-12041473D01*
X-6364138Y-12007337D01*
X-6724806Y-11579465D01*
X-7221759Y-11322185D01*
X-7442200Y-11422900D01*
X-7797800Y-11422900D01*
X-8018241Y-11322185D01*
X-8515194Y-11579465D01*
X-8875862Y-12007337D01*
X-8997801Y-12301761D01*
X-23171191Y-12301761D01*
X8392302Y19261732D01*
X8629061Y19616067D01*
X8712200Y20034034D01*
X8712200Y39042631D01*
X8957593Y39409887D01*
X9067800Y39963936D01*
X9067800Y40020664D01*
X8957593Y40574713D01*
X8712200Y40941969D01*
X8712200Y41582631D01*
X8957593Y41949887D01*
X9067800Y42503936D01*
X9067800Y42560664D01*
X8957593Y43114713D01*
X8643749Y43584413D01*
X8174049Y43898257D01*
X7620000Y44008464D01*
X7065951Y43898257D01*
X6656245Y43624500D01*
X6043755Y43624500D01*
X5634049Y43898257D01*
X5080000Y44008464D01*
X4525951Y43898257D01*
X4056251Y43584413D01*
X3810000Y43215873D01*
X3563749Y43584413D01*
X3094049Y43898257D01*
X2540000Y44008464D01*
X1985951Y43898257D01*
X1516251Y43584413D01*
X1255987Y43194901D01*
X1132220Y43434654D01*
X700719Y43799248D01*
X400382Y43923637D01*
X177800Y43821850D01*
X177800Y42710100D01*
X197800Y42710100D01*
X197800Y42354500D01*
X177800Y42354500D01*
X177800Y40170100D01*
X197800Y40170100D01*
X197800Y39814500D01*
X177800Y39814500D01*
X177800Y38702750D01*
X400382Y38600963D01*
X700719Y38725352D01*
X1132220Y39089946D01*
X1255987Y39329699D01*
X1516251Y38940187D01*
X1985951Y38626343D01*
X2540000Y38516136D01*
X3094049Y38626343D01*
X3503755Y38900100D01*
X3987800Y38900100D01*
X3987800Y21836803D01*
X-16560800Y1288203D01*
X-16560800Y13716000D01*
X-16614937Y13988164D01*
X-16614937Y13988165D01*
X-16769105Y14218894D01*
X-17195800Y14645589D01*
X-17195800Y25494697D01*
X-7195103Y25494697D01*
X-6777136Y25577836D01*
X-6422801Y25814595D01*
X-1767698Y30469698D01*
X-1710831Y30554806D01*
X-1530939Y30824033D01*
X-1447800Y31242000D01*
X-1447800Y39042631D01*
X-1255987Y39329699D01*
X-1132220Y39089946D01*
X-700719Y38725352D01*
X-400382Y38600963D01*
X-177800Y38702750D01*
X-177800Y39814500D01*
X-197800Y39814500D01*
X-197800Y40170100D01*
X-177800Y40170100D01*
X-177800Y42354500D01*
X-197800Y42354500D01*
X-197800Y42710100D01*
X-177800Y42710100D01*
X-177800Y43821850D01*
X-400382Y43923637D01*
X-700719Y43799248D01*
X-1132220Y43434654D01*
X-1255987Y43194901D01*
X-1516251Y43584413D01*
X-1985951Y43898257D01*
X-2540000Y44008464D01*
X-3094049Y43898257D01*
X-3563749Y43584413D01*
X-3810000Y43215873D01*
X-4056251Y43584413D01*
X-4525951Y43898257D01*
X-5080000Y44008464D01*
X-5634049Y43898257D01*
X-6103749Y43584413D01*
X-6350000Y43215873D01*
X-6596251Y43584413D01*
X-7065951Y43898257D01*
X-7620000Y44008464D01*
X-8174049Y43898257D01*
X-8643749Y43584413D01*
X-8890000Y43215873D01*
X-9136251Y43584413D01*
X-9605951Y43898257D01*
X-10160000Y44008464D01*
X-10714049Y43898257D01*
X-11183749Y43584413D01*
X-11430000Y43215873D01*
X-11676251Y43584413D01*
X-12145951Y43898257D01*
X-12700000Y44008464D01*
X-13254049Y43898257D01*
X-13723749Y43584413D01*
X-13984013Y43194901D01*
X-14107780Y43434654D01*
X-14539281Y43799248D01*
X-14839618Y43923637D01*
X-15062200Y43821850D01*
X-15062200Y42710100D01*
X-15042200Y42710100D01*
X-15042200Y42354500D01*
X-15062200Y42354500D01*
X-15062200Y40170100D01*
X-15042200Y40170100D01*
X-15042200Y39814500D01*
X-15062200Y39814500D01*
X-15062200Y38702750D01*
X-14839618Y38600963D01*
X-14539281Y38725352D01*
X-14107780Y39089946D01*
X-13984013Y39329699D01*
X-13723749Y38940187D01*
X-13254049Y38626343D01*
X-12700000Y38516136D01*
X-12145951Y38626343D01*
X-11676251Y38940187D01*
X-11430000Y39308727D01*
X-11183749Y38940187D01*
X-10714049Y38626343D01*
X-10160000Y38516136D01*
X-9605951Y38626343D01*
X-9136251Y38940187D01*
X-8890000Y39308727D01*
X-8643749Y38940187D01*
X-8174049Y38626343D01*
X-7620000Y38516136D01*
X-7065951Y38626343D01*
X-6596251Y38940187D01*
X-6350000Y39308727D01*
X-6103749Y38940187D01*
X-5634049Y38626343D01*
X-5080000Y38516136D01*
X-4525951Y38626343D01*
X-4056251Y38940187D01*
X-3810000Y39308727D01*
X-3632200Y39042631D01*
X-3632200Y31694404D01*
X-4673449Y30653155D01*
X-4673442Y30661087D01*
X-4812358Y30997289D01*
X-4876800Y31061844D01*
X-4876800Y31168715D01*
X-4706326Y31239154D01*
X-4448877Y31496154D01*
X-4350027Y31734210D01*
X-4058352Y31854728D01*
X-3800903Y32111728D01*
X-3661400Y32447687D01*
X-3661083Y32811457D01*
X-3799999Y33147659D01*
X-3946629Y33294545D01*
X-3833302Y33407675D01*
X-3693799Y33743634D01*
X-3693482Y34107404D01*
X-3832398Y34443606D01*
X-3993934Y34605425D01*
X-3894620Y34704566D01*
X-3755117Y35040525D01*
X-3754800Y35404295D01*
X-3893716Y35740497D01*
X-4150716Y35997946D01*
X-4486675Y36137449D01*
X-4850445Y36137766D01*
X-5186647Y35998850D01*
X-5249191Y35936415D01*
X-5800596Y35936415D01*
X-6523935Y36659753D01*
X-6754664Y36813922D01*
X-7026829Y36868059D01*
X-15786360Y36868059D01*
X-15786360Y38661422D01*
X-15640382Y38600963D01*
X-15417800Y38702750D01*
X-15417800Y39814500D01*
X-15437800Y39814500D01*
X-15437800Y40170100D01*
X-15417800Y40170100D01*
X-15417800Y42354500D01*
X-15437800Y42354500D01*
X-15437800Y42710100D01*
X-15417800Y42710100D01*
X-15417800Y43821850D01*
X-15640382Y43923637D01*
X-15940719Y43799248D01*
X-16372220Y43434654D01*
X-16495987Y43194901D01*
X-16756251Y43584413D01*
X-17225951Y43898257D01*
X-17780000Y44008464D01*
X-18334049Y43898257D01*
X-18803749Y43584413D01*
X-19050000Y43215873D01*
X-19296251Y43584413D01*
X-19765951Y43898257D01*
X-20320000Y44008464D01*
X-20874049Y43898257D01*
X-21343749Y43584413D01*
X-21590000Y43215873D01*
X-21836251Y43584413D01*
X-22305951Y43898257D01*
X-22860000Y44008464D01*
X-23414049Y43898257D01*
X-23883749Y43584413D01*
X-24130000Y43215873D01*
X-24376251Y43584413D01*
X-24845951Y43898257D01*
X-25400000Y44008464D01*
X-25954049Y43898257D01*
X-26423749Y43584413D01*
X-26684013Y43194901D01*
X-26807780Y43434654D01*
X-27239281Y43799248D01*
X-27539618Y43923637D01*
X-27762200Y43821850D01*
X-27762200Y42710100D01*
X-27742200Y42710100D01*
X-27742200Y42354500D01*
X-27762200Y42354500D01*
X-27762200Y40170100D01*
X-27742200Y40170100D01*
X-27742200Y39814500D01*
X-27762200Y39814500D01*
X-27762200Y38702750D01*
X-27539618Y38600963D01*
X-27239281Y38725352D01*
X-26807780Y39089946D01*
X-26684013Y39329699D01*
X-26423749Y38940187D01*
X-25954049Y38626343D01*
X-25400000Y38516136D01*
X-24845951Y38626343D01*
X-24376251Y38940187D01*
X-24130000Y39308727D01*
X-23883749Y38940187D01*
X-23414049Y38626343D01*
X-22860000Y38516136D01*
X-22540305Y38579727D01*
X-22499295Y38518352D01*
X-21306243Y37325300D01*
X-22112855Y37325300D01*
X-22112855Y37464100D01*
X-22153591Y37680592D01*
X-22281537Y37879426D01*
X-22476761Y38012817D01*
X-22708500Y38059745D01*
X-24408500Y38059745D01*
X-24624992Y38019009D01*
X-24823826Y37891063D01*
X-24957217Y37695839D01*
X-25004145Y37464100D01*
X-25004145Y36613533D01*
X-25507606Y37116994D01*
X-25668855Y37224738D01*
X-25668855Y37464100D01*
X-25709591Y37680592D01*
X-25837537Y37879426D01*
X-26032761Y38012817D01*
X-26264500Y38059745D01*
X-27964500Y38059745D01*
X-28180992Y38019009D01*
X-28379826Y37891063D01*
X-28513217Y37695839D01*
X-28560145Y37464100D01*
X-28560145Y35764100D01*
X-28519409Y35547608D01*
X-28391463Y35348774D01*
X-28196239Y35215383D01*
X-28019885Y35179671D01*
X-28156731Y35088233D01*
X-28467626Y34622945D01*
X-28576798Y34074100D01*
X-28467626Y33525255D01*
X-28156731Y33059967D01*
X-27691443Y32749072D01*
X-27142598Y32639900D01*
X-27086402Y32639900D01*
X-26752504Y32706316D01*
X-25908462Y31862274D01*
X-25677733Y31708105D01*
X-25405568Y31653968D01*
X-22788732Y31653968D01*
X-19726874Y28592110D01*
X-19791427Y28436651D01*
X-19791744Y28072881D01*
X-19768324Y28016200D01*
X-26858330Y28016200D01*
X-26919117Y28041441D01*
X-27282887Y28041758D01*
X-27344742Y28016200D01*
X-30480000Y28016200D01*
X-30593974Y28004974D01*
X-30691176Y27985639D01*
X-30901766Y27898409D01*
X-30984169Y27843349D01*
X-31145349Y27682169D01*
X-31200409Y27599766D01*
X-31287639Y27389176D01*
X-31306974Y27291974D01*
X-31318200Y27178000D01*
X-31318200Y23916588D01*
X-32202094Y23032694D01*
X-32356263Y22801965D01*
X-32356263Y22801964D01*
X-32410400Y22529800D01*
X-32410400Y22425932D01*
X-32552158Y22567938D01*
X-32888117Y22707441D01*
X-33251887Y22707758D01*
X-33588089Y22568842D01*
X-33845538Y22311842D01*
X-33985041Y21975883D01*
X-33985311Y21666200D01*
X-38432355Y21666200D01*
X-38432355Y21860000D01*
X-38473091Y22076492D01*
X-38601037Y22275326D01*
X-38796261Y22408717D01*
X-39028000Y22455645D01*
X-40728000Y22455645D01*
X-40944492Y22414909D01*
X-41143326Y22286963D01*
X-41276717Y22091739D01*
X-41323645Y21860000D01*
X-41323645Y19860000D01*
X-41282909Y19643508D01*
X-41224200Y19552271D01*
X-41224200Y15494000D01*
X-41212974Y15380026D01*
X-41193639Y15282824D01*
X-41106409Y15072234D01*
X-41051349Y14989831D01*
X-40890169Y14828651D01*
X-40807766Y14773591D01*
X-40597176Y14686361D01*
X-40499974Y14667026D01*
X-40386000Y14655800D01*
X-31572200Y14655800D01*
X-31572200Y8966200D01*
X-38686355Y8966200D01*
X-38686355Y9160000D01*
X-38727091Y9376492D01*
X-38855037Y9575326D01*
X-39050261Y9708717D01*
X-39282000Y9755645D01*
X-40982000Y9755645D01*
X-41198492Y9714909D01*
X-41397326Y9586963D01*
X-41530717Y9391739D01*
X-41577645Y9160000D01*
X-48183800Y9160000D01*
X-48183800Y11836150D01*
X-41566200Y11836150D01*
X-41566200Y11043795D01*
X-41477261Y10829077D01*
X-41312922Y10664739D01*
X-41098204Y10575800D01*
X-40455850Y10575800D01*
X-40309800Y10721850D01*
X-40309800Y11982200D01*
X-39954200Y11982200D01*
X-39954200Y10721850D01*
X-39808150Y10575800D01*
X-39165796Y10575800D01*
X-38951078Y10664739D01*
X-38786739Y10829077D01*
X-38697800Y11043795D01*
X-38697800Y11836150D01*
X-38843850Y11982200D01*
X-39954200Y11982200D01*
X-40309800Y11982200D01*
X-41420150Y11982200D01*
X-41566200Y11836150D01*
X-48183800Y11836150D01*
X-48183800Y13276205D01*
X-41566200Y13276205D01*
X-41566200Y12483850D01*
X-41420150Y12337800D01*
X-40309800Y12337800D01*
X-40309800Y13598150D01*
X-39954200Y13598150D01*
X-39954200Y12337800D01*
X-38843850Y12337800D01*
X-38697800Y12483850D01*
X-38697800Y13276205D01*
X-38786739Y13490923D01*
X-38951078Y13655261D01*
X-39165796Y13744200D01*
X-39808150Y13744200D01*
X-39954200Y13598150D01*
X-40309800Y13598150D01*
X-40455850Y13744200D01*
X-41098204Y13744200D01*
X-41312922Y13655261D01*
X-41477261Y13490923D01*
X-41566200Y13276205D01*
X-48183800Y13276205D01*
X-48183800Y24536150D01*
X-41312200Y24536150D01*
X-41312200Y23743795D01*
X-41223261Y23529077D01*
X-41058922Y23364739D01*
X-40844204Y23275800D01*
X-40201850Y23275800D01*
X-40055800Y23421850D01*
X-40055800Y24682200D01*
X-39700200Y24682200D01*
X-39700200Y23421850D01*
X-39554150Y23275800D01*
X-38911796Y23275800D01*
X-38697078Y23364739D01*
X-38532739Y23529077D01*
X-38443800Y23743795D01*
X-38443800Y24536150D01*
X-38589850Y24682200D01*
X-39700200Y24682200D01*
X-40055800Y24682200D01*
X-41166150Y24682200D01*
X-41312200Y24536150D01*
X-48183800Y24536150D01*
X-48183800Y25976205D01*
X-41312200Y25976205D01*
X-41312200Y25183850D01*
X-41166150Y25037800D01*
X-40055800Y25037800D01*
X-40055800Y26298150D01*
X-39700200Y26298150D01*
X-39700200Y25037800D01*
X-38589850Y25037800D01*
X-38443800Y25183850D01*
X-38443800Y25976205D01*
X-38532739Y26190923D01*
X-38697078Y26355261D01*
X-38911796Y26444200D01*
X-39554150Y26444200D01*
X-39700200Y26298150D01*
X-40055800Y26298150D01*
X-40201850Y26444200D01*
X-40844204Y26444200D01*
X-41058922Y26355261D01*
X-41223261Y26190923D01*
X-41312200Y25976205D01*
X-48183800Y25976205D01*
X-48183800Y40855900D01*
X-42099245Y40855900D01*
X-42099245Y39128700D01*
X-42058509Y38912208D01*
X-41930563Y38713374D01*
X-41735339Y38579983D01*
X-41503600Y38533055D01*
X-39776400Y38533055D01*
X-39559908Y38573791D01*
X-39361074Y38701737D01*
X-39227683Y38896961D01*
X-39194976Y39058477D01*
X-38800719Y38725352D01*
X-38500382Y38600963D01*
X-38277800Y38702750D01*
X-38277800Y39814500D01*
X-38297800Y39814500D01*
X-38297800Y40170100D01*
X-38277800Y40170100D01*
X-38277800Y42354500D01*
X-38297800Y42354500D01*
X-38297800Y42710100D01*
X-38277800Y42710100D01*
X-38277800Y43821850D01*
X-37922200Y43821850D01*
X-37922200Y42710100D01*
X-37902200Y42710100D01*
X-37902200Y42354500D01*
X-37922200Y42354500D01*
X-37922200Y40170100D01*
X-37902200Y40170100D01*
X-37902200Y39814500D01*
X-37922200Y39814500D01*
X-37922200Y38702750D01*
X-37699618Y38600963D01*
X-37399281Y38725352D01*
X-36967780Y39089946D01*
X-36844013Y39329699D01*
X-36583749Y38940187D01*
X-36114049Y38626343D01*
X-35560000Y38516136D01*
X-35005951Y38626343D01*
X-34536251Y38940187D01*
X-34290000Y39308727D01*
X-34043749Y38940187D01*
X-33574049Y38626343D01*
X-33020000Y38516136D01*
X-32465951Y38626343D01*
X-31996251Y38940187D01*
X-31750000Y39308727D01*
X-31503749Y38940187D01*
X-31034049Y38626343D01*
X-30480000Y38516136D01*
X-29925951Y38626343D01*
X-29456251Y38940187D01*
X-29195987Y39329699D01*
X-29072220Y39089946D01*
X-28640719Y38725352D01*
X-28340382Y38600963D01*
X-28117800Y38702750D01*
X-28117800Y39814500D01*
X-28137800Y39814500D01*
X-28137800Y40170100D01*
X-28117800Y40170100D01*
X-28117800Y42354500D01*
X-28137800Y42354500D01*
X-28137800Y42710100D01*
X-28117800Y42710100D01*
X-28117800Y43821850D01*
X-28340382Y43923637D01*
X-28640719Y43799248D01*
X-29072220Y43434654D01*
X-29195987Y43194901D01*
X-29456251Y43584413D01*
X-29925951Y43898257D01*
X-30480000Y44008464D01*
X-31034049Y43898257D01*
X-31503749Y43584413D01*
X-31750000Y43215873D01*
X-31996251Y43584413D01*
X-32465951Y43898257D01*
X-33020000Y44008464D01*
X-33574049Y43898257D01*
X-34043749Y43584413D01*
X-34290000Y43215873D01*
X-34536251Y43584413D01*
X-35005951Y43898257D01*
X-35560000Y44008464D01*
X-36114049Y43898257D01*
X-36583749Y43584413D01*
X-36844013Y43194901D01*
X-36967780Y43434654D01*
X-37399281Y43799248D01*
X-37699618Y43923637D01*
X-37922200Y43821850D01*
X-38277800Y43821850D01*
X-38500382Y43923637D01*
X-38800719Y43799248D01*
X-39232220Y43434654D01*
X-39355987Y43194901D01*
X-39616251Y43584413D01*
X-40085951Y43898257D01*
X-40640000Y44008464D01*
X-41194049Y43898257D01*
X-41663749Y43584413D01*
X-41977593Y43114713D01*
X-42087800Y42560664D01*
X-42087800Y42503936D01*
X-41977593Y41949887D01*
X-41663749Y41480187D01*
X-41595113Y41434326D01*
X-41720092Y41410809D01*
X-41918926Y41282863D01*
X-42052317Y41087639D01*
X-42099245Y40855900D01*
X-48183800Y40855900D01*
X-48183800Y52705800D01*
X11367537Y52705800D01*
X11668557Y52645923D01*
X11668557Y52645923D01*
G37*
X11668557Y52645923D02*
X11870793Y52510794D01*
X12005924Y52308555D01*
X12065800Y52007537D01*
X12065800Y41910000D01*
X12077986Y41848737D01*
X12077986Y41786274D01*
X12174659Y41300266D01*
X12194624Y41252067D01*
X12269355Y41071650D01*
X12544655Y40659632D01*
X12544656Y40659631D01*
X12719632Y40484656D01*
X13131647Y40209357D01*
X13131649Y40209355D01*
X13360266Y40114659D01*
X13846273Y40017986D01*
X13908737Y40017986D01*
X13970000Y40005800D01*
X48183800Y40005800D01*
X48183800Y2410159D01*
X48042262Y2382005D01*
X47813646Y2287309D01*
X47813644Y2287308D01*
X47195619Y1874356D01*
X47020644Y1699381D01*
X46607691Y1081355D01*
X46533210Y901542D01*
X46512995Y852738D01*
X46367986Y123728D01*
X46367986Y-123726D01*
X46512995Y-852738D01*
X46512995Y-852739D01*
X46607691Y-1081355D01*
X47020644Y-1699381D01*
X47195619Y-1874356D01*
X47813644Y-2287308D01*
X47813646Y-2287309D01*
X48042262Y-2382005D01*
X48183800Y-2410159D01*
X48183800Y-88240800D01*
X30480000Y-88240800D01*
X30410116Y-88254701D01*
X30228745Y-88218624D01*
X30026506Y-88083493D01*
X29891377Y-87881257D01*
X29855299Y-87699883D01*
X29869200Y-87630000D01*
X29869200Y-68903850D01*
X39205800Y-68903850D01*
X39205800Y-69546204D01*
X39294739Y-69760922D01*
X39459077Y-69925261D01*
X39673795Y-70014200D01*
X40316150Y-70014200D01*
X40462200Y-69868150D01*
X40462200Y-68757800D01*
X40817800Y-68757800D01*
X40817800Y-69868150D01*
X40963850Y-70014200D01*
X41606205Y-70014200D01*
X41820923Y-69925261D01*
X41985261Y-69760922D01*
X42074200Y-69546204D01*
X42074200Y-69450686D01*
X42284806Y-69700535D01*
X42781759Y-69957815D01*
X43002200Y-69857100D01*
X43002200Y-68757800D01*
X43357800Y-68757800D01*
X43357800Y-69857100D01*
X43578241Y-69957815D01*
X44075194Y-69700535D01*
X44435862Y-69272663D01*
X44557801Y-68978239D01*
X44455820Y-68757800D01*
X43357800Y-68757800D01*
X43002200Y-68757800D01*
X40817800Y-68757800D01*
X40462200Y-68757800D01*
X39351850Y-68757800D01*
X39205800Y-68903850D01*
X29869200Y-68903850D01*
X29869200Y-67310000D01*
X29819021Y-67057735D01*
X29676125Y-66843875D01*
X29462265Y-66700979D01*
X29210000Y-66650800D01*
X11430000Y-66650800D01*
X11177735Y-66700979D01*
X10963875Y-66843875D01*
X10820979Y-67057735D01*
X10770800Y-67310000D01*
X10770800Y-87630000D01*
X10784701Y-87699884D01*
X10748624Y-87881255D01*
X10613493Y-88083494D01*
X10411257Y-88218623D01*
X10167042Y-88267201D01*
X10160000Y-88265800D01*
X-41797733Y-88265800D01*
X-41798974Y-88265286D01*
X-42161255Y-88193224D01*
X-42363494Y-88058093D01*
X-42498623Y-87855857D01*
X-42532175Y-87687184D01*
X-42520800Y-87630000D01*
X-42520800Y-68903850D01*
X-9054200Y-68903850D01*
X-9054200Y-69546204D01*
X-8965261Y-69760922D01*
X-8800923Y-69925261D01*
X-8586205Y-70014200D01*
X-7943850Y-70014200D01*
X-7797800Y-69868150D01*
X-7797800Y-68757800D01*
X-7442200Y-68757800D01*
X-7442200Y-69868150D01*
X-7296150Y-70014200D01*
X-6653795Y-70014200D01*
X-6439077Y-69925261D01*
X-6274739Y-69760922D01*
X-6185800Y-69546204D01*
X-6185800Y-69450686D01*
X-5975194Y-69700535D01*
X-5478241Y-69957815D01*
X-5257800Y-69857100D01*
X-5257800Y-68757800D01*
X-4902200Y-68757800D01*
X-4902200Y-69857100D01*
X-4681759Y-69957815D01*
X-4184806Y-69700535D01*
X-3824138Y-69272663D01*
X-3702199Y-68978239D01*
X-3804180Y-68757800D01*
X-4902200Y-68757800D01*
X-5257800Y-68757800D01*
X-7442200Y-68757800D01*
X-7797800Y-68757800D01*
X-8908150Y-68757800D01*
X-9054200Y-68903850D01*
X-42520800Y-68903850D01*
X-42520800Y-63500000D01*
X-42570979Y-63247735D01*
X-42713875Y-63033875D01*
X-42927735Y-62890979D01*
X-43180000Y-62840800D01*
X-48183800Y-62840800D01*
X-48183800Y-62015000D01*
X-37005645Y-62015000D01*
X-37005645Y-63715000D01*
X-36964909Y-63931492D01*
X-36836963Y-64130326D01*
X-36641739Y-64263717D01*
X-36410000Y-64310645D01*
X-34710000Y-64310645D01*
X-34493508Y-64269909D01*
X-34294674Y-64141963D01*
X-34161283Y-63946739D01*
X-34125571Y-63770385D01*
X-34034133Y-63907231D01*
X-33568845Y-64218126D01*
X-33020000Y-64327298D01*
X-32471155Y-64218126D01*
X-32005867Y-63907231D01*
X-31750000Y-63524298D01*
X-31494133Y-63907231D01*
X-31028845Y-64218126D01*
X-30480000Y-64327298D01*
X-29931155Y-64218126D01*
X-29465867Y-63907231D01*
X-29210000Y-63524298D01*
X-28954133Y-63907231D01*
X-28488845Y-64218126D01*
X-27940000Y-64327298D01*
X-27391155Y-64218126D01*
X-26925867Y-63907231D01*
X-26614972Y-63441943D01*
X-26505800Y-62893098D01*
X-26505800Y-62836902D01*
X-26614972Y-62288057D01*
X-26925867Y-61822769D01*
X-27391155Y-61511874D01*
X-27940000Y-61402702D01*
X-28488845Y-61511874D01*
X-28954133Y-61822769D01*
X-29210000Y-62205702D01*
X-29465867Y-61822769D01*
X-29931155Y-61511874D01*
X-30480000Y-61402702D01*
X-31028845Y-61511874D01*
X-31494133Y-61822769D01*
X-31750000Y-62205702D01*
X-32005867Y-61822769D01*
X-32471155Y-61511874D01*
X-33020000Y-61402702D01*
X-33568845Y-61511874D01*
X-34034133Y-61822769D01*
X-34124951Y-61958688D01*
X-34155091Y-61798508D01*
X-34283037Y-61599674D01*
X-34478261Y-61466283D01*
X-34710000Y-61419355D01*
X-36410000Y-61419355D01*
X-36626492Y-61460091D01*
X-36825326Y-61588037D01*
X-36958717Y-61783261D01*
X-37005645Y-62015000D01*
X-48183800Y-62015000D01*
X-48183800Y-56927754D01*
X-38914561Y-56927754D01*
X-38597929Y-57694062D01*
X-38012146Y-58280869D01*
X-37246392Y-58598838D01*
X-36417246Y-58599561D01*
X-35650938Y-58282929D01*
X-35064131Y-57697146D01*
X-34746162Y-56931392D01*
X-34746159Y-56927754D01*
X-28119561Y-56927754D01*
X-27802929Y-57694062D01*
X-27217146Y-58280869D01*
X-26451392Y-58598838D01*
X-25622246Y-58599561D01*
X-24855938Y-58282929D01*
X-24269131Y-57697146D01*
X-23951162Y-56931392D01*
X-23950439Y-56102246D01*
X-24267071Y-55335938D01*
X-24852854Y-54749131D01*
X-25618608Y-54431162D01*
X-26447754Y-54430439D01*
X-27214062Y-54747071D01*
X-27800869Y-55332854D01*
X-28118838Y-56098608D01*
X-28119561Y-56927754D01*
X-34746159Y-56927754D01*
X-34745439Y-56102246D01*
X-35062071Y-55335938D01*
X-35647854Y-54749131D01*
X-36413608Y-54431162D01*
X-37242754Y-54430439D01*
X-38009062Y-54747071D01*
X-38595869Y-55332854D01*
X-38913838Y-56098608D01*
X-38914561Y-56927754D01*
X-48183800Y-56927754D01*
X-48183800Y-45648048D01*
X-38764535Y-45648048D01*
X-38470691Y-46359205D01*
X-37927067Y-46903779D01*
X-37216424Y-47198863D01*
X-36446952Y-47199535D01*
X-35735795Y-46905691D01*
X-35191221Y-46362067D01*
X-34896137Y-45651424D01*
X-34896135Y-45648048D01*
X-27969535Y-45648048D01*
X-27675691Y-46359205D01*
X-27132067Y-46903779D01*
X-26421424Y-47198863D01*
X-25651952Y-47199535D01*
X-24940795Y-46905691D01*
X-24396221Y-46362067D01*
X-24101137Y-45651424D01*
X-24100465Y-44881952D01*
X-24394309Y-44170795D01*
X-24937933Y-43626221D01*
X-25648576Y-43331137D01*
X-26418048Y-43330465D01*
X-27129205Y-43624309D01*
X-27673779Y-44167933D01*
X-27968863Y-44878576D01*
X-27969535Y-45648048D01*
X-34896135Y-45648048D01*
X-34895465Y-44881952D01*
X-35189309Y-44170795D01*
X-35732933Y-43626221D01*
X-36443576Y-43331137D01*
X-37213048Y-43330465D01*
X-37924205Y-43624309D01*
X-38468779Y-44167933D01*
X-38763863Y-44878576D01*
X-38764535Y-45648048D01*
X-48183800Y-45648048D01*
X-48183800Y-34427754D01*
X-38914561Y-34427754D01*
X-38597929Y-35194062D01*
X-38012146Y-35780869D01*
X-37246392Y-36098838D01*
X-36417246Y-36099561D01*
X-35650938Y-35782929D01*
X-35064131Y-35197146D01*
X-34746162Y-34431392D01*
X-34746159Y-34427754D01*
X-28119561Y-34427754D01*
X-27802929Y-35194062D01*
X-27217146Y-35780869D01*
X-26451392Y-36098838D01*
X-25622246Y-36099561D01*
X-24855938Y-35782929D01*
X-24269131Y-35197146D01*
X-23951162Y-34431392D01*
X-23950439Y-33602246D01*
X-24267071Y-32835938D01*
X-24852854Y-32249131D01*
X-25618608Y-31931162D01*
X-26447754Y-31930439D01*
X-27214062Y-32247071D01*
X-27800869Y-32832854D01*
X-28118838Y-33598608D01*
X-28119561Y-34427754D01*
X-34746159Y-34427754D01*
X-34745439Y-33602246D01*
X-35062071Y-32835938D01*
X-35647854Y-32249131D01*
X-36413608Y-31931162D01*
X-37242754Y-31930439D01*
X-38009062Y-32247071D01*
X-38595869Y-32832854D01*
X-38913838Y-33598608D01*
X-38914561Y-34427754D01*
X-48183800Y-34427754D01*
X-48183800Y-2410159D01*
X-48042262Y-2382005D01*
X-48042261Y-2382005D01*
X-47813645Y-2287309D01*
X-47195619Y-1874356D01*
X-47070919Y-1749655D01*
X-47020644Y-1699381D01*
X-46607692Y-1081356D01*
X-46571796Y-994695D01*
X-46512995Y-852738D01*
X-46367986Y-123726D01*
X-46367986Y123728D01*
X-46512995Y852738D01*
X-46607691Y1081354D01*
X-46607692Y1081355D01*
X-46607692Y1081356D01*
X-47020644Y1699381D01*
X-47102538Y1781274D01*
X-47195619Y1874356D01*
X-47813645Y2287309D01*
X-48042261Y2382005D01*
X-48042262Y2382005D01*
X-48183800Y2410159D01*
X-48183800Y9160000D01*
X-41577645Y9160000D01*
X-41577645Y7160000D01*
X-41536909Y6943508D01*
X-41478200Y6852271D01*
X-41478200Y254000D01*
X-41466974Y140026D01*
X-41447639Y42824D01*
X-41360409Y-167766D01*
X-41305349Y-250169D01*
X-41144169Y-411349D01*
X-41061766Y-466409D01*
X-40851176Y-553639D01*
X-40753974Y-572974D01*
X-40640000Y-584200D01*
X-21655989Y-584200D01*
X-37078894Y-16007106D01*
X-37233063Y-16237835D01*
X-37257793Y-16362161D01*
X-37287200Y-16510000D01*
X-37287200Y-20729168D01*
X-37233063Y-21001333D01*
X-37078894Y-21232062D01*
X-33222931Y-25088026D01*
X-33223009Y-25177804D01*
X-33084093Y-25514006D01*
X-32827093Y-25771455D01*
X-32491134Y-25910958D01*
X-32127364Y-25911275D01*
X-31791162Y-25772359D01*
X-31684702Y-25666085D01*
X-31191200Y-26159587D01*
X-31191200Y-26695356D01*
X-31494133Y-26897769D01*
X-31750000Y-27280702D01*
X-32005867Y-26897769D01*
X-32471155Y-26586874D01*
X-33020000Y-26477702D01*
X-33568845Y-26586874D01*
X-34034133Y-26897769D01*
X-34124951Y-27033688D01*
X-34155091Y-26873508D01*
X-34283037Y-26674674D01*
X-34478261Y-26541283D01*
X-34710000Y-26494355D01*
X-36410000Y-26494355D01*
X-36626492Y-26535091D01*
X-36825326Y-26663037D01*
X-36958717Y-26858261D01*
X-37005645Y-27090000D01*
X-37005645Y-28790000D01*
X-36964909Y-29006492D01*
X-36836963Y-29205326D01*
X-36641739Y-29338717D01*
X-36410000Y-29385645D01*
X-34710000Y-29385645D01*
X-34493508Y-29344909D01*
X-34294674Y-29216963D01*
X-34161283Y-29021739D01*
X-34125571Y-28845385D01*
X-34034133Y-28982231D01*
X-33568845Y-29293126D01*
X-33020000Y-29402298D01*
X-32471155Y-29293126D01*
X-32005867Y-28982231D01*
X-31750000Y-28599298D01*
X-31494133Y-28982231D01*
X-31028845Y-29293126D01*
X-30480000Y-29402298D01*
X-29931155Y-29293126D01*
X-29465867Y-28982231D01*
X-29210000Y-28599298D01*
X-28954133Y-28982231D01*
X-28488845Y-29293126D01*
X-27940000Y-29402298D01*
X-27391155Y-29293126D01*
X-26925867Y-28982231D01*
X-26614972Y-28516943D01*
X-26505800Y-27968098D01*
X-26505800Y-27911902D01*
X-26614972Y-27363057D01*
X-26925867Y-26897769D01*
X-27391155Y-26586874D01*
X-27940000Y-26477702D01*
X-28488845Y-26586874D01*
X-28954133Y-26897769D01*
X-29210000Y-27280702D01*
X-29465867Y-26897769D01*
X-29768800Y-26695356D01*
X-29768800Y-25864999D01*
X-29822937Y-25592835D01*
X-29822937Y-25592834D01*
X-29977106Y-25362105D01*
X-31512947Y-23826264D01*
X-31743676Y-23672095D01*
X-32015841Y-23617958D01*
X-32068994Y-23617958D01*
X-34695855Y-20991097D01*
X-34695855Y-19181366D01*
X-34443718Y-19231519D01*
X-34025751Y-19148380D01*
X-33671416Y-18911621D01*
X5852302Y20612097D01*
X6089061Y20966432D01*
X6172200Y21384399D01*
X6172200Y39042631D01*
X6350000Y39308727D01*
X6527800Y39042631D01*
X6527800Y20486438D01*
X-28708862Y-14750224D01*
X-28945621Y-15104559D01*
X-29028760Y-15522526D01*
X-29028760Y-17394856D01*
X-28945621Y-17812823D01*
X-28708862Y-18167158D01*
X-28354527Y-18403917D01*
X-27936560Y-18487056D01*
X-27518593Y-18403917D01*
X-27164258Y-18167158D01*
X-26927499Y-17812823D01*
X-26920971Y-17780000D01*
X-9082298Y-17780000D01*
X-8973126Y-18328845D01*
X-8662231Y-18794133D01*
X-8279298Y-19050000D01*
X-8662231Y-19305867D01*
X-8973126Y-19771155D01*
X-9082298Y-20320000D01*
X-8973126Y-20868845D01*
X-8662231Y-21334133D01*
X-8279298Y-21590000D01*
X-8662231Y-21845867D01*
X-8973126Y-22311155D01*
X-9082298Y-22860000D01*
X-8973126Y-23408845D01*
X-8662231Y-23874133D01*
X-8279298Y-24130000D01*
X-8662231Y-24385867D01*
X-8973126Y-24851155D01*
X-9082298Y-25400000D01*
X-8973126Y-25948845D01*
X-8662231Y-26414133D01*
X-8279298Y-26670000D01*
X-8662231Y-26925867D01*
X-8973126Y-27391155D01*
X-9082298Y-27940000D01*
X-8973126Y-28488845D01*
X-8662231Y-28954133D01*
X-8279298Y-29210000D01*
X-8662231Y-29465867D01*
X-8973126Y-29931155D01*
X-9082298Y-30480000D01*
X-8973126Y-31028845D01*
X-8662231Y-31494133D01*
X-8279298Y-31750000D01*
X-8662231Y-32005867D01*
X-8973126Y-32471155D01*
X-9082298Y-33020000D01*
X-8973126Y-33568845D01*
X-8662231Y-34034133D01*
X-8279298Y-34290000D01*
X-8662231Y-34545867D01*
X-8973126Y-35011155D01*
X-9082298Y-35560000D01*
X-8973126Y-36108845D01*
X-8662231Y-36574133D01*
X-8279298Y-36830000D01*
X-8662231Y-37085867D01*
X-8973126Y-37551155D01*
X-9082298Y-38100000D01*
X-8973126Y-38648845D01*
X-8662231Y-39114133D01*
X-8279298Y-39370000D01*
X-8662231Y-39625867D01*
X-8973126Y-40091155D01*
X-9082298Y-40640000D01*
X-8973126Y-41188845D01*
X-8662231Y-41654133D01*
X-8279298Y-41910000D01*
X-8662231Y-42165867D01*
X-8973126Y-42631155D01*
X-9082298Y-43180000D01*
X-8973126Y-43728845D01*
X-8662231Y-44194133D01*
X-8279298Y-44450000D01*
X-8662231Y-44705867D01*
X-8973126Y-45171155D01*
X-9082298Y-45720000D01*
X-8973126Y-46268845D01*
X-8662231Y-46734133D01*
X-8279298Y-46990000D01*
X-8662231Y-47245867D01*
X-8973126Y-47711155D01*
X-9082298Y-48260000D01*
X-8973126Y-48808845D01*
X-8662231Y-49274133D01*
X-8279298Y-49530000D01*
X-8662231Y-49785867D01*
X-8973126Y-50251155D01*
X-9082298Y-50800000D01*
X-8973126Y-51348845D01*
X-8662231Y-51814133D01*
X-8279298Y-52070000D01*
X-8662231Y-52325867D01*
X-8973126Y-52791155D01*
X-9082298Y-53340000D01*
X-8973126Y-53888845D01*
X-8662231Y-54354133D01*
X-8279298Y-54610000D01*
X-8662231Y-54865867D01*
X-8973126Y-55331155D01*
X-9082298Y-55880000D01*
X-8973126Y-56428845D01*
X-8662231Y-56894133D01*
X-8279298Y-57150000D01*
X-8662231Y-57405867D01*
X-8973126Y-57871155D01*
X-9082298Y-58420000D01*
X-8973126Y-58968845D01*
X-8662231Y-59434133D01*
X-8279298Y-59690000D01*
X-8662231Y-59945867D01*
X-8973126Y-60411155D01*
X-9082298Y-60960000D01*
X-8973126Y-61508845D01*
X-8662231Y-61974133D01*
X-8279298Y-62230000D01*
X-8662231Y-62485867D01*
X-8973126Y-62951155D01*
X-9082298Y-63500000D01*
X-8973126Y-64048845D01*
X-8662231Y-64514133D01*
X-8279298Y-64770000D01*
X-8662231Y-65025867D01*
X-8973126Y-65491155D01*
X-9082298Y-66040000D01*
X-8973126Y-66588845D01*
X-8662231Y-67054133D01*
X-8525041Y-67145800D01*
X-8586205Y-67145800D01*
X-8800923Y-67234739D01*
X-8965261Y-67399078D01*
X-9054200Y-67613796D01*
X-9054200Y-68256150D01*
X-8908150Y-68402200D01*
X-7797800Y-68402200D01*
X-7797800Y-68382200D01*
X-7442200Y-68382200D01*
X-7442200Y-68402200D01*
X-5257800Y-68402200D01*
X-5257800Y-68382200D01*
X-4902200Y-68382200D01*
X-4902200Y-68402200D01*
X-3804180Y-68402200D01*
X-3702199Y-68181761D01*
X-3824138Y-67887337D01*
X-4184806Y-67459465D01*
X-4443755Y-67325403D01*
X-4037769Y-67054133D01*
X-3726874Y-66588845D01*
X-3617702Y-66040000D01*
X-3726874Y-65491155D01*
X-4037769Y-65025867D01*
X-4420702Y-64770000D01*
X-4037769Y-64514133D01*
X-3726874Y-64048845D01*
X-3617702Y-63500000D01*
X-3726874Y-62951155D01*
X-4037769Y-62485867D01*
X-4420702Y-62230000D01*
X-4037769Y-61974133D01*
X-3726874Y-61508845D01*
X-3617702Y-60960000D01*
X-3726874Y-60411155D01*
X-4037769Y-59945867D01*
X-4420702Y-59690000D01*
X-4037769Y-59434133D01*
X-3726874Y-58968845D01*
X-3617702Y-58420000D01*
X-3726874Y-57871155D01*
X-4037769Y-57405867D01*
X-4420702Y-57150000D01*
X-4037769Y-56894133D01*
X-3726874Y-56428845D01*
X-3617702Y-55880000D01*
X-3726874Y-55331155D01*
X-4037769Y-54865867D01*
X-4420702Y-54610000D01*
X-4037769Y-54354133D01*
X-3726874Y-53888845D01*
X-3617702Y-53340000D01*
X-3726874Y-52791155D01*
X-4037769Y-52325867D01*
X-4420702Y-52070000D01*
X-4037769Y-51814133D01*
X-3726874Y-51348845D01*
X-3617702Y-50800000D01*
X-3726874Y-50251155D01*
X-4037769Y-49785867D01*
X-4420702Y-49530000D01*
X-4037769Y-49274133D01*
X-3835356Y-48971200D01*
X1177832Y-48971200D01*
X1212242Y-49005670D01*
X1548201Y-49145173D01*
X1911971Y-49145490D01*
X2248173Y-49006574D01*
X2505622Y-48749574D01*
X2645125Y-48413615D01*
X2645442Y-48049845D01*
X2506526Y-47713643D01*
X2249526Y-47456194D01*
X1913567Y-47316691D01*
X1549797Y-47316374D01*
X1213595Y-47455290D01*
X1119922Y-47548800D01*
X355533Y-47548800D01*
X406241Y-47426683D01*
X406558Y-47062913D01*
X267642Y-46726711D01*
X87130Y-46545884D01*
X299917Y-46634241D01*
X663687Y-46634558D01*
X999889Y-46495642D01*
X1257338Y-46238642D01*
X1396841Y-45902683D01*
X1397158Y-45538913D01*
X1262248Y-45212406D01*
X1570490Y-45085043D01*
X1827939Y-44828043D01*
X1967442Y-44492084D01*
X1967759Y-44128314D01*
X1828843Y-43792112D01*
X1813812Y-43777054D01*
X1892361Y-43698642D01*
X2031864Y-43362683D01*
X2032131Y-43056482D01*
X2274048Y-43156935D01*
X2637818Y-43157252D01*
X2974020Y-43018336D01*
X3231469Y-42761336D01*
X3370972Y-42425377D01*
X3371289Y-42061607D01*
X3232373Y-41725405D01*
X2975373Y-41467956D01*
X2639414Y-41328453D01*
X2507808Y-41328338D01*
X2398697Y-41255432D01*
X2126532Y-41201295D01*
X-3735193Y-41201295D01*
X-3726874Y-41188845D01*
X-3617702Y-40640000D01*
X-3726874Y-40091155D01*
X-4037769Y-39625867D01*
X-4420702Y-39370000D01*
X-4037769Y-39114133D01*
X-3726874Y-38648845D01*
X-3617702Y-38100000D01*
X-3726874Y-37551155D01*
X-4037769Y-37085867D01*
X-4420702Y-36830000D01*
X-4037769Y-36574133D01*
X-3726874Y-36108845D01*
X-3617702Y-35560000D01*
X-3726874Y-35011155D01*
X-4037769Y-34545867D01*
X-4420702Y-34290000D01*
X-4037769Y-34034133D01*
X-3835356Y-33731200D01*
X2369229Y-33731200D01*
X2451534Y-33813649D01*
X2787493Y-33953152D01*
X3151263Y-33953469D01*
X3487465Y-33814553D01*
X3744914Y-33557553D01*
X3884417Y-33221594D01*
X3884734Y-32857824D01*
X3806308Y-32668020D01*
X3826114Y-32668037D01*
X4162316Y-32529121D01*
X4419765Y-32272121D01*
X4559268Y-31936162D01*
X4559585Y-31572392D01*
X4420669Y-31236190D01*
X4163669Y-30978741D01*
X3827710Y-30839238D01*
X3463940Y-30838921D01*
X3127738Y-30977837D01*
X3063183Y-31042279D01*
X-3735850Y-31042279D01*
X-3726874Y-31028845D01*
X-3617702Y-30480000D01*
X-3724330Y-29943943D01*
X1743413Y-29943943D01*
X1806840Y-30007481D01*
X2142799Y-30146984D01*
X2506569Y-30147301D01*
X2842771Y-30008385D01*
X3100220Y-29751385D01*
X3239723Y-29415426D01*
X3240040Y-29051656D01*
X3101124Y-28715454D01*
X2844124Y-28458005D01*
X2508165Y-28318502D01*
X2144395Y-28318185D01*
X1808193Y-28457101D01*
X1743638Y-28521543D01*
X-3748722Y-28521543D01*
X-3726874Y-28488845D01*
X-3617702Y-27940000D01*
X-3726874Y-27391155D01*
X-4037769Y-26925867D01*
X-4420702Y-26670000D01*
X-4037769Y-26414133D01*
X-3726874Y-25948845D01*
X-3617702Y-25400000D01*
X-3726874Y-24851155D01*
X-4037769Y-24385867D01*
X-4420702Y-24130000D01*
X-4037769Y-23874133D01*
X-3726874Y-23408845D01*
X-3617702Y-22860000D01*
X-3726874Y-22311155D01*
X-4037769Y-21845867D01*
X-4420702Y-21590000D01*
X-4037769Y-21334133D01*
X-3726874Y-20868845D01*
X-3617702Y-20320000D01*
X-3726874Y-19771155D01*
X-4037769Y-19305867D01*
X-4420702Y-19050000D01*
X-4037769Y-18794133D01*
X-3726874Y-18328845D01*
X-3617702Y-17780000D01*
X-3726874Y-17231155D01*
X-4037769Y-16765867D01*
X-4443755Y-16494597D01*
X-4184806Y-16360535D01*
X-3824138Y-15932663D01*
X-3702199Y-15638239D01*
X-3804180Y-15417800D01*
X-4902200Y-15417800D01*
X-4902200Y-15437800D01*
X-5257800Y-15437800D01*
X-5257800Y-15417800D01*
X-7442200Y-15417800D01*
X-7442200Y-15437800D01*
X-7797800Y-15437800D01*
X-7797800Y-15417800D01*
X-8895820Y-15417800D01*
X-8997801Y-15638239D01*
X-8875862Y-15932663D01*
X-8515194Y-16360535D01*
X-8256245Y-16494597D01*
X-8662231Y-16765867D01*
X-8973126Y-17231155D01*
X-9082298Y-17780000D01*
X-26920971Y-17780000D01*
X-26844360Y-17394856D01*
X-26844360Y-15974930D01*
X-23967669Y-13098239D01*
X-8997801Y-13098239D01*
X-8875862Y-13392663D01*
X-8515194Y-13820535D01*
X-8226493Y-13970000D01*
X-8515194Y-14119465D01*
X-8875862Y-14547337D01*
X-8997801Y-14841761D01*
X-8895820Y-15062200D01*
X-7797800Y-15062200D01*
X-7797800Y-12877800D01*
X-7442200Y-12877800D01*
X-7442200Y-15062200D01*
X-5257800Y-15062200D01*
X-5257800Y-12877800D01*
X-4902200Y-12877800D01*
X-4902200Y-15062200D01*
X-3804180Y-15062200D01*
X-3702199Y-14841761D01*
X-3824138Y-14547337D01*
X-4184806Y-14119465D01*
X-4473507Y-13970000D01*
X-4184806Y-13820535D01*
X-3824138Y-13392663D01*
X-3702199Y-13098239D01*
X-3804180Y-12877800D01*
X-4902200Y-12877800D01*
X-5257800Y-12877800D01*
X-7442200Y-12877800D01*
X-7797800Y-12877800D01*
X-8895820Y-12877800D01*
X-8997801Y-13098239D01*
X-23967669Y-13098239D01*
X-23569430Y-12700000D01*
X39177702Y-12700000D01*
X39286874Y-13248845D01*
X39597769Y-13714133D01*
X39980702Y-13970000D01*
X39597769Y-14225867D01*
X39286874Y-14691155D01*
X39177702Y-15240000D01*
X39286874Y-15788845D01*
X39597769Y-16254133D01*
X39980702Y-16510000D01*
X39597769Y-16765867D01*
X39286874Y-17231155D01*
X39177702Y-17780000D01*
X39286874Y-18328845D01*
X39597769Y-18794133D01*
X39980702Y-19050000D01*
X39597769Y-19305867D01*
X39286874Y-19771155D01*
X39177702Y-20320000D01*
X39286874Y-20868845D01*
X39597769Y-21334133D01*
X39980702Y-21590000D01*
X39597769Y-21845867D01*
X39286874Y-22311155D01*
X39177702Y-22860000D01*
X39286874Y-23408845D01*
X39597769Y-23874133D01*
X39980702Y-24130000D01*
X39597769Y-24385867D01*
X39286874Y-24851155D01*
X39177702Y-25400000D01*
X39286874Y-25948845D01*
X39597769Y-26414133D01*
X39980702Y-26670000D01*
X39597769Y-26925867D01*
X39286874Y-27391155D01*
X39177702Y-27940000D01*
X39286874Y-28488845D01*
X39597769Y-28954133D01*
X39980702Y-29210000D01*
X39597769Y-29465867D01*
X39286874Y-29931155D01*
X39177702Y-30480000D01*
X39286874Y-31028845D01*
X39597769Y-31494133D01*
X39980702Y-31750000D01*
X39597769Y-32005867D01*
X39286874Y-32471155D01*
X39177702Y-33020000D01*
X39286874Y-33568845D01*
X39597769Y-34034133D01*
X39980702Y-34290000D01*
X39597769Y-34545867D01*
X39286874Y-35011155D01*
X39177702Y-35560000D01*
X39286874Y-36108845D01*
X39597769Y-36574133D01*
X39980702Y-36830000D01*
X39597769Y-37085867D01*
X39286874Y-37551155D01*
X39177702Y-38100000D01*
X39286874Y-38648845D01*
X39597769Y-39114133D01*
X39980702Y-39370000D01*
X39597769Y-39625867D01*
X39286874Y-40091155D01*
X39177702Y-40640000D01*
X39286874Y-41188845D01*
X39597769Y-41654133D01*
X39980702Y-41910000D01*
X39597769Y-42165867D01*
X39286874Y-42631155D01*
X39177702Y-43180000D01*
X39286874Y-43728845D01*
X39597769Y-44194133D01*
X39980702Y-44450000D01*
X39597769Y-44705867D01*
X39286874Y-45171155D01*
X39177702Y-45720000D01*
X39286874Y-46268845D01*
X39597769Y-46734133D01*
X39980702Y-46990000D01*
X39597769Y-47245867D01*
X39286874Y-47711155D01*
X39177702Y-48260000D01*
X39286874Y-48808845D01*
X39597769Y-49274133D01*
X39980702Y-49530000D01*
X39597769Y-49785867D01*
X39286874Y-50251155D01*
X39177702Y-50800000D01*
X39286874Y-51348845D01*
X39597769Y-51814133D01*
X39980702Y-52070000D01*
X39597769Y-52325867D01*
X39286874Y-52791155D01*
X39177702Y-53340000D01*
X39286874Y-53888845D01*
X39597769Y-54354133D01*
X39980702Y-54610000D01*
X39597769Y-54865867D01*
X39286874Y-55331155D01*
X39177702Y-55880000D01*
X39286874Y-56428845D01*
X39597769Y-56894133D01*
X39980702Y-57150000D01*
X39597769Y-57405867D01*
X39286874Y-57871155D01*
X39177702Y-58420000D01*
X39286874Y-58968845D01*
X39597769Y-59434133D01*
X39980702Y-59690000D01*
X39597769Y-59945867D01*
X39286874Y-60411155D01*
X39177702Y-60960000D01*
X39286874Y-61508845D01*
X39597769Y-61974133D01*
X39980702Y-62230000D01*
X39597769Y-62485867D01*
X39286874Y-62951155D01*
X39177702Y-63500000D01*
X39286874Y-64048845D01*
X39597769Y-64514133D01*
X39980702Y-64770000D01*
X39597769Y-65025867D01*
X39286874Y-65491155D01*
X39177702Y-66040000D01*
X39286874Y-66588845D01*
X39597769Y-67054133D01*
X39734959Y-67145800D01*
X39673795Y-67145800D01*
X39459077Y-67234739D01*
X39294739Y-67399078D01*
X39205800Y-67613796D01*
X39205800Y-68256150D01*
X39351850Y-68402200D01*
X40462200Y-68402200D01*
X40462200Y-68382200D01*
X40817800Y-68382200D01*
X40817800Y-68402200D01*
X43002200Y-68402200D01*
X43002200Y-68382200D01*
X43357800Y-68382200D01*
X43357800Y-68402200D01*
X44455820Y-68402200D01*
X44557801Y-68181761D01*
X44435862Y-67887337D01*
X44075194Y-67459465D01*
X43816245Y-67325403D01*
X44222231Y-67054133D01*
X44533126Y-66588845D01*
X44642298Y-66040000D01*
X44533126Y-65491155D01*
X44222231Y-65025867D01*
X43839298Y-64770000D01*
X44222231Y-64514133D01*
X44533126Y-64048845D01*
X44642298Y-63500000D01*
X44533126Y-62951155D01*
X44222231Y-62485867D01*
X43839298Y-62230000D01*
X44222231Y-61974133D01*
X44533126Y-61508845D01*
X44642298Y-60960000D01*
X44533126Y-60411155D01*
X44222231Y-59945867D01*
X43839298Y-59690000D01*
X44222231Y-59434133D01*
X44533126Y-58968845D01*
X44642298Y-58420000D01*
X44533126Y-57871155D01*
X44222231Y-57405867D01*
X43839298Y-57150000D01*
X44222231Y-56894133D01*
X44533126Y-56428845D01*
X44642298Y-55880000D01*
X44533126Y-55331155D01*
X44222231Y-54865867D01*
X43839298Y-54610000D01*
X44222231Y-54354133D01*
X44533126Y-53888845D01*
X44642298Y-53340000D01*
X44533126Y-52791155D01*
X44222231Y-52325867D01*
X43839298Y-52070000D01*
X44222231Y-51814133D01*
X44533126Y-51348845D01*
X44642298Y-50800000D01*
X44533126Y-50251155D01*
X44222231Y-49785867D01*
X43839298Y-49530000D01*
X44222231Y-49274133D01*
X44533126Y-48808845D01*
X44642298Y-48260000D01*
X44533126Y-47711155D01*
X44222231Y-47245867D01*
X43839298Y-46990000D01*
X44222231Y-46734133D01*
X44533126Y-46268845D01*
X44642298Y-45720000D01*
X44533126Y-45171155D01*
X44222231Y-44705867D01*
X43839298Y-44450000D01*
X44222231Y-44194133D01*
X44533126Y-43728845D01*
X44642298Y-43180000D01*
X44533126Y-42631155D01*
X44222231Y-42165867D01*
X43839298Y-41910000D01*
X44222231Y-41654133D01*
X44533126Y-41188845D01*
X44642298Y-40640000D01*
X44533126Y-40091155D01*
X44222231Y-39625867D01*
X43839298Y-39370000D01*
X44222231Y-39114133D01*
X44533126Y-38648845D01*
X44642298Y-38100000D01*
X44533126Y-37551155D01*
X44222231Y-37085867D01*
X43839298Y-36830000D01*
X44222231Y-36574133D01*
X44533126Y-36108845D01*
X44642298Y-35560000D01*
X44533126Y-35011155D01*
X44222231Y-34545867D01*
X43839298Y-34290000D01*
X44222231Y-34034133D01*
X44533126Y-33568845D01*
X44642298Y-33020000D01*
X44533126Y-32471155D01*
X44222231Y-32005867D01*
X43839298Y-31750000D01*
X44222231Y-31494133D01*
X44533126Y-31028845D01*
X44642298Y-30480000D01*
X44533126Y-29931155D01*
X44222231Y-29465867D01*
X43839298Y-29210000D01*
X44222231Y-28954133D01*
X44533126Y-28488845D01*
X44642298Y-27940000D01*
X44533126Y-27391155D01*
X44222231Y-26925867D01*
X43839298Y-26670000D01*
X44222231Y-26414133D01*
X44533126Y-25948845D01*
X44642298Y-25400000D01*
X44533126Y-24851155D01*
X44222231Y-24385867D01*
X43839298Y-24130000D01*
X44222231Y-23874133D01*
X44533126Y-23408845D01*
X44642298Y-22860000D01*
X44533126Y-22311155D01*
X44222231Y-21845867D01*
X43839298Y-21590000D01*
X44222231Y-21334133D01*
X44533126Y-20868845D01*
X44642298Y-20320000D01*
X44533126Y-19771155D01*
X44222231Y-19305867D01*
X43839298Y-19050000D01*
X44222231Y-18794133D01*
X44533126Y-18328845D01*
X44642298Y-17780000D01*
X44533126Y-17231155D01*
X44222231Y-16765867D01*
X43839298Y-16510000D01*
X44222231Y-16254133D01*
X44533126Y-15788845D01*
X44642298Y-15240000D01*
X44533126Y-14691155D01*
X44222231Y-14225867D01*
X43839298Y-13970000D01*
X44222231Y-13714133D01*
X44533126Y-13248845D01*
X44642298Y-12700000D01*
X44533126Y-12151155D01*
X44222231Y-11685867D01*
X43756943Y-11374972D01*
X43208098Y-11265800D01*
X43151902Y-11265800D01*
X42603057Y-11374972D01*
X42137769Y-11685867D01*
X41910000Y-12026748D01*
X41682231Y-11685867D01*
X41216943Y-11374972D01*
X40668098Y-11265800D01*
X40611902Y-11265800D01*
X40063057Y-11374972D01*
X39597769Y-11685867D01*
X39286874Y-12151155D01*
X39177702Y-12700000D01*
X-23569430Y-12700000D01*
X-23171191Y-12301761D01*
X-8997801Y-12301761D01*
X-8895820Y-12522200D01*
X-7797800Y-12522200D01*
X-7797800Y-11422900D01*
X-7442200Y-11422900D01*
X-7442200Y-12522200D01*
X-5257800Y-12522200D01*
X-5257800Y-11422900D01*
X-4902200Y-11422900D01*
X-4902200Y-12522200D01*
X-3804180Y-12522200D01*
X-3702199Y-12301761D01*
X-3824138Y-12007337D01*
X-4184806Y-11579465D01*
X-4681759Y-11322185D01*
X-4902200Y-11422900D01*
X-5257800Y-11422900D01*
X-5478241Y-11322185D01*
X-5975194Y-11579465D01*
X-6335862Y-12007337D01*
X-6350000Y-12041473D01*
X-6364138Y-12007337D01*
X-6724806Y-11579465D01*
X-7221759Y-11322185D01*
X-7442200Y-11422900D01*
X-7797800Y-11422900D01*
X-8018241Y-11322185D01*
X-8515194Y-11579465D01*
X-8875862Y-12007337D01*
X-8997801Y-12301761D01*
X-23171191Y-12301761D01*
X8392302Y19261732D01*
X8629061Y19616067D01*
X8712200Y20034034D01*
X8712200Y39042631D01*
X8957593Y39409887D01*
X9067800Y39963936D01*
X9067800Y40020664D01*
X8957593Y40574713D01*
X8712200Y40941969D01*
X8712200Y41582631D01*
X8957593Y41949887D01*
X9067800Y42503936D01*
X9067800Y42560664D01*
X8957593Y43114713D01*
X8643749Y43584413D01*
X8174049Y43898257D01*
X7620000Y44008464D01*
X7065951Y43898257D01*
X6656245Y43624500D01*
X6043755Y43624500D01*
X5634049Y43898257D01*
X5080000Y44008464D01*
X4525951Y43898257D01*
X4056251Y43584413D01*
X3810000Y43215873D01*
X3563749Y43584413D01*
X3094049Y43898257D01*
X2540000Y44008464D01*
X1985951Y43898257D01*
X1516251Y43584413D01*
X1255987Y43194901D01*
X1132220Y43434654D01*
X700719Y43799248D01*
X400382Y43923637D01*
X177800Y43821850D01*
X177800Y42710100D01*
X197800Y42710100D01*
X197800Y42354500D01*
X177800Y42354500D01*
X177800Y40170100D01*
X197800Y40170100D01*
X197800Y39814500D01*
X177800Y39814500D01*
X177800Y38702750D01*
X400382Y38600963D01*
X700719Y38725352D01*
X1132220Y39089946D01*
X1255987Y39329699D01*
X1516251Y38940187D01*
X1985951Y38626343D01*
X2540000Y38516136D01*
X3094049Y38626343D01*
X3503755Y38900100D01*
X3987800Y38900100D01*
X3987800Y21836803D01*
X-16560800Y1288203D01*
X-16560800Y13716000D01*
X-16614937Y13988164D01*
X-16614937Y13988165D01*
X-16769105Y14218894D01*
X-17195800Y14645589D01*
X-17195800Y25494697D01*
X-7195103Y25494697D01*
X-6777136Y25577836D01*
X-6422801Y25814595D01*
X-1767698Y30469698D01*
X-1710831Y30554806D01*
X-1530939Y30824033D01*
X-1447800Y31242000D01*
X-1447800Y39042631D01*
X-1255987Y39329699D01*
X-1132220Y39089946D01*
X-700719Y38725352D01*
X-400382Y38600963D01*
X-177800Y38702750D01*
X-177800Y39814500D01*
X-197800Y39814500D01*
X-197800Y40170100D01*
X-177800Y40170100D01*
X-177800Y42354500D01*
X-197800Y42354500D01*
X-197800Y42710100D01*
X-177800Y42710100D01*
X-177800Y43821850D01*
X-400382Y43923637D01*
X-700719Y43799248D01*
X-1132220Y43434654D01*
X-1255987Y43194901D01*
X-1516251Y43584413D01*
X-1985951Y43898257D01*
X-2540000Y44008464D01*
X-3094049Y43898257D01*
X-3563749Y43584413D01*
X-3810000Y43215873D01*
X-4056251Y43584413D01*
X-4525951Y43898257D01*
X-5080000Y44008464D01*
X-5634049Y43898257D01*
X-6103749Y43584413D01*
X-6350000Y43215873D01*
X-6596251Y43584413D01*
X-7065951Y43898257D01*
X-7620000Y44008464D01*
X-8174049Y43898257D01*
X-8643749Y43584413D01*
X-8890000Y43215873D01*
X-9136251Y43584413D01*
X-9605951Y43898257D01*
X-10160000Y44008464D01*
X-10714049Y43898257D01*
X-11183749Y43584413D01*
X-11430000Y43215873D01*
X-11676251Y43584413D01*
X-12145951Y43898257D01*
X-12700000Y44008464D01*
X-13254049Y43898257D01*
X-13723749Y43584413D01*
X-13984013Y43194901D01*
X-14107780Y43434654D01*
X-14539281Y43799248D01*
X-14839618Y43923637D01*
X-15062200Y43821850D01*
X-15062200Y42710100D01*
X-15042200Y42710100D01*
X-15042200Y42354500D01*
X-15062200Y42354500D01*
X-15062200Y40170100D01*
X-15042200Y40170100D01*
X-15042200Y39814500D01*
X-15062200Y39814500D01*
X-15062200Y38702750D01*
X-14839618Y38600963D01*
X-14539281Y38725352D01*
X-14107780Y39089946D01*
X-13984013Y39329699D01*
X-13723749Y38940187D01*
X-13254049Y38626343D01*
X-12700000Y38516136D01*
X-12145951Y38626343D01*
X-11676251Y38940187D01*
X-11430000Y39308727D01*
X-11183749Y38940187D01*
X-10714049Y38626343D01*
X-10160000Y38516136D01*
X-9605951Y38626343D01*
X-9136251Y38940187D01*
X-8890000Y39308727D01*
X-8643749Y38940187D01*
X-8174049Y38626343D01*
X-7620000Y38516136D01*
X-7065951Y38626343D01*
X-6596251Y38940187D01*
X-6350000Y39308727D01*
X-6103749Y38940187D01*
X-5634049Y38626343D01*
X-5080000Y38516136D01*
X-4525951Y38626343D01*
X-4056251Y38940187D01*
X-3810000Y39308727D01*
X-3632200Y39042631D01*
X-3632200Y31694404D01*
X-4673449Y30653155D01*
X-4673442Y30661087D01*
X-4812358Y30997289D01*
X-4876800Y31061844D01*
X-4876800Y31168715D01*
X-4706326Y31239154D01*
X-4448877Y31496154D01*
X-4350027Y31734210D01*
X-4058352Y31854728D01*
X-3800903Y32111728D01*
X-3661400Y32447687D01*
X-3661083Y32811457D01*
X-3799999Y33147659D01*
X-3946629Y33294545D01*
X-3833302Y33407675D01*
X-3693799Y33743634D01*
X-3693482Y34107404D01*
X-3832398Y34443606D01*
X-3993934Y34605425D01*
X-3894620Y34704566D01*
X-3755117Y35040525D01*
X-3754800Y35404295D01*
X-3893716Y35740497D01*
X-4150716Y35997946D01*
X-4486675Y36137449D01*
X-4850445Y36137766D01*
X-5186647Y35998850D01*
X-5249191Y35936415D01*
X-5800596Y35936415D01*
X-6523935Y36659753D01*
X-6754664Y36813922D01*
X-7026829Y36868059D01*
X-15786360Y36868059D01*
X-15786360Y38661422D01*
X-15640382Y38600963D01*
X-15417800Y38702750D01*
X-15417800Y39814500D01*
X-15437800Y39814500D01*
X-15437800Y40170100D01*
X-15417800Y40170100D01*
X-15417800Y42354500D01*
X-15437800Y42354500D01*
X-15437800Y42710100D01*
X-15417800Y42710100D01*
X-15417800Y43821850D01*
X-15640382Y43923637D01*
X-15940719Y43799248D01*
X-16372220Y43434654D01*
X-16495987Y43194901D01*
X-16756251Y43584413D01*
X-17225951Y43898257D01*
X-17780000Y44008464D01*
X-18334049Y43898257D01*
X-18803749Y43584413D01*
X-19050000Y43215873D01*
X-19296251Y43584413D01*
X-19765951Y43898257D01*
X-20320000Y44008464D01*
X-20874049Y43898257D01*
X-21343749Y43584413D01*
X-21590000Y43215873D01*
X-21836251Y43584413D01*
X-22305951Y43898257D01*
X-22860000Y44008464D01*
X-23414049Y43898257D01*
X-23883749Y43584413D01*
X-24130000Y43215873D01*
X-24376251Y43584413D01*
X-24845951Y43898257D01*
X-25400000Y44008464D01*
X-25954049Y43898257D01*
X-26423749Y43584413D01*
X-26684013Y43194901D01*
X-26807780Y43434654D01*
X-27239281Y43799248D01*
X-27539618Y43923637D01*
X-27762200Y43821850D01*
X-27762200Y42710100D01*
X-27742200Y42710100D01*
X-27742200Y42354500D01*
X-27762200Y42354500D01*
X-27762200Y40170100D01*
X-27742200Y40170100D01*
X-27742200Y39814500D01*
X-27762200Y39814500D01*
X-27762200Y38702750D01*
X-27539618Y38600963D01*
X-27239281Y38725352D01*
X-26807780Y39089946D01*
X-26684013Y39329699D01*
X-26423749Y38940187D01*
X-25954049Y38626343D01*
X-25400000Y38516136D01*
X-24845951Y38626343D01*
X-24376251Y38940187D01*
X-24130000Y39308727D01*
X-23883749Y38940187D01*
X-23414049Y38626343D01*
X-22860000Y38516136D01*
X-22540305Y38579727D01*
X-22499295Y38518352D01*
X-21306243Y37325300D01*
X-22112855Y37325300D01*
X-22112855Y37464100D01*
X-22153591Y37680592D01*
X-22281537Y37879426D01*
X-22476761Y38012817D01*
X-22708500Y38059745D01*
X-24408500Y38059745D01*
X-24624992Y38019009D01*
X-24823826Y37891063D01*
X-24957217Y37695839D01*
X-25004145Y37464100D01*
X-25004145Y36613533D01*
X-25507606Y37116994D01*
X-25668855Y37224738D01*
X-25668855Y37464100D01*
X-25709591Y37680592D01*
X-25837537Y37879426D01*
X-26032761Y38012817D01*
X-26264500Y38059745D01*
X-27964500Y38059745D01*
X-28180992Y38019009D01*
X-28379826Y37891063D01*
X-28513217Y37695839D01*
X-28560145Y37464100D01*
X-28560145Y35764100D01*
X-28519409Y35547608D01*
X-28391463Y35348774D01*
X-28196239Y35215383D01*
X-28019885Y35179671D01*
X-28156731Y35088233D01*
X-28467626Y34622945D01*
X-28576798Y34074100D01*
X-28467626Y33525255D01*
X-28156731Y33059967D01*
X-27691443Y32749072D01*
X-27142598Y32639900D01*
X-27086402Y32639900D01*
X-26752504Y32706316D01*
X-25908462Y31862274D01*
X-25677733Y31708105D01*
X-25405568Y31653968D01*
X-22788732Y31653968D01*
X-19726874Y28592110D01*
X-19791427Y28436651D01*
X-19791744Y28072881D01*
X-19768324Y28016200D01*
X-26858330Y28016200D01*
X-26919117Y28041441D01*
X-27282887Y28041758D01*
X-27344742Y28016200D01*
X-30480000Y28016200D01*
X-30593974Y28004974D01*
X-30691176Y27985639D01*
X-30901766Y27898409D01*
X-30984169Y27843349D01*
X-31145349Y27682169D01*
X-31200409Y27599766D01*
X-31287639Y27389176D01*
X-31306974Y27291974D01*
X-31318200Y27178000D01*
X-31318200Y23916588D01*
X-32202094Y23032694D01*
X-32356263Y22801965D01*
X-32356263Y22801964D01*
X-32410400Y22529800D01*
X-32410400Y22425932D01*
X-32552158Y22567938D01*
X-32888117Y22707441D01*
X-33251887Y22707758D01*
X-33588089Y22568842D01*
X-33845538Y22311842D01*
X-33985041Y21975883D01*
X-33985311Y21666200D01*
X-38432355Y21666200D01*
X-38432355Y21860000D01*
X-38473091Y22076492D01*
X-38601037Y22275326D01*
X-38796261Y22408717D01*
X-39028000Y22455645D01*
X-40728000Y22455645D01*
X-40944492Y22414909D01*
X-41143326Y22286963D01*
X-41276717Y22091739D01*
X-41323645Y21860000D01*
X-41323645Y19860000D01*
X-41282909Y19643508D01*
X-41224200Y19552271D01*
X-41224200Y15494000D01*
X-41212974Y15380026D01*
X-41193639Y15282824D01*
X-41106409Y15072234D01*
X-41051349Y14989831D01*
X-40890169Y14828651D01*
X-40807766Y14773591D01*
X-40597176Y14686361D01*
X-40499974Y14667026D01*
X-40386000Y14655800D01*
X-31572200Y14655800D01*
X-31572200Y8966200D01*
X-38686355Y8966200D01*
X-38686355Y9160000D01*
X-38727091Y9376492D01*
X-38855037Y9575326D01*
X-39050261Y9708717D01*
X-39282000Y9755645D01*
X-40982000Y9755645D01*
X-41198492Y9714909D01*
X-41397326Y9586963D01*
X-41530717Y9391739D01*
X-41577645Y9160000D01*
X-48183800Y9160000D01*
X-48183800Y11836150D01*
X-41566200Y11836150D01*
X-41566200Y11043795D01*
X-41477261Y10829077D01*
X-41312922Y10664739D01*
X-41098204Y10575800D01*
X-40455850Y10575800D01*
X-40309800Y10721850D01*
X-40309800Y11982200D01*
X-39954200Y11982200D01*
X-39954200Y10721850D01*
X-39808150Y10575800D01*
X-39165796Y10575800D01*
X-38951078Y10664739D01*
X-38786739Y10829077D01*
X-38697800Y11043795D01*
X-38697800Y11836150D01*
X-38843850Y11982200D01*
X-39954200Y11982200D01*
X-40309800Y11982200D01*
X-41420150Y11982200D01*
X-41566200Y11836150D01*
X-48183800Y11836150D01*
X-48183800Y13276205D01*
X-41566200Y13276205D01*
X-41566200Y12483850D01*
X-41420150Y12337800D01*
X-40309800Y12337800D01*
X-40309800Y13598150D01*
X-39954200Y13598150D01*
X-39954200Y12337800D01*
X-38843850Y12337800D01*
X-38697800Y12483850D01*
X-38697800Y13276205D01*
X-38786739Y13490923D01*
X-38951078Y13655261D01*
X-39165796Y13744200D01*
X-39808150Y13744200D01*
X-39954200Y13598150D01*
X-40309800Y13598150D01*
X-40455850Y13744200D01*
X-41098204Y13744200D01*
X-41312922Y13655261D01*
X-41477261Y13490923D01*
X-41566200Y13276205D01*
X-48183800Y13276205D01*
X-48183800Y24536150D01*
X-41312200Y24536150D01*
X-41312200Y23743795D01*
X-41223261Y23529077D01*
X-41058922Y23364739D01*
X-40844204Y23275800D01*
X-40201850Y23275800D01*
X-40055800Y23421850D01*
X-40055800Y24682200D01*
X-39700200Y24682200D01*
X-39700200Y23421850D01*
X-39554150Y23275800D01*
X-38911796Y23275800D01*
X-38697078Y23364739D01*
X-38532739Y23529077D01*
X-38443800Y23743795D01*
X-38443800Y24536150D01*
X-38589850Y24682200D01*
X-39700200Y24682200D01*
X-40055800Y24682200D01*
X-41166150Y24682200D01*
X-41312200Y24536150D01*
X-48183800Y24536150D01*
X-48183800Y25976205D01*
X-41312200Y25976205D01*
X-41312200Y25183850D01*
X-41166150Y25037800D01*
X-40055800Y25037800D01*
X-40055800Y26298150D01*
X-39700200Y26298150D01*
X-39700200Y25037800D01*
X-38589850Y25037800D01*
X-38443800Y25183850D01*
X-38443800Y25976205D01*
X-38532739Y26190923D01*
X-38697078Y26355261D01*
X-38911796Y26444200D01*
X-39554150Y26444200D01*
X-39700200Y26298150D01*
X-40055800Y26298150D01*
X-40201850Y26444200D01*
X-40844204Y26444200D01*
X-41058922Y26355261D01*
X-41223261Y26190923D01*
X-41312200Y25976205D01*
X-48183800Y25976205D01*
X-48183800Y40855900D01*
X-42099245Y40855900D01*
X-42099245Y39128700D01*
X-42058509Y38912208D01*
X-41930563Y38713374D01*
X-41735339Y38579983D01*
X-41503600Y38533055D01*
X-39776400Y38533055D01*
X-39559908Y38573791D01*
X-39361074Y38701737D01*
X-39227683Y38896961D01*
X-39194976Y39058477D01*
X-38800719Y38725352D01*
X-38500382Y38600963D01*
X-38277800Y38702750D01*
X-38277800Y39814500D01*
X-38297800Y39814500D01*
X-38297800Y40170100D01*
X-38277800Y40170100D01*
X-38277800Y42354500D01*
X-38297800Y42354500D01*
X-38297800Y42710100D01*
X-38277800Y42710100D01*
X-38277800Y43821850D01*
X-37922200Y43821850D01*
X-37922200Y42710100D01*
X-37902200Y42710100D01*
X-37902200Y42354500D01*
X-37922200Y42354500D01*
X-37922200Y40170100D01*
X-37902200Y40170100D01*
X-37902200Y39814500D01*
X-37922200Y39814500D01*
X-37922200Y38702750D01*
X-37699618Y38600963D01*
X-37399281Y38725352D01*
X-36967780Y39089946D01*
X-36844013Y39329699D01*
X-36583749Y38940187D01*
X-36114049Y38626343D01*
X-35560000Y38516136D01*
X-35005951Y38626343D01*
X-34536251Y38940187D01*
X-34290000Y39308727D01*
X-34043749Y38940187D01*
X-33574049Y38626343D01*
X-33020000Y38516136D01*
X-32465951Y38626343D01*
X-31996251Y38940187D01*
X-31750000Y39308727D01*
X-31503749Y38940187D01*
X-31034049Y38626343D01*
X-30480000Y38516136D01*
X-29925951Y38626343D01*
X-29456251Y38940187D01*
X-29195987Y39329699D01*
X-29072220Y39089946D01*
X-28640719Y38725352D01*
X-28340382Y38600963D01*
X-28117800Y38702750D01*
X-28117800Y39814500D01*
X-28137800Y39814500D01*
X-28137800Y40170100D01*
X-28117800Y40170100D01*
X-28117800Y42354500D01*
X-28137800Y42354500D01*
X-28137800Y42710100D01*
X-28117800Y42710100D01*
X-28117800Y43821850D01*
X-28340382Y43923637D01*
X-28640719Y43799248D01*
X-29072220Y43434654D01*
X-29195987Y43194901D01*
X-29456251Y43584413D01*
X-29925951Y43898257D01*
X-30480000Y44008464D01*
X-31034049Y43898257D01*
X-31503749Y43584413D01*
X-31750000Y43215873D01*
X-31996251Y43584413D01*
X-32465951Y43898257D01*
X-33020000Y44008464D01*
X-33574049Y43898257D01*
X-34043749Y43584413D01*
X-34290000Y43215873D01*
X-34536251Y43584413D01*
X-35005951Y43898257D01*
X-35560000Y44008464D01*
X-36114049Y43898257D01*
X-36583749Y43584413D01*
X-36844013Y43194901D01*
X-36967780Y43434654D01*
X-37399281Y43799248D01*
X-37699618Y43923637D01*
X-37922200Y43821850D01*
X-38277800Y43821850D01*
X-38500382Y43923637D01*
X-38800719Y43799248D01*
X-39232220Y43434654D01*
X-39355987Y43194901D01*
X-39616251Y43584413D01*
X-40085951Y43898257D01*
X-40640000Y44008464D01*
X-41194049Y43898257D01*
X-41663749Y43584413D01*
X-41977593Y43114713D01*
X-42087800Y42560664D01*
X-42087800Y42503936D01*
X-41977593Y41949887D01*
X-41663749Y41480187D01*
X-41595113Y41434326D01*
X-41720092Y41410809D01*
X-41918926Y41282863D01*
X-42052317Y41087639D01*
X-42099245Y40855900D01*
X-48183800Y40855900D01*
X-48183800Y52705800D01*
X11367537Y52705800D01*
X11668557Y52645923D01*
M02*
