G04 #@! TF.FileFunction,Profile,NP*
%FSLAX46Y46*%
G04 Gerber Fmt 4.6, Leading zero omitted, Abs format (unit mm)*
G04 Created by KiCad (PCBNEW 4.0.7) date Tuesday, June 19, 2018 'PMt' 05:08:08 PM*
%MOMM*%
%LPD*%
G01*
G04 APERTURE LIST*
%ADD10C,0.020000*%
%ADD11C,0.100000*%
%ADD12C,0.150000*%
G04 APERTURE END LIST*
D10*
D11*
X11442700Y-87642700D02*
G75*
G02X10172700Y-88912700I-1270000J0D01*
G01*
X30467300Y-88912700D02*
G75*
G02X29197300Y-87642700I0J1270000D01*
G01*
D12*
X30480000Y-88900000D02*
X49530000Y-88900000D01*
D11*
X-41922700Y-88887300D02*
G75*
G02X-43192700Y-87617300I0J1270000D01*
G01*
D12*
X-43180000Y-63500000D02*
X-43180000Y-87630000D01*
X-49530000Y-63500000D02*
X-43180000Y-63500000D01*
X29210000Y-67310000D02*
X29210000Y-87630000D01*
X11430000Y-67310000D02*
X29210000Y-67310000D01*
X11430000Y-87630000D02*
X11430000Y-67310000D01*
D11*
X-50800000Y-3175000D02*
G75*
G02X-49530000Y-1905000I1270000J0D01*
G01*
X-49530000Y-1905000D02*
X-48895000Y-1905000D01*
X-48895000Y1905000D02*
G75*
G02X-48895000Y-1905000I0J-1905000D01*
G01*
X-48895000Y1905000D02*
X-49530000Y1905000D01*
X-49530000Y1905000D02*
G75*
G02X-50800000Y3175000I0J1270000D01*
G01*
X-50800000Y52070000D02*
X-50800000Y3175000D01*
X-50800000Y52070000D02*
G75*
G02X-49530000Y53340000I1270000J0D01*
G01*
X11430000Y53340000D02*
X-49530000Y53340000D01*
X11430000Y53340000D02*
G75*
G02X12700000Y52070000I0J-1270000D01*
G01*
X12700000Y52070000D02*
X12700000Y41910000D01*
X13970000Y40640000D02*
G75*
G02X12700000Y41910000I0J1270000D01*
G01*
X13970000Y40640000D02*
X49530000Y40640000D01*
X49530000Y40640000D02*
G75*
G02X50800000Y39370000I0J-1270000D01*
G01*
X50800000Y3175000D02*
X50800000Y39370000D01*
X50800000Y3175000D02*
G75*
G02X49530000Y1905000I-1270000J0D01*
G01*
X48895000Y1905000D02*
X49530000Y1905000D01*
X48895000Y-1905000D02*
G75*
G02X48895000Y1905000I0J1905000D01*
G01*
X49530000Y-1905000D02*
X48895000Y-1905000D01*
X49530000Y-1905000D02*
G75*
G02X50800000Y-3175000I0J-1270000D01*
G01*
X50800000Y-87630000D02*
X50800000Y-3175000D01*
X50800000Y-87630000D02*
G75*
G02X49530000Y-88900000I-1270000J0D01*
G01*
X-41910000Y-88900000D02*
X10160000Y-88900000D01*
X-49517300Y-63512700D02*
G75*
G02X-50787300Y-62242700I0J1270000D01*
G01*
X-50800000Y-3175000D02*
X-50800000Y-62230000D01*
M02*
