M48
;DRILL file {KiCad 4.0.7} date Tuesday, June 19, 2018 'PMt' 05:08:11 PM
;FORMAT={-:-/ absolute / metric / decimal}
FMAT,2
METRIC,TZ
T1C0.305
T2C1.000
T3C1.016
T4C1.300
%
G90
G05
M71
T1
X-40.132Y13.868
X-39.643Y18.942
X-39.643Y17.879
X-39.643Y16.871
X-39.576Y6.35
X-39.573Y5.486
X-39.573Y4.623
X-39.37Y26.67
X-39.268Y13.868
X-38.608Y26.67
X-38.354Y13.868
X-34.989Y16.548
X-34.444Y-18.139
X-33.071Y21.793
X-32.448Y16.548
X-32.308Y-24.997
X-31.699Y19.685
X-31.476Y6.668
X-30.416Y4.102
X-30.416Y1.816
X-29.909Y16.548
X-28.89Y-2.352
X-27.937Y-17.395
X-27.877Y4.102
X-27.877Y1.816
X-27.368Y16.548
X-27.102Y27.127
X-27.026Y14.478
X-25.336Y4.102
X-25.336Y1.816
X-24.828Y16.548
X-22.796Y4.102
X-22.796Y1.816
X-20.256Y4.102
X-20.256Y1.816
X-19.241Y21.12
X-19.241Y18.58
X-19.016Y26.917
X-18.877Y28.254
X-18.5Y12.758
X-17.716Y4.102
X-17.716Y1.816
X-17.125Y27.602
X-6.604Y29.718
X-5.588Y30.48
X-5.224Y33.278
X-5.224Y32.015
X-5.191Y34.574
X-4.669Y35.223
X-4.608Y33.926
X-4.576Y32.63
X-0.508Y-47.244
X0.483Y-45.72
X1.053Y-44.309
X1.118Y-43.18
X1.731Y-48.231
X2.325Y-29.233
X2.457Y-42.243
X2.97Y-33.039
X3.645Y-31.753
T2
X-35.56Y-27.94
X-35.56Y-62.865
X-33.02Y-27.94
X-33.02Y-62.865
X-30.48Y-27.94
X-30.48Y-62.865
X-27.94Y-27.94
X-27.94Y-62.865
X-27.114Y36.614
X-27.114Y34.074
X-23.558Y36.614
X-23.558Y34.074
X-7.62Y-12.7
X-7.62Y-15.24
X-7.62Y-17.78
X-7.62Y-20.32
X-7.62Y-22.86
X-7.62Y-25.4
X-7.62Y-27.94
X-7.62Y-30.48
X-7.62Y-33.02
X-7.62Y-35.56
X-7.62Y-38.1
X-7.62Y-40.64
X-7.62Y-43.18
X-7.62Y-45.72
X-7.62Y-48.26
X-7.62Y-50.8
X-7.62Y-53.34
X-7.62Y-55.88
X-7.62Y-58.42
X-7.62Y-60.96
X-7.62Y-63.5
X-7.62Y-66.04
X-7.62Y-68.58
X-5.08Y-12.7
X-5.08Y-15.24
X-5.08Y-17.78
X-5.08Y-20.32
X-5.08Y-22.86
X-5.08Y-25.4
X-5.08Y-27.94
X-5.08Y-30.48
X-5.08Y-33.02
X-5.08Y-35.56
X-5.08Y-38.1
X-5.08Y-40.64
X-5.08Y-43.18
X-5.08Y-45.72
X-5.08Y-48.26
X-5.08Y-50.8
X-5.08Y-53.34
X-5.08Y-55.88
X-5.08Y-58.42
X-5.08Y-60.96
X-5.08Y-63.5
X-5.08Y-66.04
X-5.08Y-68.58
X40.64Y-12.7
X40.64Y-15.24
X40.64Y-17.78
X40.64Y-20.32
X40.64Y-22.86
X40.64Y-25.4
X40.64Y-27.94
X40.64Y-30.48
X40.64Y-33.02
X40.64Y-35.56
X40.64Y-38.1
X40.64Y-40.64
X40.64Y-43.18
X40.64Y-45.72
X40.64Y-48.26
X40.64Y-50.8
X40.64Y-53.34
X40.64Y-55.88
X40.64Y-58.42
X40.64Y-60.96
X40.64Y-63.5
X40.64Y-66.04
X40.64Y-68.58
X43.18Y-12.7
X43.18Y-15.24
X43.18Y-17.78
X43.18Y-20.32
X43.18Y-22.86
X43.18Y-25.4
X43.18Y-27.94
X43.18Y-30.48
X43.18Y-33.02
X43.18Y-35.56
X43.18Y-38.1
X43.18Y-40.64
X43.18Y-43.18
X43.18Y-45.72
X43.18Y-48.26
X43.18Y-50.8
X43.18Y-53.34
X43.18Y-55.88
X43.18Y-58.42
X43.18Y-60.96
X43.18Y-63.5
X43.18Y-66.04
X43.18Y-68.58
T3
X-40.64Y42.532
X-40.64Y39.992
X-38.1Y42.532
X-38.1Y39.992
X-35.56Y42.532
X-35.56Y39.992
X-33.02Y42.532
X-33.02Y39.992
X-30.48Y42.532
X-30.48Y39.992
X-27.94Y42.532
X-27.94Y39.992
X-25.4Y42.532
X-25.4Y39.992
X-22.86Y42.532
X-22.86Y39.992
X-20.32Y42.532
X-20.32Y39.992
X-17.78Y42.532
X-17.78Y39.992
X-15.24Y42.532
X-15.24Y39.992
X-12.7Y42.532
X-12.7Y39.992
X-10.16Y42.532
X-10.16Y39.992
X-7.62Y42.532
X-7.62Y39.992
X-5.08Y42.532
X-5.08Y39.992
X-2.54Y42.532
X-2.54Y39.992
X0.Y42.532
X0.Y39.992
X2.54Y42.532
X2.54Y39.992
X5.08Y42.532
X5.08Y39.992
X7.62Y42.532
X7.62Y39.992
T4
X-36.83Y-34.015
X-36.83Y-56.515
X-26.035Y-34.015
X-26.035Y-56.515
T0
M30
