G04 #@! TF.FileFunction,Copper,L1,Top,Signal*
%FSLAX46Y46*%
G04 Gerber Fmt 4.6, Leading zero omitted, Abs format (unit mm)*
G04 Created by KiCad (PCBNEW 4.0.7) date Tuesday, June 19, 2018 'PMt' 05:08:08 PM*
%MOMM*%
%LPD*%
G01*
G04 APERTURE LIST*
%ADD10C,0.020000*%
%ADD11C,0.100000*%
%ADD12C,0.150000*%
%ADD13C,0.660400*%
%ADD14R,1.727200X1.727200*%
%ADD15O,1.727200X1.727200*%
%ADD16R,2.500000X2.000000*%
%ADD17R,2.000000X2.500000*%
%ADD18R,0.750000X1.200000*%
%ADD19R,3.500000X1.600000*%
%ADD20C,3.000000*%
%ADD21R,1.300000X0.700000*%
%ADD22R,0.700000X1.300000*%
%ADD23R,0.700000X0.250000*%
%ADD24R,0.640000X1.200000*%
%ADD25R,1.700000X1.700000*%
%ADD26O,1.700000X1.700000*%
%ADD27C,1.016000*%
%ADD28C,0.500000*%
%ADD29C,0.254000*%
%ADD30C,1.270000*%
%ADD31C,0.635000*%
%ADD32C,0.152400*%
G04 APERTURE END LIST*
D10*
D11*
X11442700Y-87642700D02*
G75*
G02X10172700Y-88912700I-1270000J0D01*
G01*
X30467300Y-88912700D02*
G75*
G02X29197300Y-87642700I0J1270000D01*
G01*
D12*
X30480000Y-88900000D02*
X49530000Y-88900000D01*
D11*
X-41922700Y-88887300D02*
G75*
G02X-43192700Y-87617300I0J1270000D01*
G01*
D12*
X-43180000Y-63500000D02*
X-43180000Y-87630000D01*
X-49530000Y-63500000D02*
X-43180000Y-63500000D01*
X29210000Y-67310000D02*
X29210000Y-87630000D01*
X11430000Y-67310000D02*
X29210000Y-67310000D01*
X11430000Y-87630000D02*
X11430000Y-67310000D01*
D11*
X-50800000Y-3175000D02*
G75*
G02X-49530000Y-1905000I1270000J0D01*
G01*
X-49530000Y-1905000D02*
X-48895000Y-1905000D01*
X-48895000Y1905000D02*
G75*
G02X-48895000Y-1905000I0J-1905000D01*
G01*
X-48895000Y1905000D02*
X-49530000Y1905000D01*
X-49530000Y1905000D02*
G75*
G02X-50800000Y3175000I0J1270000D01*
G01*
X-50800000Y52070000D02*
X-50800000Y3175000D01*
X-50800000Y52070000D02*
G75*
G02X-49530000Y53340000I1270000J0D01*
G01*
X11430000Y53340000D02*
X-49530000Y53340000D01*
X11430000Y53340000D02*
G75*
G02X12700000Y52070000I0J-1270000D01*
G01*
X12700000Y52070000D02*
X12700000Y41910000D01*
X13970000Y40640000D02*
G75*
G02X12700000Y41910000I0J1270000D01*
G01*
X13970000Y40640000D02*
X49530000Y40640000D01*
X49530000Y40640000D02*
G75*
G02X50800000Y39370000I0J-1270000D01*
G01*
X50800000Y3175000D02*
X50800000Y39370000D01*
X50800000Y3175000D02*
G75*
G02X49530000Y1905000I-1270000J0D01*
G01*
X48895000Y1905000D02*
X49530000Y1905000D01*
X48895000Y-1905000D02*
G75*
G02X48895000Y1905000I0J1905000D01*
G01*
X49530000Y-1905000D02*
X48895000Y-1905000D01*
X49530000Y-1905000D02*
G75*
G02X50800000Y-3175000I0J-1270000D01*
G01*
X50800000Y-87630000D02*
X50800000Y-3175000D01*
X50800000Y-87630000D02*
G75*
G02X49530000Y-88900000I-1270000J0D01*
G01*
X-41910000Y-88900000D02*
X10160000Y-88900000D01*
X-49517300Y-63512700D02*
G75*
G02X-50787300Y-62242700I0J1270000D01*
G01*
X-50800000Y-3175000D02*
X-50800000Y-62230000D01*
D13*
X-34988500Y16548100D03*
X-19240500Y18580100D03*
X-19240500Y21120100D03*
X-27368500Y16548100D03*
X-29908500Y16548100D03*
X-32448500Y16548100D03*
X-24828500Y16548100D03*
X-20256500Y1816100D03*
X-17716500Y4102100D03*
X-20256500Y4102100D03*
X-17716500Y1816100D03*
X-25336500Y1816100D03*
X-22796500Y4102100D03*
X-25336500Y4102100D03*
X-22796500Y1816100D03*
X-27876500Y1816100D03*
X-27876500Y4102100D03*
X-30416500Y1816100D03*
D14*
X-40640000Y39992300D03*
D15*
X-40640000Y42532300D03*
X-38100000Y39992300D03*
X-38100000Y42532300D03*
X-35560000Y39992300D03*
X-35560000Y42532300D03*
X-33020000Y39992300D03*
X-33020000Y42532300D03*
X-30480000Y39992300D03*
X-30480000Y42532300D03*
X-27940000Y39992300D03*
X-27940000Y42532300D03*
X-25400000Y39992300D03*
X-25400000Y42532300D03*
X-22860000Y39992300D03*
X-22860000Y42532300D03*
X-20320000Y39992300D03*
X-20320000Y42532300D03*
X-17780000Y39992300D03*
X-17780000Y42532300D03*
X-15240000Y39992300D03*
X-15240000Y42532300D03*
X-12700000Y39992300D03*
X-12700000Y42532300D03*
X-10160000Y39992300D03*
X-10160000Y42532300D03*
X-7620000Y39992300D03*
X-7620000Y42532300D03*
X-5080000Y39992300D03*
X-5080000Y42532300D03*
X-2540000Y39992300D03*
X-2540000Y42532300D03*
X0Y39992300D03*
X0Y42532300D03*
X2540000Y39992300D03*
X2540000Y42532300D03*
X5080000Y39992300D03*
X5080000Y42532300D03*
X7620000Y39992300D03*
X7620000Y42532300D03*
D16*
X-35814000Y22384000D03*
X-35814000Y26384000D03*
D17*
X-33560000Y19304000D03*
X-37560000Y19304000D03*
D18*
X-27686000Y20508000D03*
X-27686000Y18608000D03*
D17*
X-28734000Y26162000D03*
X-32734000Y26162000D03*
D16*
X-35763200Y9709400D03*
X-35763200Y13709400D03*
D17*
X-33509200Y4318000D03*
X-37509200Y4318000D03*
D18*
X-27940000Y7808000D03*
X-27940000Y5908000D03*
D17*
X-28734000Y13462000D03*
X-32734000Y13462000D03*
D19*
X-34450000Y-20320000D03*
X-29050000Y-20320000D03*
X-34290000Y-4445000D03*
X-28890000Y-4445000D03*
D20*
X-36830000Y-34015000D03*
X-36830000Y-56515000D03*
X-26035000Y-34015000D03*
X-26035000Y-56515000D03*
D10*
G36*
X-20322000Y9317500D02*
X-21497000Y8142500D01*
X-25747000Y8142500D01*
X-26922000Y9317500D01*
X-20322000Y9317500D01*
X-20322000Y9317500D01*
G37*
G36*
X-20309500Y10442500D02*
X-20309500Y9317500D01*
X-21434500Y9317500D01*
X-21434500Y10442500D01*
X-20309500Y10442500D01*
X-20309500Y10442500D01*
G37*
G36*
X-25809500Y10442500D02*
X-25809500Y9317500D01*
X-26934500Y9317500D01*
X-26934500Y10442500D01*
X-25809500Y10442500D01*
X-25809500Y10442500D01*
G37*
G36*
X-22546500Y9317500D02*
X-21422500Y10442500D01*
X-21421500Y10442500D01*
X-20297500Y9317500D01*
X-22546500Y9317500D01*
X-22546500Y9317500D01*
G37*
G36*
X-26946500Y9317500D02*
X-25822500Y10442500D01*
X-25821500Y10442500D01*
X-24697500Y9317500D01*
X-26946500Y9317500D01*
X-26946500Y9317500D01*
G37*
G36*
X-26938373Y13543101D02*
X-25763373Y14718101D01*
X-21513373Y14718101D01*
X-20338373Y13543101D01*
X-26938373Y13543101D01*
X-26938373Y13543101D01*
G37*
G36*
X-26950873Y12418101D02*
X-26950873Y13543101D01*
X-25825873Y13543101D01*
X-25825873Y12418101D01*
X-26950873Y12418101D01*
X-26950873Y12418101D01*
G37*
G36*
X-24713873Y13543101D02*
X-25837873Y12418101D01*
X-25838873Y12418101D01*
X-26962873Y13543101D01*
X-24713873Y13543101D01*
X-24713873Y13543101D01*
G37*
G36*
X-21450873Y12418101D02*
X-21450873Y13543101D01*
X-20325873Y13543101D01*
X-20325873Y12418101D01*
X-21450873Y12418101D01*
X-21450873Y12418101D01*
G37*
G36*
X-20313873Y13543101D02*
X-21437873Y12418101D01*
X-21438873Y12418101D01*
X-22562873Y13543101D01*
X-20313873Y13543101D01*
X-20313873Y13543101D01*
G37*
G36*
X-32260000Y-14458101D02*
X-33435000Y-15633101D01*
X-37685000Y-15633101D01*
X-38860000Y-14458101D01*
X-32260000Y-14458101D01*
X-32260000Y-14458101D01*
G37*
G36*
X-32247500Y-13333101D02*
X-32247500Y-14458101D01*
X-33372500Y-14458101D01*
X-33372500Y-13333101D01*
X-32247500Y-13333101D01*
X-32247500Y-13333101D01*
G37*
G36*
X-37747500Y-13333101D02*
X-37747500Y-14458101D01*
X-38872500Y-14458101D01*
X-38872500Y-13333101D01*
X-37747500Y-13333101D01*
X-37747500Y-13333101D01*
G37*
G36*
X-34484500Y-14458101D02*
X-33360500Y-13333101D01*
X-33359500Y-13333101D01*
X-32235500Y-14458101D01*
X-34484500Y-14458101D01*
X-34484500Y-14458101D01*
G37*
G36*
X-38884500Y-14458101D02*
X-37760500Y-13333101D01*
X-37759500Y-13333101D01*
X-36635500Y-14458101D01*
X-38884500Y-14458101D01*
X-38884500Y-14458101D01*
G37*
G36*
X-38876373Y-10232500D02*
X-37701373Y-9057500D01*
X-33451373Y-9057500D01*
X-32276373Y-10232500D01*
X-38876373Y-10232500D01*
X-38876373Y-10232500D01*
G37*
G36*
X-38888873Y-11357500D02*
X-38888873Y-10232500D01*
X-37763873Y-10232500D01*
X-37763873Y-11357500D01*
X-38888873Y-11357500D01*
X-38888873Y-11357500D01*
G37*
G36*
X-36651873Y-10232500D02*
X-37775873Y-11357500D01*
X-37776873Y-11357500D01*
X-38900873Y-10232500D01*
X-36651873Y-10232500D01*
X-36651873Y-10232500D01*
G37*
G36*
X-33388873Y-11357500D02*
X-33388873Y-10232500D01*
X-32263873Y-10232500D01*
X-32263873Y-11357500D01*
X-33388873Y-11357500D01*
X-33388873Y-11357500D01*
G37*
G36*
X-32251873Y-10232500D02*
X-33375873Y-11357500D01*
X-33376873Y-11357500D01*
X-34500873Y-10232500D01*
X-32251873Y-10232500D01*
X-32251873Y-10232500D01*
G37*
G36*
X-24640000Y-14532500D02*
X-25815000Y-15707500D01*
X-30065000Y-15707500D01*
X-31240000Y-14532500D01*
X-24640000Y-14532500D01*
X-24640000Y-14532500D01*
G37*
G36*
X-24627500Y-13407500D02*
X-24627500Y-14532500D01*
X-25752500Y-14532500D01*
X-25752500Y-13407500D01*
X-24627500Y-13407500D01*
X-24627500Y-13407500D01*
G37*
G36*
X-30127500Y-13407500D02*
X-30127500Y-14532500D01*
X-31252500Y-14532500D01*
X-31252500Y-13407500D01*
X-30127500Y-13407500D01*
X-30127500Y-13407500D01*
G37*
G36*
X-26864500Y-14532500D02*
X-25740500Y-13407500D01*
X-25739500Y-13407500D01*
X-24615500Y-14532500D01*
X-26864500Y-14532500D01*
X-26864500Y-14532500D01*
G37*
G36*
X-31264500Y-14532500D02*
X-30140500Y-13407500D01*
X-30139500Y-13407500D01*
X-29015500Y-14532500D01*
X-31264500Y-14532500D01*
X-31264500Y-14532500D01*
G37*
G36*
X-31256373Y-10306899D02*
X-30081373Y-9131899D01*
X-25831373Y-9131899D01*
X-24656373Y-10306899D01*
X-31256373Y-10306899D01*
X-31256373Y-10306899D01*
G37*
G36*
X-31268873Y-11431899D02*
X-31268873Y-10306899D01*
X-30143873Y-10306899D01*
X-30143873Y-11431899D01*
X-31268873Y-11431899D01*
X-31268873Y-11431899D01*
G37*
G36*
X-29031873Y-10306899D02*
X-30155873Y-11431899D01*
X-30156873Y-11431899D01*
X-31280873Y-10306899D01*
X-29031873Y-10306899D01*
X-29031873Y-10306899D01*
G37*
G36*
X-25768873Y-11431899D02*
X-25768873Y-10306899D01*
X-24643873Y-10306899D01*
X-24643873Y-11431899D01*
X-25768873Y-11431899D01*
X-25768873Y-11431899D01*
G37*
G36*
X-24631873Y-10306899D02*
X-25755873Y-11431899D01*
X-25756873Y-11431899D01*
X-26880873Y-10306899D01*
X-24631873Y-10306899D01*
X-24631873Y-10306899D01*
G37*
G36*
X-20449000Y22017500D02*
X-21624000Y20842500D01*
X-25874000Y20842500D01*
X-27049000Y22017500D01*
X-20449000Y22017500D01*
X-20449000Y22017500D01*
G37*
G36*
X-20436500Y23142500D02*
X-20436500Y22017500D01*
X-21561500Y22017500D01*
X-21561500Y23142500D01*
X-20436500Y23142500D01*
X-20436500Y23142500D01*
G37*
G36*
X-25936500Y23142500D02*
X-25936500Y22017500D01*
X-27061500Y22017500D01*
X-27061500Y23142500D01*
X-25936500Y23142500D01*
X-25936500Y23142500D01*
G37*
G36*
X-22673500Y22017500D02*
X-21549500Y23142500D01*
X-21548500Y23142500D01*
X-20424500Y22017500D01*
X-22673500Y22017500D01*
X-22673500Y22017500D01*
G37*
G36*
X-27073500Y22017500D02*
X-25949500Y23142500D01*
X-25948500Y23142500D01*
X-24824500Y22017500D01*
X-27073500Y22017500D01*
X-27073500Y22017500D01*
G37*
G36*
X-27065373Y26243101D02*
X-25890373Y27418101D01*
X-21640373Y27418101D01*
X-20465373Y26243101D01*
X-27065373Y26243101D01*
X-27065373Y26243101D01*
G37*
G36*
X-27077873Y25118101D02*
X-27077873Y26243101D01*
X-25952873Y26243101D01*
X-25952873Y25118101D01*
X-27077873Y25118101D01*
X-27077873Y25118101D01*
G37*
G36*
X-24840873Y26243101D02*
X-25964873Y25118101D01*
X-25965873Y25118101D01*
X-27089873Y26243101D01*
X-24840873Y26243101D01*
X-24840873Y26243101D01*
G37*
G36*
X-21577873Y25118101D02*
X-21577873Y26243101D01*
X-20452873Y26243101D01*
X-20452873Y25118101D01*
X-21577873Y25118101D01*
X-21577873Y25118101D01*
G37*
G36*
X-20440873Y26243101D02*
X-21564873Y25118101D01*
X-21565873Y25118101D01*
X-22689873Y26243101D01*
X-20440873Y26243101D01*
X-20440873Y26243101D01*
G37*
D21*
X-33274000Y7366000D03*
X-33274000Y9266000D03*
D22*
X-36764000Y7112000D03*
X-34864000Y7112000D03*
X-29855200Y-24968200D03*
X-27955200Y-24968200D03*
D23*
X-31151000Y22463000D03*
X-31151000Y21963000D03*
X-31151000Y21463000D03*
X-31151000Y20963000D03*
X-31151000Y20463000D03*
X-29301000Y20463000D03*
X-29301000Y20963000D03*
X-29301000Y21463000D03*
X-29301000Y21963000D03*
X-29301000Y22463000D03*
D24*
X-30226000Y20863000D03*
X-30226000Y22063000D03*
D23*
X-31314000Y9798000D03*
X-31314000Y9298000D03*
X-31314000Y8798000D03*
X-31314000Y8298000D03*
X-31314000Y7798000D03*
X-29464000Y7798000D03*
X-29464000Y8298000D03*
X-29464000Y8798000D03*
X-29464000Y9298000D03*
X-29464000Y9798000D03*
D24*
X-30389000Y8198000D03*
X-30389000Y9398000D03*
D25*
X-35560000Y-62865000D03*
D26*
X-33020000Y-62865000D03*
X-30480000Y-62865000D03*
X-27940000Y-62865000D03*
D25*
X-35560000Y-27940000D03*
D26*
X-33020000Y-27940000D03*
X-30480000Y-27940000D03*
X-27940000Y-27940000D03*
D25*
X-23558500Y36614100D03*
D26*
X-23558500Y34074100D03*
D25*
X-27114500Y36614100D03*
D26*
X-27114500Y34074100D03*
D25*
X40640000Y-68580000D03*
D26*
X43180000Y-68580000D03*
X40640000Y-66040000D03*
X43180000Y-66040000D03*
X40640000Y-63500000D03*
X43180000Y-63500000D03*
X40640000Y-60960000D03*
X43180000Y-60960000D03*
X40640000Y-58420000D03*
X43180000Y-58420000D03*
X40640000Y-55880000D03*
X43180000Y-55880000D03*
X40640000Y-53340000D03*
X43180000Y-53340000D03*
X40640000Y-50800000D03*
X43180000Y-50800000D03*
X40640000Y-48260000D03*
X43180000Y-48260000D03*
X40640000Y-45720000D03*
X43180000Y-45720000D03*
X40640000Y-43180000D03*
X43180000Y-43180000D03*
X40640000Y-40640000D03*
X43180000Y-40640000D03*
X40640000Y-38100000D03*
X43180000Y-38100000D03*
X40640000Y-35560000D03*
X43180000Y-35560000D03*
X40640000Y-33020000D03*
X43180000Y-33020000D03*
X40640000Y-30480000D03*
X43180000Y-30480000D03*
X40640000Y-27940000D03*
X43180000Y-27940000D03*
X40640000Y-25400000D03*
X43180000Y-25400000D03*
X40640000Y-22860000D03*
X43180000Y-22860000D03*
X40640000Y-20320000D03*
X43180000Y-20320000D03*
X40640000Y-17780000D03*
X43180000Y-17780000D03*
X40640000Y-15240000D03*
X43180000Y-15240000D03*
X40640000Y-12700000D03*
X43180000Y-12700000D03*
D25*
X-7620000Y-68580000D03*
D26*
X-5080000Y-68580000D03*
X-7620000Y-66040000D03*
X-5080000Y-66040000D03*
X-7620000Y-63500000D03*
X-5080000Y-63500000D03*
X-7620000Y-60960000D03*
X-5080000Y-60960000D03*
X-7620000Y-58420000D03*
X-5080000Y-58420000D03*
X-7620000Y-55880000D03*
X-5080000Y-55880000D03*
X-7620000Y-53340000D03*
X-5080000Y-53340000D03*
X-7620000Y-50800000D03*
X-5080000Y-50800000D03*
X-7620000Y-48260000D03*
X-5080000Y-48260000D03*
X-7620000Y-45720000D03*
X-5080000Y-45720000D03*
X-7620000Y-43180000D03*
X-5080000Y-43180000D03*
X-7620000Y-40640000D03*
X-5080000Y-40640000D03*
X-7620000Y-38100000D03*
X-5080000Y-38100000D03*
X-7620000Y-35560000D03*
X-5080000Y-35560000D03*
X-7620000Y-33020000D03*
X-5080000Y-33020000D03*
X-7620000Y-30480000D03*
X-5080000Y-30480000D03*
X-7620000Y-27940000D03*
X-5080000Y-27940000D03*
X-7620000Y-25400000D03*
X-5080000Y-25400000D03*
X-7620000Y-22860000D03*
X-5080000Y-22860000D03*
X-7620000Y-20320000D03*
X-5080000Y-20320000D03*
X-7620000Y-17780000D03*
X-5080000Y-17780000D03*
X-7620000Y-15240000D03*
X-5080000Y-15240000D03*
X-7620000Y-12700000D03*
X-5080000Y-12700000D03*
D13*
X-30416500Y4102100D03*
X-39643198Y17879234D03*
X-19015731Y26917096D03*
X-27101800Y27127200D03*
X-31699200Y19685000D03*
X-32308451Y-24996717D03*
X-39643198Y16870785D03*
X-39643198Y18941902D03*
X-39573200Y4622800D03*
X-39573200Y5486400D03*
X-39576000Y6350000D03*
X-34443718Y-18139319D03*
X-27936560Y-17394856D03*
X-38608000Y26670000D03*
X-39370000Y26670000D03*
X-28890000Y-2352000D03*
X-38354000Y13868400D03*
X-39268400Y13868400D03*
X-40132000Y13868400D03*
X-31475903Y6668188D03*
X-27025600Y14478000D03*
X-5588000Y30480000D03*
X-17124873Y27602466D03*
X482600Y-45720000D03*
X1053201Y-44309401D03*
X1117623Y-43180000D03*
X1730884Y-48230932D03*
X2456731Y-42242694D03*
X2325482Y-29232743D03*
X2970176Y-33038911D03*
X3645027Y-31753479D03*
X-6604000Y29718000D03*
X-5223615Y32014796D03*
X-4575641Y32630370D03*
X-5223615Y33278342D03*
X-4608040Y33926317D03*
X-5191216Y34574291D03*
X-4669358Y35223208D03*
X-18877186Y28253968D03*
X-508000Y-47244000D03*
X-18499525Y12758402D03*
X-33070800Y21793200D03*
D27*
X-19038809Y26928635D02*
X-20317339Y26928635D01*
X-20317339Y26928635D02*
X-21565373Y25680601D01*
D28*
X-23765373Y26830601D02*
X-23739729Y26856245D01*
D29*
X-31550000Y19685000D02*
X-31699200Y19685000D01*
X-31151000Y20463000D02*
X-31151000Y20084000D01*
X-31151000Y20084000D02*
X-31550000Y19685000D01*
X-32279934Y-24968200D02*
X-32308451Y-24996717D01*
X-29855200Y-24968200D02*
X-32279934Y-24968200D01*
X-29301000Y21963000D02*
X-30126000Y21963000D01*
X-30126000Y21963000D02*
X-30226000Y22063000D01*
X-29464000Y9298000D02*
X-30289000Y9298000D01*
X-30289000Y9298000D02*
X-30389000Y9398000D01*
D30*
X-34450000Y-20320000D02*
X-34450000Y-25279881D01*
X-34450000Y-25279881D02*
X-33389686Y-26340195D01*
X-33389686Y-26340195D02*
X-33389686Y-27570314D01*
X-33389686Y-27570314D02*
X-33020000Y-27940000D01*
D27*
X-34450000Y-20320000D02*
X-34671000Y-20320000D01*
X-34671000Y-20320000D02*
X-34472630Y-20121630D01*
X-34472630Y-20121630D02*
X-34472630Y-18109255D01*
X-34472630Y-18109255D02*
X-35560000Y-17021885D01*
X-35560000Y-17021885D02*
X-35560000Y-15045601D01*
X-28829000Y-20320000D02*
X-27940000Y-19431000D01*
X-27940000Y-19431000D02*
X-27940000Y-15120000D01*
X-29050000Y-20320000D02*
X-28829000Y-20320000D01*
X-26035000Y-34015000D02*
X-26035000Y-22385000D01*
X-26035000Y-22385000D02*
X-28100000Y-20320000D01*
X-28100000Y-20320000D02*
X-29050000Y-20320000D01*
D30*
X-34290000Y-4445000D02*
X-34290000Y-2375000D01*
X-34290000Y-2375000D02*
X-36658102Y-6898D01*
X-36658102Y-6898D02*
X-41487344Y-6898D01*
X-41487344Y-6898D02*
X-42926000Y1431758D01*
X-42926000Y1431758D02*
X-42926000Y9436100D01*
X-42926000Y9436100D02*
X-42926000Y20794353D01*
X-42926000Y9436100D02*
X-42652700Y9709400D01*
X-42652700Y9709400D02*
X-35763200Y9709400D01*
X-42926000Y20794353D02*
X-41336353Y22384000D01*
X-41336353Y22384000D02*
X-35814000Y22384000D01*
D27*
X-34290000Y-4445000D02*
X-34290000Y-6261000D01*
X-35576373Y-7547373D02*
X-35576373Y-9645000D01*
X-34290000Y-6261000D02*
X-35576373Y-7547373D01*
D30*
X-35763200Y13709400D02*
X-35918786Y13864986D01*
X-35918786Y13864986D02*
X-40128586Y13864986D01*
X-40128586Y13864986D02*
X-40132000Y13868400D01*
X-35814000Y26384000D02*
X-36084675Y26654675D01*
X-36084675Y26654675D02*
X-39354675Y26654675D01*
X-39354675Y26654675D02*
X-39370000Y26670000D01*
X-28890000Y-4445000D02*
X-28890000Y-2352000D01*
D27*
X-27956373Y-7273427D02*
X-27956373Y-9719399D01*
X-28890000Y-6339800D02*
X-27956373Y-7273427D01*
X-28890000Y-4445000D02*
X-28890000Y-6339800D01*
D29*
X-31151000Y20963000D02*
X-32151000Y20963000D01*
X-32151000Y20963000D02*
X-33560000Y19554000D01*
X-33560000Y19554000D02*
X-33560000Y19304000D01*
X-29301000Y20463000D02*
X-27731000Y20463000D01*
X-27731000Y20463000D02*
X-27686000Y20508000D01*
X-31314000Y8298000D02*
X-31918000Y8298000D01*
X-31918000Y8298000D02*
X-32164941Y8051059D01*
X-32164941Y5879548D02*
X-33509200Y4535289D01*
X-32164941Y8051059D02*
X-32164941Y5879548D01*
X-33509200Y4535289D02*
X-33509200Y4318000D01*
X-29464000Y7798000D02*
X-27950000Y7798000D01*
X-27950000Y7798000D02*
X-27940000Y7808000D01*
D27*
X-23072759Y14696215D02*
X-18732500Y14696215D01*
X-18732500Y14620904D02*
X-17357696Y13246100D01*
X-17357696Y13246100D02*
X-17357696Y-57851704D01*
D29*
X-18732500Y14696215D02*
X-18732500Y14620904D01*
D31*
X-23638373Y14130601D02*
X-23072759Y14696215D01*
D27*
X-17357696Y-57851704D02*
X-11709400Y-63500000D01*
X-8822081Y-63500000D02*
X-7620000Y-63500000D01*
X-11709400Y-63500000D02*
X-8822081Y-63500000D01*
X-5080000Y-63500000D02*
X-7620000Y-63500000D01*
D29*
X-31314000Y6830091D02*
X-31475903Y6668188D01*
X-31314000Y7798000D02*
X-31314000Y6830091D01*
D27*
X-36830000Y-34015000D02*
X-36830000Y-29210000D01*
X-36830000Y-29210000D02*
X-35560000Y-27940000D01*
X-35560000Y-62865000D02*
X-33020000Y-62865000D01*
X-36830000Y-56515000D02*
X-36830000Y-61595000D01*
X-36830000Y-61595000D02*
X-35560000Y-62865000D01*
X-25984200Y-60909200D02*
X-26035000Y-60858400D01*
X-26035000Y-60858400D02*
X-26035000Y-56515000D01*
X-27940000Y-62865000D02*
X-25984200Y-60909200D01*
X-30480000Y-62865000D02*
X-27940000Y-62865000D01*
X-27940000Y-27940000D02*
X-27940000Y-24983400D01*
X-27940000Y-24983400D02*
X-27955200Y-24968200D01*
D29*
X-5588000Y26772941D02*
X-5588000Y30013027D01*
X-5588000Y30013027D02*
X-5588000Y30480000D01*
X41926595Y-19066595D02*
X40251536Y-19066595D01*
X43180000Y-20320000D02*
X41926595Y-19066595D01*
X40251536Y-19066595D02*
X-5588000Y26772941D01*
X-25400000Y42532300D02*
X-24160918Y41293218D01*
X-24160918Y41293218D02*
X-24160918Y38320518D01*
X-24160918Y38320518D02*
X-23558500Y37718100D01*
X-23558500Y37718100D02*
X-23558500Y36614100D01*
X-5080000Y-35560000D02*
X-726327Y-31206327D01*
X-726327Y-31206327D02*
X-726327Y12715253D01*
X-726327Y12715253D02*
X-15283341Y27272267D01*
X-15283341Y27272267D02*
X-16794674Y27272267D01*
X-16794674Y27272267D02*
X-17124873Y27602466D01*
X101610Y-45339010D02*
X152401Y-45389801D01*
X90237Y-41708231D02*
X101610Y-41719604D01*
X101610Y13036818D02*
X101610Y-28255401D01*
X-15802221Y28940649D02*
X101610Y13036818D01*
X-30705949Y28940649D02*
X-15802221Y28940649D01*
X-40640000Y39992300D02*
X-40640000Y38874700D01*
X90237Y-28266774D02*
X90237Y-41708231D01*
X101610Y-41719604D02*
X101610Y-45339010D01*
X101610Y-28255401D02*
X90237Y-28266774D01*
X-40640000Y38874700D02*
X-30705949Y28940649D01*
X152401Y-45389801D02*
X482600Y-45720000D01*
X-39348889Y41241189D02*
X-39776401Y41668701D01*
X-39348889Y38601476D02*
X-39348889Y41241189D01*
X-15633881Y29347060D02*
X-30094473Y29347060D01*
X508021Y13205158D02*
X-15633881Y29347060D01*
X508021Y-28423741D02*
X508021Y13205158D01*
X496648Y-41539891D02*
X496648Y-28435114D01*
X508021Y-41551264D02*
X496648Y-41539891D01*
X508021Y-43764221D02*
X508021Y-41551264D01*
X496648Y-28435114D02*
X508021Y-28423741D01*
X1053201Y-44309401D02*
X508021Y-43764221D01*
X-30094473Y29347060D02*
X-39348889Y38601476D01*
X-39776401Y41668701D02*
X-40640000Y42532300D01*
X1117623Y-42713027D02*
X1117623Y-43180000D01*
X-35560000Y39992300D02*
X-35560000Y37049575D01*
X-35560000Y37049575D02*
X-28263896Y29753471D01*
X914432Y-28592081D02*
X903059Y-28603454D01*
X1117623Y-41586115D02*
X1117623Y-42713027D01*
X914432Y13373498D02*
X914432Y-28592081D01*
X-28263896Y29753471D02*
X-15465541Y29753471D01*
X903059Y-41371551D02*
X1117623Y-41586115D01*
X-15465541Y29753471D02*
X914432Y13373498D01*
X903059Y-28603454D02*
X903059Y-41371551D01*
X1309470Y-28771794D02*
X1309470Y-41203211D01*
X1309470Y-41203211D02*
X1730884Y-41624625D01*
X1730884Y-41624625D02*
X1730884Y-47763959D01*
X1320843Y13541838D02*
X1320843Y-28760421D01*
X1320843Y-28760421D02*
X1309470Y-28771794D01*
X-15297201Y30159882D02*
X1320843Y13541838D01*
X-28095556Y30159882D02*
X-15297201Y30159882D01*
X-30833967Y32898293D02*
X-28095556Y30159882D01*
X-30833967Y34174590D02*
X-30833967Y32898293D01*
X-34283509Y37624132D02*
X-30833967Y34174590D01*
X-35560000Y42532300D02*
X-34283509Y41255809D01*
X1730884Y-47763959D02*
X1730884Y-48230932D01*
X-34283509Y41255809D02*
X-34283509Y37624132D01*
X1715881Y-41034871D02*
X2456731Y-41775721D01*
X1727254Y-28928761D02*
X1715881Y-28940134D01*
X-30427556Y34342930D02*
X-30427556Y33066633D01*
X-33020000Y39992300D02*
X-33020000Y36935374D01*
X-33020000Y36935374D02*
X-30427556Y34342930D01*
X-30427556Y33066633D02*
X-27927216Y30566293D01*
X-27927216Y30566293D02*
X-15128861Y30566293D01*
X-15128861Y30566293D02*
X1727254Y13710178D01*
X1727254Y13710178D02*
X1727254Y-28928761D01*
X1715881Y-28940134D02*
X1715881Y-41034871D01*
X2456731Y-41775721D02*
X2456731Y-42242694D01*
X-33020000Y42532300D02*
X-31746619Y41258919D01*
X-31746619Y41258919D02*
X-31746619Y36236744D01*
X-31746619Y36236744D02*
X-30021145Y34511270D01*
X-30021145Y34511270D02*
X-30021145Y33234973D01*
X-30021145Y33234973D02*
X-27758876Y30972704D01*
X-27758876Y30972704D02*
X-14960521Y30972704D01*
X-14960521Y30972704D02*
X2133665Y13878518D01*
X2133665Y13878518D02*
X2133665Y-29053095D01*
X2133665Y-29053095D02*
X2313313Y-29232743D01*
X2313313Y-29232743D02*
X2325482Y-29232743D01*
X2540076Y-27453004D02*
X2970176Y-27883104D01*
X-29614734Y33403313D02*
X-27590536Y31379115D01*
X-27590536Y31379115D02*
X-14792181Y31379115D01*
X2540076Y14046858D02*
X2540076Y-27453004D01*
X2970176Y-32571938D02*
X2970176Y-33038911D01*
X-30480000Y39992300D02*
X-29614734Y39127034D01*
X2970176Y-27883104D02*
X2970176Y-32571938D01*
X-29614734Y39127034D02*
X-29614734Y33403313D01*
X-14792181Y31379115D02*
X2540076Y14046858D01*
X3645027Y-31286506D02*
X3645027Y-31753479D01*
X2946487Y-27284664D02*
X3645027Y-27983204D01*
X3645027Y-27983204D02*
X3645027Y-31286506D01*
X2946487Y14215198D02*
X2946487Y-27284664D01*
X-14623841Y31785526D02*
X2946487Y14215198D01*
X-27422196Y31785526D02*
X-14623841Y31785526D01*
X-29208323Y41260623D02*
X-29208323Y33571653D01*
X-29208323Y33571653D02*
X-27422196Y31785526D01*
X-30480000Y42532300D02*
X-29208323Y41260623D01*
X-6604000Y29718000D02*
X-6604000Y27214190D01*
X-6604000Y27214190D02*
X39790001Y-19179811D01*
X39790001Y-19179811D02*
X39790001Y-19470001D01*
X39790001Y-19470001D02*
X40640000Y-20320000D01*
X-27114500Y36614100D02*
X-27114500Y36998964D01*
X-27114500Y36998964D02*
X-25400000Y38713464D01*
X-25400000Y38713464D02*
X-25400000Y38770986D01*
X-25400000Y38770986D02*
X-25400000Y39992300D01*
X-25400000Y39992300D02*
X-25400000Y39624000D01*
X39539692Y-17780000D02*
X-4893416Y26653108D01*
X-4893416Y26653108D02*
X-4893416Y31684597D01*
X-4893416Y31684597D02*
X-5223615Y32014796D01*
X40640000Y-17780000D02*
X39539692Y-17780000D01*
X43180000Y-17780000D02*
X41926887Y-16526887D01*
X38861330Y-16526887D02*
X-3816461Y26150904D01*
X-3816461Y31871190D02*
X-4245442Y32300171D01*
X-4245442Y32300171D02*
X-4575641Y32630370D01*
X-3816461Y26150904D02*
X-3816461Y31871190D01*
X41926887Y-16526887D02*
X38861330Y-16526887D01*
X-4756642Y33278342D02*
X-5223615Y33278342D01*
X40640000Y-15240000D02*
X38149194Y-15240000D01*
X-4256605Y33278342D02*
X-4756642Y33278342D01*
X-3410050Y32431787D02*
X-4256605Y33278342D01*
X38149194Y-15240000D02*
X-3410050Y26319244D01*
X-3410050Y26319244D02*
X-3410050Y32431787D01*
X-4297431Y33926317D02*
X-4608040Y33926317D01*
X-3003639Y32632525D02*
X-4297431Y33926317D01*
X-3003639Y26487584D02*
X-3003639Y32632525D01*
X37440239Y-13956294D02*
X-3003639Y26487584D01*
X41896294Y-13956294D02*
X37440239Y-13956294D01*
X43180000Y-15240000D02*
X41896294Y-13956294D01*
X-4724243Y34574291D02*
X-5191216Y34574291D01*
X-4370654Y34574291D02*
X-4724243Y34574291D01*
X-2597228Y32800865D02*
X-4370654Y34574291D01*
X36758696Y-12700000D02*
X-2597228Y26655924D01*
X40640000Y-12700000D02*
X36758696Y-12700000D01*
X-2597228Y26655924D02*
X-2597228Y32800865D01*
X-4132372Y35223208D02*
X-4202385Y35223208D01*
X43180000Y-12700000D02*
X41503600Y-11023600D01*
X41503600Y-11023600D02*
X35687000Y-11023600D01*
X35687000Y-11023600D02*
X-2190817Y26854217D01*
X-2190817Y26854217D02*
X-2190817Y33281653D01*
X-2190817Y33281653D02*
X-4132372Y35223208D01*
X-4202385Y35223208D02*
X-4669358Y35223208D01*
X-12700000Y39992300D02*
X-12700000Y30436435D01*
X-12700000Y30436435D02*
X37461317Y-19724882D01*
X37461317Y-19724882D02*
X37461317Y-24736107D01*
X37461317Y-24736107D02*
X39790001Y-27064791D01*
X39790001Y-27064791D02*
X39790001Y-27090001D01*
X39790001Y-27090001D02*
X40640000Y-27940000D01*
X-11405138Y41237438D02*
X-11405138Y29716324D01*
X-11405138Y29716324D02*
X37867728Y-19556542D01*
X41891216Y-26651216D02*
X42330001Y-27090001D01*
X42330001Y-27090001D02*
X43180000Y-27940000D01*
X37867728Y-24537034D02*
X39981910Y-26651216D01*
X39981910Y-26651216D02*
X41891216Y-26651216D01*
X37867728Y-19556542D02*
X37867728Y-24537034D01*
X-12700000Y42532300D02*
X-11405138Y41237438D01*
X39437919Y-25400000D02*
X40640000Y-25400000D01*
X39305445Y-25400000D02*
X39437919Y-25400000D01*
X-10160000Y29045937D02*
X38274139Y-19388202D01*
X38274139Y-24368694D02*
X39305445Y-25400000D01*
X38274139Y-19388202D02*
X38274139Y-24368694D01*
X-10160000Y39992300D02*
X-10160000Y29045937D01*
X43180000Y-25400000D02*
X41906205Y-24126205D01*
X41906205Y-24126205D02*
X39476855Y-24126205D01*
X39476855Y-24126205D02*
X38680550Y-23329900D01*
X38680550Y-23329900D02*
X38680550Y-19219862D01*
X38680550Y-19219862D02*
X-8888180Y28348868D01*
X-8888180Y28348868D02*
X-8888180Y41260480D01*
X-8888180Y41260480D02*
X-10160000Y42532300D01*
X39086961Y-21306961D02*
X39790001Y-22010001D01*
X39790001Y-22010001D02*
X40640000Y-22860000D01*
X39086961Y-19051522D02*
X39086961Y-21306961D01*
X-7620000Y27655439D02*
X39086961Y-19051522D01*
X-7620000Y39992300D02*
X-7620000Y27655439D01*
X-18410213Y28253968D02*
X-18877186Y28253968D01*
X-15690291Y28253968D02*
X-18410213Y28253968D01*
X-319916Y12883593D02*
X-15690291Y28253968D01*
X-319916Y-46588943D02*
X-319916Y12883593D01*
X-508000Y-46777027D02*
X-319916Y-46588943D01*
X-508000Y-47244000D02*
X-508000Y-46777027D01*
X-7620000Y-66040000D02*
X-10763315Y-66040000D01*
X-10763315Y-66040000D02*
X-18233057Y-58570258D01*
X-18233057Y-58570258D02*
X-18233057Y12024961D01*
X-18233057Y12024961D02*
X-18499525Y12291429D01*
X-18499525Y12291429D02*
X-18499525Y12758402D01*
X-7620000Y-66040000D02*
X-5080000Y-66040000D01*
X-32740600Y21463000D02*
X-33070800Y21793200D01*
X-31151000Y21463000D02*
X-32740600Y21463000D01*
X-34260000Y7112000D02*
X-34864000Y7112000D01*
X-33693400Y7112000D02*
X-34260000Y7112000D01*
X-32007400Y8798000D02*
X-33693400Y7112000D01*
X-31314000Y8798000D02*
X-32007400Y8798000D01*
D32*
G36*
X-26746200Y9372600D02*
X-28880922Y9372600D01*
X-28880922Y9423000D01*
X-28896862Y9507714D01*
X-28946928Y9585518D01*
X-29023320Y9637715D01*
X-29114000Y9656078D01*
X-29743400Y9656078D01*
X-29743400Y10330295D01*
X-29742155Y10336555D01*
X-29735895Y10337800D01*
X-26746200Y10337800D01*
X-26746200Y9372600D01*
X-26746200Y9372600D01*
G37*
X-26746200Y9372600D02*
X-28880922Y9372600D01*
X-28880922Y9423000D01*
X-28896862Y9507714D01*
X-28946928Y9585518D01*
X-29023320Y9637715D01*
X-29114000Y9656078D01*
X-29743400Y9656078D01*
X-29743400Y10330295D01*
X-29742155Y10336555D01*
X-29735895Y10337800D01*
X-26746200Y10337800D01*
X-26746200Y9372600D01*
G36*
X-32207200Y9677400D02*
X-32191566Y9594314D01*
X-32142462Y9518004D01*
X-32067538Y9466810D01*
X-31978600Y9448800D01*
X-31707841Y9448800D01*
X-31664000Y9439922D01*
X-31038800Y9439922D01*
X-31038800Y9156078D01*
X-31664000Y9156078D01*
X-31677169Y9153600D01*
X-32007400Y9153600D01*
X-32143483Y9126532D01*
X-32258847Y9049447D01*
X-32723094Y8585200D01*
X-41325800Y8585200D01*
X-41325800Y10845800D01*
X-32207200Y10845800D01*
X-32207200Y9677400D01*
X-32207200Y9677400D01*
G37*
X-32207200Y9677400D02*
X-32191566Y9594314D01*
X-32142462Y9518004D01*
X-32067538Y9466810D01*
X-31978600Y9448800D01*
X-31707841Y9448800D01*
X-31664000Y9439922D01*
X-31038800Y9439922D01*
X-31038800Y9156078D01*
X-31664000Y9156078D01*
X-31677169Y9153600D01*
X-32007400Y9153600D01*
X-32143483Y9126532D01*
X-32258847Y9049447D01*
X-32723094Y8585200D01*
X-41325800Y8585200D01*
X-41325800Y10845800D01*
X-32207200Y10845800D01*
X-32207200Y9677400D01*
G36*
X-31014133Y9753600D02*
X-31902400Y9753600D01*
X-31902400Y12446000D01*
X-31908403Y12475646D01*
X-31925468Y12500621D01*
X-31950905Y12516989D01*
X-31978600Y12522200D01*
X-41325800Y12522200D01*
X-41325800Y14909800D01*
X-31063475Y14909800D01*
X-31014133Y9753600D01*
X-31014133Y9753600D01*
G37*
X-31014133Y9753600D02*
X-31902400Y9753600D01*
X-31902400Y12446000D01*
X-31908403Y12475646D01*
X-31925468Y12500621D01*
X-31950905Y12516989D01*
X-31978600Y12522200D01*
X-41325800Y12522200D01*
X-41325800Y14909800D01*
X-31063475Y14909800D01*
X-31014133Y9753600D01*
G36*
X-20142200Y12522200D02*
X-20497800Y12522200D01*
X-20497800Y13462000D01*
X-20503011Y13489695D01*
X-20519379Y13515132D01*
X-20544354Y13532197D01*
X-20574000Y13538200D01*
X-26670000Y13538200D01*
X-26697695Y13532989D01*
X-26723132Y13516621D01*
X-26740197Y13491646D01*
X-26746200Y13462000D01*
X-26746200Y12522200D01*
X-29641800Y12522200D01*
X-29641800Y14909800D01*
X-20142200Y14909800D01*
X-20142200Y12522200D01*
X-20142200Y12522200D01*
G37*
X-20142200Y12522200D02*
X-20497800Y12522200D01*
X-20497800Y13462000D01*
X-20503011Y13489695D01*
X-20519379Y13515132D01*
X-20544354Y13532197D01*
X-20574000Y13538200D01*
X-26670000Y13538200D01*
X-26697695Y13532989D01*
X-26723132Y13516621D01*
X-26740197Y13491646D01*
X-26746200Y13462000D01*
X-26746200Y12522200D01*
X-29641800Y12522200D01*
X-29641800Y14909800D01*
X-20142200Y14909800D01*
X-20142200Y12522200D01*
G36*
X-29894956Y22304487D02*
X-29892492Y22268460D01*
X-29888968Y22244717D01*
X-29867303Y22176031D01*
X-29856567Y22154563D01*
X-29814627Y22096045D01*
X-29797747Y22078981D01*
X-29739673Y22036401D01*
X-29718321Y22025434D01*
X-29649878Y22003033D01*
X-29626175Y21999253D01*
X-29590174Y21996400D01*
X-27301700Y21996400D01*
X-27290638Y21932786D01*
X-27240572Y21854982D01*
X-27164180Y21802785D01*
X-27163838Y21802716D01*
X-26038811Y20677689D01*
X-25964680Y20627785D01*
X-25874000Y20609422D01*
X-21624000Y20609422D01*
X-21536294Y20626553D01*
X-21459189Y20677689D01*
X-20329109Y21807769D01*
X-20264380Y21848127D01*
X-20211100Y21923767D01*
X-20191446Y22014176D01*
X-20203422Y22077980D01*
X-20203422Y23037800D01*
X-18041506Y23037800D01*
X-17966529Y23022886D01*
X-17909332Y22984668D01*
X-17871114Y22927471D01*
X-17856200Y22852494D01*
X-17856200Y14786314D01*
X-18059993Y14990107D01*
X-18211645Y15217070D01*
X-18450615Y15376745D01*
X-18732500Y15432815D01*
X-23072759Y15432815D01*
X-23354644Y15376745D01*
X-23593614Y15217070D01*
X-23595264Y15214600D01*
X-29718000Y15214600D01*
X-29801086Y15198966D01*
X-29877396Y15149862D01*
X-29928590Y15074938D01*
X-29946600Y14986000D01*
X-29946600Y14805775D01*
X-29948715Y14802680D01*
X-29967078Y14712000D01*
X-29967078Y12212000D01*
X-29951138Y12127286D01*
X-29901072Y12049482D01*
X-29824680Y11997285D01*
X-29734000Y11978922D01*
X-27734000Y11978922D01*
X-27649286Y11994862D01*
X-27571482Y12044928D01*
X-27519285Y12121320D01*
X-27500922Y12212000D01*
X-27500922Y12217400D01*
X-27062063Y12217400D01*
X-27041553Y12203386D01*
X-26950873Y12185023D01*
X-26746200Y12185023D01*
X-26746200Y10675578D01*
X-26934500Y10675578D01*
X-27019214Y10659638D01*
X-27045692Y10642600D01*
X-29743400Y10642600D01*
X-29787996Y10638208D01*
X-29817156Y10632408D01*
X-29899560Y10598276D01*
X-29924282Y10581758D01*
X-29987358Y10518682D01*
X-30003876Y10493960D01*
X-30038008Y10411556D01*
X-30043808Y10382396D01*
X-30048200Y10337800D01*
X-30048200Y9372600D01*
X-30043808Y9328004D01*
X-30038008Y9298844D01*
X-30003876Y9216440D01*
X-29987358Y9191718D01*
X-29924282Y9128642D01*
X-29920503Y9126117D01*
X-29976518Y9090072D01*
X-30028715Y9013680D01*
X-30047078Y8923000D01*
X-30047078Y8673000D01*
X-30031138Y8588286D01*
X-30005239Y8548038D01*
X-30028715Y8513680D01*
X-30047078Y8423000D01*
X-30047078Y8173000D01*
X-30031138Y8088286D01*
X-30005239Y8048038D01*
X-30028715Y8013680D01*
X-30047078Y7923000D01*
X-30047078Y7673000D01*
X-30031138Y7588286D01*
X-29981072Y7510482D01*
X-29904680Y7458285D01*
X-29814000Y7439922D01*
X-29114000Y7439922D01*
X-29100831Y7442400D01*
X-28548078Y7442400D01*
X-28548078Y7208000D01*
X-28532138Y7123286D01*
X-28482072Y7045482D01*
X-28405680Y6993285D01*
X-28315000Y6974922D01*
X-27565000Y6974922D01*
X-27480286Y6990862D01*
X-27402482Y7040928D01*
X-27350285Y7117320D01*
X-27331922Y7208000D01*
X-27331922Y8408000D01*
X-27347862Y8492714D01*
X-27397928Y8570518D01*
X-27474320Y8622715D01*
X-27565000Y8641078D01*
X-28315000Y8641078D01*
X-28399714Y8625138D01*
X-28477518Y8575072D01*
X-28529715Y8498680D01*
X-28548078Y8408000D01*
X-28548078Y8153600D01*
X-28884851Y8153600D01*
X-28880922Y8173000D01*
X-28880922Y8423000D01*
X-28896862Y8507714D01*
X-28922761Y8547962D01*
X-28899285Y8582320D01*
X-28880922Y8673000D01*
X-28880922Y8923000D01*
X-28896862Y9007714D01*
X-28935527Y9067800D01*
X-27001922Y9067800D01*
X-25911811Y7977689D01*
X-25837680Y7927785D01*
X-25747000Y7909422D01*
X-21497000Y7909422D01*
X-21409294Y7926553D01*
X-21332189Y7977689D01*
X-20202109Y9107769D01*
X-20137380Y9148127D01*
X-20084100Y9223767D01*
X-20064446Y9314176D01*
X-20076422Y9377980D01*
X-20076422Y10442500D01*
X-20092362Y10527214D01*
X-20142428Y10605018D01*
X-20218820Y10657215D01*
X-20309500Y10675578D01*
X-20497800Y10675578D01*
X-20497800Y12185023D01*
X-20325873Y12185023D01*
X-20241159Y12200963D01*
X-20215615Y12217400D01*
X-20066000Y12217400D01*
X-19982914Y12233034D01*
X-19906604Y12282138D01*
X-19855410Y12357062D01*
X-19837400Y12446000D01*
X-19837400Y13959615D01*
X-19112921Y13959615D01*
X-18470483Y13317177D01*
X-18610190Y13317299D01*
X-18815647Y13232406D01*
X-18972977Y13075350D01*
X-19058228Y12870042D01*
X-19058422Y12647737D01*
X-18973529Y12442280D01*
X-18855125Y12323669D01*
X-18855125Y12291429D01*
X-18828057Y12155346D01*
X-18750972Y12039982D01*
X-18588657Y11877667D01*
X-18588657Y76200D01*
X-35519886Y76200D01*
X-36047445Y603759D01*
X-36327617Y790964D01*
X-36658102Y856702D01*
X-41129629Y856702D01*
X-42062400Y1789472D01*
X-42062400Y8845800D01*
X-41630600Y8845800D01*
X-41630600Y8509000D01*
X-41614966Y8425914D01*
X-41565862Y8349604D01*
X-41490938Y8298410D01*
X-41402000Y8280400D01*
X-33027894Y8280400D01*
X-33359216Y7949078D01*
X-33924000Y7949078D01*
X-34008714Y7933138D01*
X-34086518Y7883072D01*
X-34138715Y7806680D01*
X-34157078Y7716000D01*
X-34157078Y7467600D01*
X-34280922Y7467600D01*
X-34280922Y7762000D01*
X-34296862Y7846714D01*
X-34346928Y7924518D01*
X-34423320Y7976715D01*
X-34514000Y7995078D01*
X-35214000Y7995078D01*
X-35298714Y7979138D01*
X-35376518Y7929072D01*
X-35428715Y7852680D01*
X-35447078Y7762000D01*
X-35447078Y6462000D01*
X-35431138Y6377286D01*
X-35381072Y6299482D01*
X-35304680Y6247285D01*
X-35214000Y6228922D01*
X-34514000Y6228922D01*
X-34429286Y6244862D01*
X-34351482Y6294928D01*
X-34299285Y6371320D01*
X-34280922Y6462000D01*
X-34280922Y6756400D01*
X-33693400Y6756400D01*
X-33560062Y6782922D01*
X-32624000Y6782922D01*
X-32539286Y6798862D01*
X-32520541Y6810924D01*
X-32520541Y6026842D01*
X-32746305Y5801078D01*
X-34509200Y5801078D01*
X-34593914Y5785138D01*
X-34671718Y5735072D01*
X-34723915Y5658680D01*
X-34742278Y5568000D01*
X-34742278Y3068000D01*
X-34726338Y2983286D01*
X-34676272Y2905482D01*
X-34599880Y2853285D01*
X-34509200Y2834922D01*
X-32509200Y2834922D01*
X-32424486Y2850862D01*
X-32346682Y2900928D01*
X-32294485Y2977320D01*
X-32276122Y3068000D01*
X-32276122Y5265473D01*
X-31913494Y5628101D01*
X-31836410Y5743465D01*
X-31836409Y5743466D01*
X-31809341Y5879548D01*
X-31809341Y6211255D01*
X-31792851Y6194736D01*
X-31587543Y6109485D01*
X-31365238Y6109291D01*
X-31159781Y6194184D01*
X-31002451Y6351240D01*
X-30917200Y6556548D01*
X-30917006Y6778853D01*
X-30958400Y6879034D01*
X-30958400Y7440976D01*
X-30879286Y7455862D01*
X-30801482Y7505928D01*
X-30749285Y7582320D01*
X-30730922Y7673000D01*
X-30730922Y7923000D01*
X-30746862Y8007714D01*
X-30772761Y8047962D01*
X-30749285Y8082320D01*
X-30730922Y8173000D01*
X-30730922Y8423000D01*
X-30740792Y8475457D01*
X-30734000Y8509000D01*
X-30734000Y8657800D01*
X-30730922Y8673000D01*
X-30730922Y8923000D01*
X-30734000Y8939358D01*
X-30734000Y9157800D01*
X-30730922Y9173000D01*
X-30730922Y9423000D01*
X-30734000Y9439358D01*
X-30734000Y9578183D01*
X-30725769Y9590481D01*
X-30708610Y9679587D01*
X-30759410Y14988187D01*
X-30775034Y15069086D01*
X-30824138Y15145396D01*
X-30899062Y15196590D01*
X-30988000Y15214600D01*
X-41402000Y15214600D01*
X-41485086Y15198966D01*
X-41561396Y15149862D01*
X-41612590Y15074938D01*
X-41630600Y14986000D01*
X-41630600Y12446000D01*
X-41614966Y12362914D01*
X-41565862Y12286604D01*
X-41490938Y12235410D01*
X-41402000Y12217400D01*
X-33967078Y12217400D01*
X-33967078Y12212000D01*
X-33951138Y12127286D01*
X-33901072Y12049482D01*
X-33824680Y11997285D01*
X-33734000Y11978922D01*
X-32207200Y11978922D01*
X-32207200Y11150600D01*
X-41402000Y11150600D01*
X-41485086Y11134966D01*
X-41561396Y11085862D01*
X-41612590Y11010938D01*
X-41630600Y10922000D01*
X-41630600Y10573000D01*
X-42062400Y10573000D01*
X-42062400Y17768569D01*
X-40202095Y17768569D01*
X-40117202Y17563112D01*
X-39960146Y17405782D01*
X-39754838Y17320531D01*
X-39532533Y17320337D01*
X-39327076Y17405230D01*
X-39169746Y17562286D01*
X-39084495Y17767594D01*
X-39084301Y17989899D01*
X-39169194Y18195356D01*
X-39326250Y18352686D01*
X-39531558Y18437937D01*
X-39753863Y18438131D01*
X-39959320Y18353238D01*
X-40116650Y18196182D01*
X-40201901Y17990874D01*
X-40202095Y17768569D01*
X-42062400Y17768569D01*
X-42062400Y20436639D01*
X-41391638Y21107400D01*
X-32509494Y21107400D01*
X-32829816Y20787078D01*
X-34560000Y20787078D01*
X-34644714Y20771138D01*
X-34722518Y20721072D01*
X-34774715Y20644680D01*
X-34793078Y20554000D01*
X-34793078Y18054000D01*
X-34777138Y17969286D01*
X-34727072Y17891482D01*
X-34650680Y17839285D01*
X-34560000Y17820922D01*
X-32560000Y17820922D01*
X-32475286Y17836862D01*
X-32397482Y17886928D01*
X-32345285Y17963320D01*
X-32326922Y18054000D01*
X-32326922Y20284184D01*
X-32003706Y20607400D01*
X-31730149Y20607400D01*
X-31734078Y20588000D01*
X-31734078Y20338000D01*
X-31718138Y20253286D01*
X-31712041Y20243812D01*
X-31809865Y20243897D01*
X-32015322Y20159004D01*
X-32172652Y20001948D01*
X-32257903Y19796640D01*
X-32258097Y19574335D01*
X-32173204Y19368878D01*
X-32016148Y19211548D01*
X-31810840Y19126297D01*
X-31588535Y19126103D01*
X-31383078Y19210996D01*
X-31225748Y19368052D01*
X-31140497Y19573360D01*
X-31140481Y19591625D01*
X-30899553Y19832553D01*
X-30822468Y19947917D01*
X-30795400Y20084000D01*
X-30795400Y20105976D01*
X-30716286Y20120862D01*
X-30638482Y20170928D01*
X-30586285Y20247320D01*
X-30567922Y20338000D01*
X-30567922Y20588000D01*
X-30583862Y20672714D01*
X-30609761Y20712962D01*
X-30586285Y20747320D01*
X-30567922Y20838000D01*
X-30567922Y21088000D01*
X-30582765Y21166886D01*
X-30574604Y21172138D01*
X-30523410Y21247062D01*
X-30505400Y21336000D01*
X-30505400Y21588000D01*
X-29884078Y21588000D01*
X-29884078Y21338000D01*
X-29868138Y21253286D01*
X-29842239Y21213038D01*
X-29865715Y21178680D01*
X-29884078Y21088000D01*
X-29884078Y20838000D01*
X-29868138Y20753286D01*
X-29842239Y20713038D01*
X-29865715Y20678680D01*
X-29884078Y20588000D01*
X-29884078Y20338000D01*
X-29868138Y20253286D01*
X-29818072Y20175482D01*
X-29741680Y20123285D01*
X-29651000Y20104922D01*
X-28951000Y20104922D01*
X-28937831Y20107400D01*
X-28294078Y20107400D01*
X-28294078Y19908000D01*
X-28278138Y19823286D01*
X-28228072Y19745482D01*
X-28151680Y19693285D01*
X-28061000Y19674922D01*
X-27311000Y19674922D01*
X-27226286Y19690862D01*
X-27148482Y19740928D01*
X-27096285Y19817320D01*
X-27077922Y19908000D01*
X-27077922Y21108000D01*
X-27093862Y21192714D01*
X-27143928Y21270518D01*
X-27220320Y21322715D01*
X-27311000Y21341078D01*
X-28061000Y21341078D01*
X-28145714Y21325138D01*
X-28223518Y21275072D01*
X-28275715Y21198680D01*
X-28294078Y21108000D01*
X-28294078Y20818600D01*
X-28721851Y20818600D01*
X-28717922Y20838000D01*
X-28717922Y21088000D01*
X-28733862Y21172714D01*
X-28759761Y21212962D01*
X-28736285Y21247320D01*
X-28717922Y21338000D01*
X-28717922Y21588000D01*
X-28733862Y21672714D01*
X-28783928Y21750518D01*
X-28860320Y21802715D01*
X-28951000Y21821078D01*
X-29651000Y21821078D01*
X-29735714Y21805138D01*
X-29813518Y21755072D01*
X-29865715Y21678680D01*
X-29884078Y21588000D01*
X-30505400Y21588000D01*
X-30505400Y22296871D01*
X-30499362Y22326870D01*
X-30500203Y23037800D01*
X-29887048Y23037800D01*
X-29894956Y22304487D01*
X-29894956Y22304487D01*
G37*
X-29894956Y22304487D02*
X-29892492Y22268460D01*
X-29888968Y22244717D01*
X-29867303Y22176031D01*
X-29856567Y22154563D01*
X-29814627Y22096045D01*
X-29797747Y22078981D01*
X-29739673Y22036401D01*
X-29718321Y22025434D01*
X-29649878Y22003033D01*
X-29626175Y21999253D01*
X-29590174Y21996400D01*
X-27301700Y21996400D01*
X-27290638Y21932786D01*
X-27240572Y21854982D01*
X-27164180Y21802785D01*
X-27163838Y21802716D01*
X-26038811Y20677689D01*
X-25964680Y20627785D01*
X-25874000Y20609422D01*
X-21624000Y20609422D01*
X-21536294Y20626553D01*
X-21459189Y20677689D01*
X-20329109Y21807769D01*
X-20264380Y21848127D01*
X-20211100Y21923767D01*
X-20191446Y22014176D01*
X-20203422Y22077980D01*
X-20203422Y23037800D01*
X-18041506Y23037800D01*
X-17966529Y23022886D01*
X-17909332Y22984668D01*
X-17871114Y22927471D01*
X-17856200Y22852494D01*
X-17856200Y14786314D01*
X-18059993Y14990107D01*
X-18211645Y15217070D01*
X-18450615Y15376745D01*
X-18732500Y15432815D01*
X-23072759Y15432815D01*
X-23354644Y15376745D01*
X-23593614Y15217070D01*
X-23595264Y15214600D01*
X-29718000Y15214600D01*
X-29801086Y15198966D01*
X-29877396Y15149862D01*
X-29928590Y15074938D01*
X-29946600Y14986000D01*
X-29946600Y14805775D01*
X-29948715Y14802680D01*
X-29967078Y14712000D01*
X-29967078Y12212000D01*
X-29951138Y12127286D01*
X-29901072Y12049482D01*
X-29824680Y11997285D01*
X-29734000Y11978922D01*
X-27734000Y11978922D01*
X-27649286Y11994862D01*
X-27571482Y12044928D01*
X-27519285Y12121320D01*
X-27500922Y12212000D01*
X-27500922Y12217400D01*
X-27062063Y12217400D01*
X-27041553Y12203386D01*
X-26950873Y12185023D01*
X-26746200Y12185023D01*
X-26746200Y10675578D01*
X-26934500Y10675578D01*
X-27019214Y10659638D01*
X-27045692Y10642600D01*
X-29743400Y10642600D01*
X-29787996Y10638208D01*
X-29817156Y10632408D01*
X-29899560Y10598276D01*
X-29924282Y10581758D01*
X-29987358Y10518682D01*
X-30003876Y10493960D01*
X-30038008Y10411556D01*
X-30043808Y10382396D01*
X-30048200Y10337800D01*
X-30048200Y9372600D01*
X-30043808Y9328004D01*
X-30038008Y9298844D01*
X-30003876Y9216440D01*
X-29987358Y9191718D01*
X-29924282Y9128642D01*
X-29920503Y9126117D01*
X-29976518Y9090072D01*
X-30028715Y9013680D01*
X-30047078Y8923000D01*
X-30047078Y8673000D01*
X-30031138Y8588286D01*
X-30005239Y8548038D01*
X-30028715Y8513680D01*
X-30047078Y8423000D01*
X-30047078Y8173000D01*
X-30031138Y8088286D01*
X-30005239Y8048038D01*
X-30028715Y8013680D01*
X-30047078Y7923000D01*
X-30047078Y7673000D01*
X-30031138Y7588286D01*
X-29981072Y7510482D01*
X-29904680Y7458285D01*
X-29814000Y7439922D01*
X-29114000Y7439922D01*
X-29100831Y7442400D01*
X-28548078Y7442400D01*
X-28548078Y7208000D01*
X-28532138Y7123286D01*
X-28482072Y7045482D01*
X-28405680Y6993285D01*
X-28315000Y6974922D01*
X-27565000Y6974922D01*
X-27480286Y6990862D01*
X-27402482Y7040928D01*
X-27350285Y7117320D01*
X-27331922Y7208000D01*
X-27331922Y8408000D01*
X-27347862Y8492714D01*
X-27397928Y8570518D01*
X-27474320Y8622715D01*
X-27565000Y8641078D01*
X-28315000Y8641078D01*
X-28399714Y8625138D01*
X-28477518Y8575072D01*
X-28529715Y8498680D01*
X-28548078Y8408000D01*
X-28548078Y8153600D01*
X-28884851Y8153600D01*
X-28880922Y8173000D01*
X-28880922Y8423000D01*
X-28896862Y8507714D01*
X-28922761Y8547962D01*
X-28899285Y8582320D01*
X-28880922Y8673000D01*
X-28880922Y8923000D01*
X-28896862Y9007714D01*
X-28935527Y9067800D01*
X-27001922Y9067800D01*
X-25911811Y7977689D01*
X-25837680Y7927785D01*
X-25747000Y7909422D01*
X-21497000Y7909422D01*
X-21409294Y7926553D01*
X-21332189Y7977689D01*
X-20202109Y9107769D01*
X-20137380Y9148127D01*
X-20084100Y9223767D01*
X-20064446Y9314176D01*
X-20076422Y9377980D01*
X-20076422Y10442500D01*
X-20092362Y10527214D01*
X-20142428Y10605018D01*
X-20218820Y10657215D01*
X-20309500Y10675578D01*
X-20497800Y10675578D01*
X-20497800Y12185023D01*
X-20325873Y12185023D01*
X-20241159Y12200963D01*
X-20215615Y12217400D01*
X-20066000Y12217400D01*
X-19982914Y12233034D01*
X-19906604Y12282138D01*
X-19855410Y12357062D01*
X-19837400Y12446000D01*
X-19837400Y13959615D01*
X-19112921Y13959615D01*
X-18470483Y13317177D01*
X-18610190Y13317299D01*
X-18815647Y13232406D01*
X-18972977Y13075350D01*
X-19058228Y12870042D01*
X-19058422Y12647737D01*
X-18973529Y12442280D01*
X-18855125Y12323669D01*
X-18855125Y12291429D01*
X-18828057Y12155346D01*
X-18750972Y12039982D01*
X-18588657Y11877667D01*
X-18588657Y76200D01*
X-35519886Y76200D01*
X-36047445Y603759D01*
X-36327617Y790964D01*
X-36658102Y856702D01*
X-41129629Y856702D01*
X-42062400Y1789472D01*
X-42062400Y8845800D01*
X-41630600Y8845800D01*
X-41630600Y8509000D01*
X-41614966Y8425914D01*
X-41565862Y8349604D01*
X-41490938Y8298410D01*
X-41402000Y8280400D01*
X-33027894Y8280400D01*
X-33359216Y7949078D01*
X-33924000Y7949078D01*
X-34008714Y7933138D01*
X-34086518Y7883072D01*
X-34138715Y7806680D01*
X-34157078Y7716000D01*
X-34157078Y7467600D01*
X-34280922Y7467600D01*
X-34280922Y7762000D01*
X-34296862Y7846714D01*
X-34346928Y7924518D01*
X-34423320Y7976715D01*
X-34514000Y7995078D01*
X-35214000Y7995078D01*
X-35298714Y7979138D01*
X-35376518Y7929072D01*
X-35428715Y7852680D01*
X-35447078Y7762000D01*
X-35447078Y6462000D01*
X-35431138Y6377286D01*
X-35381072Y6299482D01*
X-35304680Y6247285D01*
X-35214000Y6228922D01*
X-34514000Y6228922D01*
X-34429286Y6244862D01*
X-34351482Y6294928D01*
X-34299285Y6371320D01*
X-34280922Y6462000D01*
X-34280922Y6756400D01*
X-33693400Y6756400D01*
X-33560062Y6782922D01*
X-32624000Y6782922D01*
X-32539286Y6798862D01*
X-32520541Y6810924D01*
X-32520541Y6026842D01*
X-32746305Y5801078D01*
X-34509200Y5801078D01*
X-34593914Y5785138D01*
X-34671718Y5735072D01*
X-34723915Y5658680D01*
X-34742278Y5568000D01*
X-34742278Y3068000D01*
X-34726338Y2983286D01*
X-34676272Y2905482D01*
X-34599880Y2853285D01*
X-34509200Y2834922D01*
X-32509200Y2834922D01*
X-32424486Y2850862D01*
X-32346682Y2900928D01*
X-32294485Y2977320D01*
X-32276122Y3068000D01*
X-32276122Y5265473D01*
X-31913494Y5628101D01*
X-31836410Y5743465D01*
X-31836409Y5743466D01*
X-31809341Y5879548D01*
X-31809341Y6211255D01*
X-31792851Y6194736D01*
X-31587543Y6109485D01*
X-31365238Y6109291D01*
X-31159781Y6194184D01*
X-31002451Y6351240D01*
X-30917200Y6556548D01*
X-30917006Y6778853D01*
X-30958400Y6879034D01*
X-30958400Y7440976D01*
X-30879286Y7455862D01*
X-30801482Y7505928D01*
X-30749285Y7582320D01*
X-30730922Y7673000D01*
X-30730922Y7923000D01*
X-30746862Y8007714D01*
X-30772761Y8047962D01*
X-30749285Y8082320D01*
X-30730922Y8173000D01*
X-30730922Y8423000D01*
X-30740792Y8475457D01*
X-30734000Y8509000D01*
X-30734000Y8657800D01*
X-30730922Y8673000D01*
X-30730922Y8923000D01*
X-30734000Y8939358D01*
X-30734000Y9157800D01*
X-30730922Y9173000D01*
X-30730922Y9423000D01*
X-30734000Y9439358D01*
X-30734000Y9578183D01*
X-30725769Y9590481D01*
X-30708610Y9679587D01*
X-30759410Y14988187D01*
X-30775034Y15069086D01*
X-30824138Y15145396D01*
X-30899062Y15196590D01*
X-30988000Y15214600D01*
X-41402000Y15214600D01*
X-41485086Y15198966D01*
X-41561396Y15149862D01*
X-41612590Y15074938D01*
X-41630600Y14986000D01*
X-41630600Y12446000D01*
X-41614966Y12362914D01*
X-41565862Y12286604D01*
X-41490938Y12235410D01*
X-41402000Y12217400D01*
X-33967078Y12217400D01*
X-33967078Y12212000D01*
X-33951138Y12127286D01*
X-33901072Y12049482D01*
X-33824680Y11997285D01*
X-33734000Y11978922D01*
X-32207200Y11978922D01*
X-32207200Y11150600D01*
X-41402000Y11150600D01*
X-41485086Y11134966D01*
X-41561396Y11085862D01*
X-41612590Y11010938D01*
X-41630600Y10922000D01*
X-41630600Y10573000D01*
X-42062400Y10573000D01*
X-42062400Y17768569D01*
X-40202095Y17768569D01*
X-40117202Y17563112D01*
X-39960146Y17405782D01*
X-39754838Y17320531D01*
X-39532533Y17320337D01*
X-39327076Y17405230D01*
X-39169746Y17562286D01*
X-39084495Y17767594D01*
X-39084301Y17989899D01*
X-39169194Y18195356D01*
X-39326250Y18352686D01*
X-39531558Y18437937D01*
X-39753863Y18438131D01*
X-39959320Y18353238D01*
X-40116650Y18196182D01*
X-40201901Y17990874D01*
X-40202095Y17768569D01*
X-42062400Y17768569D01*
X-42062400Y20436639D01*
X-41391638Y21107400D01*
X-32509494Y21107400D01*
X-32829816Y20787078D01*
X-34560000Y20787078D01*
X-34644714Y20771138D01*
X-34722518Y20721072D01*
X-34774715Y20644680D01*
X-34793078Y20554000D01*
X-34793078Y18054000D01*
X-34777138Y17969286D01*
X-34727072Y17891482D01*
X-34650680Y17839285D01*
X-34560000Y17820922D01*
X-32560000Y17820922D01*
X-32475286Y17836862D01*
X-32397482Y17886928D01*
X-32345285Y17963320D01*
X-32326922Y18054000D01*
X-32326922Y20284184D01*
X-32003706Y20607400D01*
X-31730149Y20607400D01*
X-31734078Y20588000D01*
X-31734078Y20338000D01*
X-31718138Y20253286D01*
X-31712041Y20243812D01*
X-31809865Y20243897D01*
X-32015322Y20159004D01*
X-32172652Y20001948D01*
X-32257903Y19796640D01*
X-32258097Y19574335D01*
X-32173204Y19368878D01*
X-32016148Y19211548D01*
X-31810840Y19126297D01*
X-31588535Y19126103D01*
X-31383078Y19210996D01*
X-31225748Y19368052D01*
X-31140497Y19573360D01*
X-31140481Y19591625D01*
X-30899553Y19832553D01*
X-30822468Y19947917D01*
X-30795400Y20084000D01*
X-30795400Y20105976D01*
X-30716286Y20120862D01*
X-30638482Y20170928D01*
X-30586285Y20247320D01*
X-30567922Y20338000D01*
X-30567922Y20588000D01*
X-30583862Y20672714D01*
X-30609761Y20712962D01*
X-30586285Y20747320D01*
X-30567922Y20838000D01*
X-30567922Y21088000D01*
X-30582765Y21166886D01*
X-30574604Y21172138D01*
X-30523410Y21247062D01*
X-30505400Y21336000D01*
X-30505400Y21588000D01*
X-29884078Y21588000D01*
X-29884078Y21338000D01*
X-29868138Y21253286D01*
X-29842239Y21213038D01*
X-29865715Y21178680D01*
X-29884078Y21088000D01*
X-29884078Y20838000D01*
X-29868138Y20753286D01*
X-29842239Y20713038D01*
X-29865715Y20678680D01*
X-29884078Y20588000D01*
X-29884078Y20338000D01*
X-29868138Y20253286D01*
X-29818072Y20175482D01*
X-29741680Y20123285D01*
X-29651000Y20104922D01*
X-28951000Y20104922D01*
X-28937831Y20107400D01*
X-28294078Y20107400D01*
X-28294078Y19908000D01*
X-28278138Y19823286D01*
X-28228072Y19745482D01*
X-28151680Y19693285D01*
X-28061000Y19674922D01*
X-27311000Y19674922D01*
X-27226286Y19690862D01*
X-27148482Y19740928D01*
X-27096285Y19817320D01*
X-27077922Y19908000D01*
X-27077922Y21108000D01*
X-27093862Y21192714D01*
X-27143928Y21270518D01*
X-27220320Y21322715D01*
X-27311000Y21341078D01*
X-28061000Y21341078D01*
X-28145714Y21325138D01*
X-28223518Y21275072D01*
X-28275715Y21198680D01*
X-28294078Y21108000D01*
X-28294078Y20818600D01*
X-28721851Y20818600D01*
X-28717922Y20838000D01*
X-28717922Y21088000D01*
X-28733862Y21172714D01*
X-28759761Y21212962D01*
X-28736285Y21247320D01*
X-28717922Y21338000D01*
X-28717922Y21588000D01*
X-28733862Y21672714D01*
X-28783928Y21750518D01*
X-28860320Y21802715D01*
X-28951000Y21821078D01*
X-29651000Y21821078D01*
X-29735714Y21805138D01*
X-29813518Y21755072D01*
X-29865715Y21678680D01*
X-29884078Y21588000D01*
X-30505400Y21588000D01*
X-30505400Y22296871D01*
X-30499362Y22326870D01*
X-30500203Y23037800D01*
X-29887048Y23037800D01*
X-29894956Y22304487D01*
G36*
X-31930617Y23523249D02*
X-31927799Y22326062D01*
X-31912166Y22243514D01*
X-31863062Y22167204D01*
X-31788138Y22116010D01*
X-31699200Y22098000D01*
X-30810200Y22098000D01*
X-30810200Y21821078D01*
X-31501000Y21821078D01*
X-31514169Y21818600D01*
X-32511977Y21818600D01*
X-32511903Y21903865D01*
X-32596796Y22109322D01*
X-32753852Y22266652D01*
X-32959160Y22351903D01*
X-33181465Y22352097D01*
X-33386922Y22267204D01*
X-33544252Y22110148D01*
X-33629503Y21904840D01*
X-33629697Y21682535D01*
X-33544804Y21477078D01*
X-33480039Y21412200D01*
X-41325800Y21412200D01*
X-41325800Y23545618D01*
X-31930617Y23523249D01*
X-31930617Y23523249D01*
G37*
X-31930617Y23523249D02*
X-31927799Y22326062D01*
X-31912166Y22243514D01*
X-31863062Y22167204D01*
X-31788138Y22116010D01*
X-31699200Y22098000D01*
X-30810200Y22098000D01*
X-30810200Y21821078D01*
X-31501000Y21821078D01*
X-31514169Y21818600D01*
X-32511977Y21818600D01*
X-32511903Y21903865D01*
X-32596796Y22109322D01*
X-32753852Y22266652D01*
X-32959160Y22351903D01*
X-33181465Y22352097D01*
X-33386922Y22267204D01*
X-33544252Y22110148D01*
X-33629503Y21904840D01*
X-33629697Y21682535D01*
X-33544804Y21477078D01*
X-33480039Y21412200D01*
X-41325800Y21412200D01*
X-41325800Y23545618D01*
X-31930617Y23523249D01*
G36*
X-30804252Y22402800D02*
X-31623179Y22402800D01*
X-31629038Y24892179D01*
X-31635111Y24921811D01*
X-31652235Y24946746D01*
X-31677710Y24963054D01*
X-31705238Y24968200D01*
X-41027038Y24968200D01*
X-41027038Y27355800D01*
X-30810110Y27355800D01*
X-30804252Y22402800D01*
X-30804252Y22402800D01*
G37*
X-30804252Y22402800D02*
X-31623179Y22402800D01*
X-31629038Y24892179D01*
X-31635111Y24921811D01*
X-31652235Y24946746D01*
X-31677710Y24963054D01*
X-31705238Y24968200D01*
X-41027038Y24968200D01*
X-41027038Y27355800D01*
X-30810110Y27355800D01*
X-30804252Y22402800D01*
G36*
X-26911908Y22301200D02*
X-28858103Y22301200D01*
X-28860320Y22302715D01*
X-28951000Y22321078D01*
X-29589959Y22321078D01*
X-29581762Y23081151D01*
X-29580465Y23087368D01*
X-29574228Y23088600D01*
X-26911908Y23088600D01*
X-26911908Y22301200D01*
X-26911908Y22301200D01*
G37*
X-26911908Y22301200D02*
X-28858103Y22301200D01*
X-28860320Y22302715D01*
X-28951000Y22321078D01*
X-29589959Y22321078D01*
X-29581762Y23081151D01*
X-29580465Y23087368D01*
X-29574228Y23088600D01*
X-26911908Y23088600D01*
X-26911908Y22301200D01*
G36*
X-20146294Y24968200D02*
X-20663508Y24968200D01*
X-20663508Y26314400D01*
X-20668719Y26342095D01*
X-20685087Y26367532D01*
X-20710062Y26384597D01*
X-20739708Y26390600D01*
X-26835708Y26390600D01*
X-26863403Y26385389D01*
X-26888840Y26369021D01*
X-26905905Y26344046D01*
X-26911908Y26314400D01*
X-26911908Y24968200D01*
X-29645894Y24968200D01*
X-29645894Y27355800D01*
X-20146294Y27355800D01*
X-20146294Y24968200D01*
X-20146294Y24968200D01*
G37*
X-20146294Y24968200D02*
X-20663508Y24968200D01*
X-20663508Y26314400D01*
X-20668719Y26342095D01*
X-20685087Y26367532D01*
X-20710062Y26384597D01*
X-20739708Y26390600D01*
X-26835708Y26390600D01*
X-26863403Y26385389D01*
X-26888840Y26369021D01*
X-26905905Y26344046D01*
X-26911908Y26314400D01*
X-26911908Y24968200D01*
X-29645894Y24968200D01*
X-29645894Y27355800D01*
X-20146294Y27355800D01*
X-20146294Y24968200D01*
M02*
