G04 #@! TF.FileFunction,Paste,Top*
%FSLAX46Y46*%
G04 Gerber Fmt 4.6, Leading zero omitted, Abs format (unit mm)*
G04 Created by KiCad (PCBNEW 4.0.7) date Friday, July 27, 2018 'PMt' 02:08:11 PM*
%MOMM*%
%LPD*%
G01*
G04 APERTURE LIST*
%ADD10C,0.020000*%
%ADD11C,0.100000*%
%ADD12C,0.150000*%
%ADD13R,2.500000X2.000000*%
%ADD14R,2.000000X2.500000*%
%ADD15R,0.750000X1.200000*%
%ADD16R,3.500000X1.600000*%
%ADD17R,1.300000X0.700000*%
%ADD18R,0.700000X1.300000*%
%ADD19R,0.700000X0.250000*%
%ADD20R,0.384000X0.720000*%
G04 APERTURE END LIST*
D10*
D11*
X27927300Y-67271900D02*
G75*
G02X29222700Y-68567300I0J-1295400D01*
G01*
X11417300Y-68567300D02*
G75*
G02X12687300Y-67297300I1270000J0D01*
G01*
X-44437300Y-63512700D02*
G75*
G02X-43167300Y-64782700I0J-1270000D01*
G01*
X11442700Y-87642700D02*
G75*
G02X10172700Y-88912700I-1270000J0D01*
G01*
X30467300Y-88912700D02*
G75*
G02X29197300Y-87642700I0J1270000D01*
G01*
D12*
X30480000Y-88900000D02*
X49530000Y-88900000D01*
D11*
X-41922700Y-88887300D02*
G75*
G02X-43192700Y-87617300I0J1270000D01*
G01*
D12*
X-43167300Y-64782700D02*
X-43180000Y-87630000D01*
X-49530000Y-63500000D02*
X-44437300Y-63512700D01*
X29222700Y-68567300D02*
X29210000Y-87630000D01*
X12687300Y-67297300D02*
X27927300Y-67297300D01*
X11430000Y-87630000D02*
X11417300Y-68567300D01*
D11*
X-50800000Y-3175000D02*
G75*
G02X-49530000Y-1905000I1270000J0D01*
G01*
X-49530000Y-1905000D02*
X-48895000Y-1905000D01*
X-48895000Y1905000D02*
G75*
G02X-48895000Y-1905000I0J-1905000D01*
G01*
X-48895000Y1905000D02*
X-49530000Y1905000D01*
X-49530000Y1905000D02*
G75*
G02X-50800000Y3175000I0J1270000D01*
G01*
X-50800000Y52070000D02*
X-50800000Y3175000D01*
X-50800000Y52070000D02*
G75*
G02X-49530000Y53340000I1270000J0D01*
G01*
X11430000Y53340000D02*
X-49530000Y53340000D01*
X11430000Y53340000D02*
G75*
G02X12700000Y52070000I0J-1270000D01*
G01*
X12700000Y52070000D02*
X12700000Y41910000D01*
X13970000Y40640000D02*
G75*
G02X12700000Y41910000I0J1270000D01*
G01*
X13970000Y40640000D02*
X49530000Y40640000D01*
X49530000Y40640000D02*
G75*
G02X50800000Y39370000I0J-1270000D01*
G01*
X50800000Y3175000D02*
X50800000Y39370000D01*
X50800000Y3175000D02*
G75*
G02X49530000Y1905000I-1270000J0D01*
G01*
X48895000Y1905000D02*
X49530000Y1905000D01*
X48895000Y-1905000D02*
G75*
G02X48895000Y1905000I0J1905000D01*
G01*
X49530000Y-1905000D02*
X48895000Y-1905000D01*
X49530000Y-1905000D02*
G75*
G02X50800000Y-3175000I0J-1270000D01*
G01*
X50800000Y-87630000D02*
X50800000Y-3175000D01*
X50800000Y-87630000D02*
G75*
G02X49530000Y-88900000I-1270000J0D01*
G01*
X-41910000Y-88900000D02*
X10160000Y-88900000D01*
X-49517300Y-63512700D02*
G75*
G02X-50787300Y-62242700I0J1270000D01*
G01*
X-50800000Y-3175000D02*
X-50800000Y-62230000D01*
D13*
X-35814000Y22384000D03*
X-35814000Y26384000D03*
D14*
X-33560000Y19304000D03*
X-37560000Y19304000D03*
D15*
X-27686000Y20508000D03*
X-27686000Y18608000D03*
D14*
X-28734000Y26162000D03*
X-32734000Y26162000D03*
D13*
X-35763200Y9709400D03*
X-35763200Y13709400D03*
D14*
X-33509200Y4318000D03*
X-37509200Y4318000D03*
D15*
X-27940000Y7808000D03*
X-27940000Y5908000D03*
D14*
X-28734000Y13462000D03*
X-32734000Y13462000D03*
D16*
X-34450000Y-20320000D03*
X-29050000Y-20320000D03*
X-34290000Y-4445000D03*
X-28890000Y-4445000D03*
D10*
G36*
X-20322000Y9317500D02*
X-21497000Y8142500D01*
X-25747000Y8142500D01*
X-26922000Y9317500D01*
X-20322000Y9317500D01*
X-20322000Y9317500D01*
G37*
G36*
X-20309500Y10442500D02*
X-20309500Y9317500D01*
X-21434500Y9317500D01*
X-21434500Y10442500D01*
X-20309500Y10442500D01*
X-20309500Y10442500D01*
G37*
G36*
X-25809500Y10442500D02*
X-25809500Y9317500D01*
X-26934500Y9317500D01*
X-26934500Y10442500D01*
X-25809500Y10442500D01*
X-25809500Y10442500D01*
G37*
G36*
X-22546500Y9317500D02*
X-21422500Y10442500D01*
X-21421500Y10442500D01*
X-20297500Y9317500D01*
X-22546500Y9317500D01*
X-22546500Y9317500D01*
G37*
G36*
X-26946500Y9317500D02*
X-25822500Y10442500D01*
X-25821500Y10442500D01*
X-24697500Y9317500D01*
X-26946500Y9317500D01*
X-26946500Y9317500D01*
G37*
G36*
X-26938373Y13543101D02*
X-25763373Y14718101D01*
X-21513373Y14718101D01*
X-20338373Y13543101D01*
X-26938373Y13543101D01*
X-26938373Y13543101D01*
G37*
G36*
X-26950873Y12418101D02*
X-26950873Y13543101D01*
X-25825873Y13543101D01*
X-25825873Y12418101D01*
X-26950873Y12418101D01*
X-26950873Y12418101D01*
G37*
G36*
X-24713873Y13543101D02*
X-25837873Y12418101D01*
X-25838873Y12418101D01*
X-26962873Y13543101D01*
X-24713873Y13543101D01*
X-24713873Y13543101D01*
G37*
G36*
X-21450873Y12418101D02*
X-21450873Y13543101D01*
X-20325873Y13543101D01*
X-20325873Y12418101D01*
X-21450873Y12418101D01*
X-21450873Y12418101D01*
G37*
G36*
X-20313873Y13543101D02*
X-21437873Y12418101D01*
X-21438873Y12418101D01*
X-22562873Y13543101D01*
X-20313873Y13543101D01*
X-20313873Y13543101D01*
G37*
G36*
X-32260000Y-14458101D02*
X-33435000Y-15633101D01*
X-37685000Y-15633101D01*
X-38860000Y-14458101D01*
X-32260000Y-14458101D01*
X-32260000Y-14458101D01*
G37*
G36*
X-32247500Y-13333101D02*
X-32247500Y-14458101D01*
X-33372500Y-14458101D01*
X-33372500Y-13333101D01*
X-32247500Y-13333101D01*
X-32247500Y-13333101D01*
G37*
G36*
X-37747500Y-13333101D02*
X-37747500Y-14458101D01*
X-38872500Y-14458101D01*
X-38872500Y-13333101D01*
X-37747500Y-13333101D01*
X-37747500Y-13333101D01*
G37*
G36*
X-34484500Y-14458101D02*
X-33360500Y-13333101D01*
X-33359500Y-13333101D01*
X-32235500Y-14458101D01*
X-34484500Y-14458101D01*
X-34484500Y-14458101D01*
G37*
G36*
X-38884500Y-14458101D02*
X-37760500Y-13333101D01*
X-37759500Y-13333101D01*
X-36635500Y-14458101D01*
X-38884500Y-14458101D01*
X-38884500Y-14458101D01*
G37*
G36*
X-38876373Y-10232500D02*
X-37701373Y-9057500D01*
X-33451373Y-9057500D01*
X-32276373Y-10232500D01*
X-38876373Y-10232500D01*
X-38876373Y-10232500D01*
G37*
G36*
X-38888873Y-11357500D02*
X-38888873Y-10232500D01*
X-37763873Y-10232500D01*
X-37763873Y-11357500D01*
X-38888873Y-11357500D01*
X-38888873Y-11357500D01*
G37*
G36*
X-36651873Y-10232500D02*
X-37775873Y-11357500D01*
X-37776873Y-11357500D01*
X-38900873Y-10232500D01*
X-36651873Y-10232500D01*
X-36651873Y-10232500D01*
G37*
G36*
X-33388873Y-11357500D02*
X-33388873Y-10232500D01*
X-32263873Y-10232500D01*
X-32263873Y-11357500D01*
X-33388873Y-11357500D01*
X-33388873Y-11357500D01*
G37*
G36*
X-32251873Y-10232500D02*
X-33375873Y-11357500D01*
X-33376873Y-11357500D01*
X-34500873Y-10232500D01*
X-32251873Y-10232500D01*
X-32251873Y-10232500D01*
G37*
G36*
X-24640000Y-14532500D02*
X-25815000Y-15707500D01*
X-30065000Y-15707500D01*
X-31240000Y-14532500D01*
X-24640000Y-14532500D01*
X-24640000Y-14532500D01*
G37*
G36*
X-24627500Y-13407500D02*
X-24627500Y-14532500D01*
X-25752500Y-14532500D01*
X-25752500Y-13407500D01*
X-24627500Y-13407500D01*
X-24627500Y-13407500D01*
G37*
G36*
X-30127500Y-13407500D02*
X-30127500Y-14532500D01*
X-31252500Y-14532500D01*
X-31252500Y-13407500D01*
X-30127500Y-13407500D01*
X-30127500Y-13407500D01*
G37*
G36*
X-26864500Y-14532500D02*
X-25740500Y-13407500D01*
X-25739500Y-13407500D01*
X-24615500Y-14532500D01*
X-26864500Y-14532500D01*
X-26864500Y-14532500D01*
G37*
G36*
X-31264500Y-14532500D02*
X-30140500Y-13407500D01*
X-30139500Y-13407500D01*
X-29015500Y-14532500D01*
X-31264500Y-14532500D01*
X-31264500Y-14532500D01*
G37*
G36*
X-31256373Y-10306899D02*
X-30081373Y-9131899D01*
X-25831373Y-9131899D01*
X-24656373Y-10306899D01*
X-31256373Y-10306899D01*
X-31256373Y-10306899D01*
G37*
G36*
X-31268873Y-11431899D02*
X-31268873Y-10306899D01*
X-30143873Y-10306899D01*
X-30143873Y-11431899D01*
X-31268873Y-11431899D01*
X-31268873Y-11431899D01*
G37*
G36*
X-29031873Y-10306899D02*
X-30155873Y-11431899D01*
X-30156873Y-11431899D01*
X-31280873Y-10306899D01*
X-29031873Y-10306899D01*
X-29031873Y-10306899D01*
G37*
G36*
X-25768873Y-11431899D02*
X-25768873Y-10306899D01*
X-24643873Y-10306899D01*
X-24643873Y-11431899D01*
X-25768873Y-11431899D01*
X-25768873Y-11431899D01*
G37*
G36*
X-24631873Y-10306899D02*
X-25755873Y-11431899D01*
X-25756873Y-11431899D01*
X-26880873Y-10306899D01*
X-24631873Y-10306899D01*
X-24631873Y-10306899D01*
G37*
G36*
X-20449000Y22017500D02*
X-21624000Y20842500D01*
X-25874000Y20842500D01*
X-27049000Y22017500D01*
X-20449000Y22017500D01*
X-20449000Y22017500D01*
G37*
G36*
X-20436500Y23142500D02*
X-20436500Y22017500D01*
X-21561500Y22017500D01*
X-21561500Y23142500D01*
X-20436500Y23142500D01*
X-20436500Y23142500D01*
G37*
G36*
X-25936500Y23142500D02*
X-25936500Y22017500D01*
X-27061500Y22017500D01*
X-27061500Y23142500D01*
X-25936500Y23142500D01*
X-25936500Y23142500D01*
G37*
G36*
X-22673500Y22017500D02*
X-21549500Y23142500D01*
X-21548500Y23142500D01*
X-20424500Y22017500D01*
X-22673500Y22017500D01*
X-22673500Y22017500D01*
G37*
G36*
X-27073500Y22017500D02*
X-25949500Y23142500D01*
X-25948500Y23142500D01*
X-24824500Y22017500D01*
X-27073500Y22017500D01*
X-27073500Y22017500D01*
G37*
G36*
X-27065373Y26243101D02*
X-25890373Y27418101D01*
X-21640373Y27418101D01*
X-20465373Y26243101D01*
X-27065373Y26243101D01*
X-27065373Y26243101D01*
G37*
G36*
X-27077873Y25118101D02*
X-27077873Y26243101D01*
X-25952873Y26243101D01*
X-25952873Y25118101D01*
X-27077873Y25118101D01*
X-27077873Y25118101D01*
G37*
G36*
X-24840873Y26243101D02*
X-25964873Y25118101D01*
X-25965873Y25118101D01*
X-27089873Y26243101D01*
X-24840873Y26243101D01*
X-24840873Y26243101D01*
G37*
G36*
X-21577873Y25118101D02*
X-21577873Y26243101D01*
X-20452873Y26243101D01*
X-20452873Y25118101D01*
X-21577873Y25118101D01*
X-21577873Y25118101D01*
G37*
G36*
X-20440873Y26243101D02*
X-21564873Y25118101D01*
X-21565873Y25118101D01*
X-22689873Y26243101D01*
X-20440873Y26243101D01*
X-20440873Y26243101D01*
G37*
D17*
X-33274000Y7366000D03*
X-33274000Y9266000D03*
D18*
X-36764000Y7112000D03*
X-34864000Y7112000D03*
X-29855200Y-24968200D03*
X-27955200Y-24968200D03*
D19*
X-31151000Y22463000D03*
X-31151000Y21963000D03*
X-31151000Y21463000D03*
X-31151000Y20963000D03*
X-31151000Y20463000D03*
X-29301000Y20463000D03*
X-29301000Y20963000D03*
X-29301000Y21463000D03*
X-29301000Y21963000D03*
X-29301000Y22463000D03*
D20*
X-30226000Y20863000D03*
X-30226000Y22063000D03*
D19*
X-31314000Y9798000D03*
X-31314000Y9298000D03*
X-31314000Y8798000D03*
X-31314000Y8298000D03*
X-31314000Y7798000D03*
X-29464000Y7798000D03*
X-29464000Y8298000D03*
X-29464000Y8798000D03*
X-29464000Y9298000D03*
X-29464000Y9798000D03*
D20*
X-30389000Y8198000D03*
X-30389000Y9398000D03*
M02*
