M48
;DRILL file {KiCad 4.0.7} date Thursday, June 21, 2018 'PMt' 03:53:05 PM
;FORMAT={-:-/ absolute / metric / decimal}
FMAT,2
METRIC,TZ
T1C0.305
T2C0.508
T3C1.000
T4C1.016
T5C1.300
%
G90
G05
M71
T1
X-44.259Y-4.534
X-44.259Y-7.074
X-44.259Y-9.614
X-44.259Y-12.154
X-44.259Y-14.694
X-41.719Y-4.534
X-41.719Y-7.074
X-41.719Y-9.614
X-40.132Y13.868
X-39.814Y48.806
X-39.643Y18.942
X-39.643Y17.879
X-39.643Y16.871
X-39.576Y6.35
X-39.573Y5.486
X-39.573Y4.623
X-39.37Y26.67
X-39.268Y13.868
X-39.179Y-4.534
X-38.608Y26.67
X-38.354Y13.868
X-34.989Y16.548
X-34.734Y48.806
X-34.734Y-73.114
X-34.734Y-78.194
X-34.734Y-83.274
X-34.444Y-18.139
X-33.071Y21.793
X-32.448Y16.548
X-32.308Y-24.997
X-31.699Y19.685
X-31.476Y6.668
X-30.416Y4.102
X-30.416Y1.816
X-30.391Y8.75
X-30.29Y-1.994
X-30.29Y-7.074
X-30.188Y21.476
X-29.909Y16.548
X-29.909Y11.341
X-29.654Y48.806
X-29.654Y-73.114
X-29.654Y-78.194
X-29.654Y-83.274
X-29.604Y24.041
X-28.994Y11.341
X-28.689Y24.041
X-28.384Y-1.994
X-28.054Y11.341
X-27.937Y-17.395
X-27.877Y4.102
X-27.877Y1.816
X-27.749Y24.041
X-27.368Y16.548
X-27.102Y27.127
X-27.026Y14.478
X-26.479Y-1.994
X-25.336Y4.102
X-25.336Y1.816
X-24.828Y16.548
X-24.575Y48.806
X-24.575Y-1.994
X-24.575Y-73.114
X-24.575Y-78.194
X-24.575Y-83.274
X-22.796Y4.102
X-22.796Y1.816
X-22.034Y-13.424
X-22.034Y-16.599
X-22.034Y-19.774
X-22.034Y-22.949
X-22.034Y-26.124
X-20.256Y4.102
X-20.256Y1.816
X-19.494Y48.806
X-19.494Y-78.194
X-19.494Y-83.274
X-19.241Y21.12
X-19.241Y18.58
X-19.016Y26.917
X-18.877Y28.254
X-18.5Y12.758
X-17.125Y27.92
X-14.414Y48.806
X-14.414Y-78.194
X-14.414Y-83.274
X-13.779Y18.961
X-13.779Y15.786
X-13.779Y12.611
X-13.779Y9.436
X-10.604Y15.786
X-10.604Y12.611
X-9.335Y48.806
X-9.335Y-73.114
X-9.335Y-78.194
X-9.335Y-83.274
X-6.604Y29.718
X-5.588Y30.48
X-5.224Y33.278
X-5.224Y32.015
X-5.191Y34.574
X-4.669Y35.223
X-4.608Y33.926
X-4.576Y32.63
X-4.255Y48.806
X-4.255Y-73.114
X-4.255Y-78.194
X-4.255Y-83.274
X-0.508Y-47.244
X0.483Y-45.72
X0.826Y48.806
X0.826Y-52.794
X0.826Y-57.874
X0.826Y-62.954
X0.826Y-68.034
X0.826Y-73.114
X0.826Y-78.194
X0.826Y-83.274
X1.053Y-44.309
X1.118Y-43.18
X1.731Y-48.231
X2.325Y-29.233
X2.457Y-42.243
X2.97Y-33.039
X3.645Y-31.753
X5.905Y48.806
X5.905Y-52.794
X5.905Y-57.874
X5.905Y-62.954
X5.905Y-68.034
X5.905Y-73.114
X5.905Y-78.194
X5.905Y-83.274
X10.986Y33.566
X10.986Y28.486
X10.986Y23.406
X10.986Y18.326
X10.986Y3.086
X10.986Y-1.994
X10.986Y-7.074
X10.986Y-12.154
X10.986Y-17.234
X10.986Y-22.314
X10.986Y-27.394
X10.986Y-32.474
X10.986Y-37.554
X10.986Y-42.634
X10.986Y-47.714
X10.986Y-52.794
X10.986Y-57.874
X10.986Y-62.954
X16.066Y33.566
X16.066Y28.486
X16.066Y23.406
X16.066Y18.326
X16.066Y13.246
X16.066Y-1.994
X16.066Y-7.074
X16.066Y-12.154
X16.066Y-17.234
X16.066Y-22.314
X16.066Y-27.394
X16.066Y-32.474
X16.066Y-37.554
X16.066Y-42.634
X16.066Y-47.714
X16.066Y-52.794
X16.066Y-57.874
X16.066Y-62.954
X21.145Y33.566
X21.145Y28.486
X21.145Y23.406
X21.145Y18.326
X21.145Y13.246
X21.145Y8.166
X21.145Y-7.074
X21.145Y-12.154
X21.145Y-17.234
X21.145Y-22.314
X21.145Y-27.394
X21.145Y-32.474
X21.145Y-37.554
X21.145Y-42.634
X21.145Y-47.714
X21.145Y-52.794
X21.145Y-57.874
X21.145Y-62.954
X26.226Y33.566
X26.226Y8.166
X26.226Y3.086
X26.226Y-12.154
X26.226Y-17.234
X26.226Y-22.314
X26.226Y-27.394
X26.226Y-32.474
X26.226Y-37.554
X26.226Y-42.634
X26.226Y-47.714
X26.226Y-52.794
X26.226Y-57.874
X26.226Y-62.954
X31.305Y33.566
X31.305Y8.166
X31.305Y3.086
X31.305Y-1.994
X31.305Y-17.234
X31.305Y-22.314
X31.305Y-27.394
X31.305Y-32.474
X31.305Y-37.554
X31.305Y-42.634
X31.305Y-47.714
X31.305Y-52.794
X31.305Y-57.874
X31.305Y-62.954
X36.386Y33.566
X36.386Y28.486
X36.386Y23.406
X36.386Y18.326
X36.386Y13.246
X36.386Y8.166
X36.386Y3.086
X36.386Y-1.994
X36.386Y-7.074
X36.386Y-27.394
X36.386Y-32.474
X36.386Y-37.554
X36.386Y-42.634
X36.386Y-47.714
X36.386Y-52.794
X36.386Y-57.874
X36.386Y-62.954
X36.386Y-68.034
X36.386Y-73.114
X36.386Y-78.194
X36.386Y-83.274
X41.465Y33.566
X41.465Y28.486
X41.465Y23.406
X41.465Y18.326
X41.465Y13.246
X41.465Y8.166
X41.465Y3.086
X41.465Y-1.994
X41.465Y-7.074
X41.465Y-73.114
X41.465Y-78.194
X41.465Y-83.274
T2
X-26.256Y19.98
X-25.845Y6.896
T3
X-35.56Y-27.94
X-35.56Y-62.865
X-33.02Y-27.94
X-33.02Y-62.865
X-30.48Y-27.94
X-30.48Y-62.865
X-27.94Y-27.94
X-27.94Y-62.865
X-27.114Y36.614
X-27.114Y34.074
X-23.558Y36.614
X-23.558Y34.074
X-7.62Y-12.7
X-7.62Y-15.24
X-7.62Y-17.78
X-7.62Y-20.32
X-7.62Y-22.86
X-7.62Y-25.4
X-7.62Y-27.94
X-7.62Y-30.48
X-7.62Y-33.02
X-7.62Y-35.56
X-7.62Y-38.1
X-7.62Y-40.64
X-7.62Y-43.18
X-7.62Y-45.72
X-7.62Y-48.26
X-7.62Y-50.8
X-7.62Y-53.34
X-7.62Y-55.88
X-7.62Y-58.42
X-7.62Y-60.96
X-7.62Y-63.5
X-7.62Y-66.04
X-7.62Y-68.58
X-5.08Y-12.7
X-5.08Y-15.24
X-5.08Y-17.78
X-5.08Y-20.32
X-5.08Y-22.86
X-5.08Y-25.4
X-5.08Y-27.94
X-5.08Y-30.48
X-5.08Y-33.02
X-5.08Y-35.56
X-5.08Y-38.1
X-5.08Y-40.64
X-5.08Y-43.18
X-5.08Y-45.72
X-5.08Y-48.26
X-5.08Y-50.8
X-5.08Y-53.34
X-5.08Y-55.88
X-5.08Y-58.42
X-5.08Y-60.96
X-5.08Y-63.5
X-5.08Y-66.04
X-5.08Y-68.58
X40.64Y-12.7
X40.64Y-15.24
X40.64Y-17.78
X40.64Y-20.32
X40.64Y-22.86
X40.64Y-25.4
X40.64Y-27.94
X40.64Y-30.48
X40.64Y-33.02
X40.64Y-35.56
X40.64Y-38.1
X40.64Y-40.64
X40.64Y-43.18
X40.64Y-45.72
X40.64Y-48.26
X40.64Y-50.8
X40.64Y-53.34
X40.64Y-55.88
X40.64Y-58.42
X40.64Y-60.96
X40.64Y-63.5
X40.64Y-66.04
X40.64Y-68.58
X43.18Y-12.7
X43.18Y-15.24
X43.18Y-17.78
X43.18Y-20.32
X43.18Y-22.86
X43.18Y-25.4
X43.18Y-27.94
X43.18Y-30.48
X43.18Y-33.02
X43.18Y-35.56
X43.18Y-38.1
X43.18Y-40.64
X43.18Y-43.18
X43.18Y-45.72
X43.18Y-48.26
X43.18Y-50.8
X43.18Y-53.34
X43.18Y-55.88
X43.18Y-58.42
X43.18Y-60.96
X43.18Y-63.5
X43.18Y-66.04
X43.18Y-68.58
T4
X-40.64Y42.532
X-40.64Y39.992
X-38.1Y42.532
X-38.1Y39.992
X-35.56Y42.532
X-35.56Y39.992
X-33.02Y42.532
X-33.02Y39.992
X-30.48Y42.532
X-30.48Y39.992
X-27.94Y42.532
X-27.94Y39.992
X-25.4Y42.532
X-25.4Y39.992
X-22.86Y42.532
X-22.86Y39.992
X-20.32Y42.532
X-20.32Y39.992
X-17.78Y42.532
X-17.78Y39.992
X-15.24Y42.532
X-15.24Y39.992
X-12.7Y42.532
X-12.7Y39.992
X-10.16Y42.532
X-10.16Y39.992
X-7.62Y42.532
X-7.62Y39.992
X-5.08Y42.532
X-5.08Y39.992
X-2.54Y42.532
X-2.54Y39.992
X0.Y42.532
X0.Y39.992
X2.54Y42.532
X2.54Y39.992
X5.08Y42.532
X5.08Y39.992
X7.62Y42.532
X7.62Y39.992
T5
X-36.83Y-34.015
X-36.83Y-56.515
X-26.035Y-34.015
X-26.035Y-56.515
T0
M30
